G75*
%MOIN*%
%OFA0B0*%
%FSLAX25Y25*%
%IPPOS*%
%LPD*%
%AMOC8*
5,1,8,0,0,1.08239X$1,22.5*
%
%ADD10C,0.01000*%
%ADD11C,0.00500*%
%ADD12C,0.00600*%
%ADD13C,0.00900*%
%ADD14C,0.00000*%
%ADD15C,0.00394*%
%ADD16C,0.00800*%
%ADD17R,0.00472X0.00236*%
%ADD18R,0.00945X0.00236*%
%ADD19R,0.00709X0.00236*%
%ADD20R,0.01181X0.00236*%
%ADD21R,0.02598X0.00236*%
%ADD22R,0.01654X0.00236*%
%ADD23R,0.03071X0.00236*%
%ADD24R,0.03780X0.00236*%
%ADD25R,0.05906X0.00236*%
%ADD26R,0.06378X0.00236*%
%ADD27R,0.01417X0.00236*%
%ADD28R,0.03543X0.00236*%
%ADD29R,0.02362X0.00236*%
%ADD30R,0.01890X0.00236*%
%ADD31R,0.00236X0.00236*%
%ADD32R,0.04016X0.00236*%
%ADD33R,0.05669X0.00236*%
%ADD34R,0.02835X0.00236*%
%ADD35R,0.02126X0.00236*%
%ADD36R,0.03307X0.00236*%
%ADD37R,0.04252X0.00236*%
%ADD38R,0.06142X0.00236*%
%ADD39R,0.04488X0.00236*%
%ADD40R,0.04724X0.00236*%
%ADD41R,0.06614X0.00236*%
%ADD42R,0.05433X0.00236*%
%ADD43R,0.13228X0.00236*%
%ADD44R,0.12992X0.00236*%
%ADD45R,0.12283X0.00236*%
%ADD46R,0.09921X0.00236*%
%ADD47R,0.07323X0.00236*%
%ADD48R,0.07559X0.00236*%
%ADD49R,0.04961X0.00236*%
%ADD50R,0.10157X0.00236*%
%ADD51R,0.16299X0.00236*%
%ADD52R,0.08976X0.00236*%
%ADD53R,0.08268X0.00236*%
%ADD54R,0.08031X0.00236*%
%ADD55R,0.06850X0.00236*%
%ADD56R,0.05197X0.00236*%
%ADD57R,0.14882X0.00236*%
%ADD58R,0.21260X0.00236*%
%ADD59R,0.24803X0.00236*%
%ADD60R,0.12756X0.00236*%
%ADD61R,0.11339X0.00236*%
%ADD62R,0.09213X0.00236*%
%ADD63R,0.07087X0.00236*%
%ADD64R,0.08504X0.00236*%
%ADD65R,0.07795X0.00236*%
%ADD66R,0.09449X0.00236*%
%ADD67R,0.08740X0.00236*%
%ADD68R,0.09685X0.00236*%
D10*
X0055959Y0001500D02*
X0516589Y0001500D01*
X0516589Y0035563D01*
X0180959Y0035563D01*
X0180959Y0435063D01*
X0516589Y0435063D01*
X0516589Y0470004D01*
X0055959Y0470004D01*
X0055959Y0001500D01*
X0180959Y0102563D02*
X0180959Y0180063D01*
X0180959Y0195063D02*
X0180959Y0270063D01*
X0180959Y0285063D02*
X0180959Y0395063D01*
D11*
X0160322Y0415384D02*
X0158519Y0413581D01*
X0156715Y0415384D01*
X0156715Y0418991D01*
X0154884Y0416286D02*
X0154884Y0414482D01*
X0153983Y0413581D01*
X0152179Y0413581D01*
X0151278Y0415384D02*
X0154884Y0415384D01*
X0154884Y0416286D02*
X0153983Y0417187D01*
X0152179Y0417187D01*
X0151278Y0416286D01*
X0151278Y0415384D01*
X0149447Y0415384D02*
X0147643Y0417187D01*
X0146742Y0417187D01*
X0144915Y0416286D02*
X0144014Y0417187D01*
X0141308Y0417187D01*
X0139478Y0417187D02*
X0138576Y0417187D01*
X0138576Y0413581D01*
X0139478Y0413581D02*
X0137674Y0413581D01*
X0135852Y0414482D02*
X0134951Y0413581D01*
X0133147Y0413581D01*
X0132246Y0414482D01*
X0132246Y0416286D01*
X0133147Y0417187D01*
X0134951Y0417187D01*
X0135852Y0416286D01*
X0135852Y0414482D01*
X0138576Y0418991D02*
X0138576Y0419893D01*
X0142210Y0415384D02*
X0144014Y0415384D01*
X0144915Y0416286D01*
X0144915Y0413581D02*
X0142210Y0413581D01*
X0141308Y0414482D01*
X0142210Y0415384D01*
X0149447Y0413581D02*
X0149447Y0417187D01*
X0160322Y0418991D02*
X0160322Y0415384D01*
X0130415Y0413581D02*
X0130415Y0417187D01*
X0127710Y0417187D01*
X0126808Y0416286D01*
X0126808Y0413581D01*
X0119539Y0413581D02*
X0115932Y0413581D01*
X0117736Y0413581D02*
X0117736Y0418991D01*
X0119539Y0417187D01*
X0114102Y0414482D02*
X0113200Y0414482D01*
X0113200Y0413581D01*
X0114102Y0413581D01*
X0114102Y0414482D01*
X0111383Y0413581D02*
X0107776Y0413581D01*
X0109579Y0413581D02*
X0109579Y0418991D01*
X0111383Y0417187D01*
D12*
X0124229Y0434871D02*
X0123016Y0436084D01*
X0123016Y0440938D01*
X0124229Y0442151D01*
X0126656Y0442151D01*
X0127870Y0440938D01*
X0127870Y0439724D01*
X0126656Y0438511D01*
X0123016Y0438511D01*
X0124229Y0434871D02*
X0126656Y0434871D01*
X0127870Y0436084D01*
X0130266Y0434871D02*
X0135120Y0434871D01*
X0132693Y0434871D02*
X0132693Y0442151D01*
X0135120Y0439724D01*
X0137517Y0440938D02*
X0142370Y0436084D01*
X0141157Y0434871D01*
X0138730Y0434871D01*
X0137517Y0436084D01*
X0137517Y0440938D01*
X0138730Y0442151D01*
X0141157Y0442151D01*
X0142370Y0440938D01*
X0142370Y0436084D01*
X0144767Y0434871D02*
X0149620Y0434871D01*
X0144767Y0439724D01*
X0144767Y0440938D01*
X0145980Y0442151D01*
X0148407Y0442151D01*
X0149620Y0440938D01*
X0146439Y0022860D02*
X0144012Y0022860D01*
X0142798Y0021646D01*
X0142798Y0020433D01*
X0147652Y0015580D01*
X0142798Y0015580D01*
X0140402Y0016793D02*
X0135548Y0021646D01*
X0135548Y0016793D01*
X0136762Y0015580D01*
X0139188Y0015580D01*
X0140402Y0016793D01*
X0140402Y0021646D01*
X0139188Y0022860D01*
X0136762Y0022860D01*
X0135548Y0021646D01*
X0133151Y0020433D02*
X0130725Y0022860D01*
X0130725Y0015580D01*
X0133151Y0015580D02*
X0128298Y0015580D01*
X0125901Y0016793D02*
X0124688Y0015580D01*
X0122261Y0015580D01*
X0121048Y0016793D01*
X0121048Y0021646D01*
X0122261Y0022860D01*
X0124688Y0022860D01*
X0125901Y0021646D01*
X0125901Y0020433D01*
X0124688Y0019220D01*
X0121048Y0019220D01*
X0146439Y0022860D02*
X0147652Y0021646D01*
D13*
X0146654Y0027541D02*
X0150294Y0031181D01*
X0148474Y0031181D02*
X0153934Y0031181D01*
X0153934Y0027541D02*
X0153934Y0038461D01*
X0148474Y0038461D01*
X0146654Y0036641D01*
X0146654Y0033001D01*
X0148474Y0031181D01*
X0143058Y0033001D02*
X0137598Y0033001D01*
X0135778Y0031181D01*
X0135778Y0029361D01*
X0137598Y0027541D01*
X0143058Y0027541D01*
X0143058Y0038461D01*
X0137598Y0038461D01*
X0135778Y0036641D01*
X0135778Y0034821D01*
X0137598Y0033001D01*
X0132183Y0034821D02*
X0130363Y0033001D01*
X0126723Y0033001D01*
X0124903Y0031181D01*
X0124903Y0029361D01*
X0126723Y0027541D01*
X0130363Y0027541D01*
X0132183Y0029361D01*
X0132183Y0034821D02*
X0132183Y0036641D01*
X0130363Y0038461D01*
X0126723Y0038461D01*
X0124903Y0036641D01*
X0121308Y0036641D02*
X0121308Y0029361D01*
X0119488Y0027541D01*
X0115847Y0027541D01*
X0114027Y0029361D01*
X0114027Y0036641D02*
X0115847Y0038461D01*
X0119488Y0038461D01*
X0121308Y0036641D01*
X0217481Y0021190D02*
X0217481Y0019370D01*
X0224761Y0019370D01*
X0224761Y0021190D02*
X0222941Y0023010D01*
X0219301Y0023010D01*
X0217481Y0021190D01*
X0219301Y0015730D02*
X0222941Y0015730D01*
X0224761Y0017550D01*
X0224761Y0021190D01*
X0228371Y0015730D02*
X0232011Y0015730D01*
X0230191Y0015730D02*
X0230191Y0026650D01*
X0232011Y0026650D01*
X0235606Y0023010D02*
X0235606Y0015730D01*
X0241067Y0015730D01*
X0242887Y0017550D01*
X0242887Y0023010D01*
X0246482Y0023010D02*
X0251942Y0023010D01*
X0253762Y0021190D01*
X0253762Y0017550D01*
X0251942Y0015730D01*
X0246482Y0015730D01*
X0246482Y0026650D01*
X0257357Y0021190D02*
X0257357Y0017550D01*
X0259177Y0015730D01*
X0262817Y0015730D01*
X0264637Y0017550D01*
X0264637Y0021190D01*
X0262817Y0023010D01*
X0259177Y0023010D01*
X0257357Y0021190D01*
X0268233Y0026650D02*
X0268233Y0015730D01*
X0271873Y0023010D02*
X0268233Y0026650D01*
X0271873Y0023010D02*
X0275513Y0026650D01*
X0275513Y0015730D01*
X0289991Y0023010D02*
X0291811Y0023010D01*
X0295451Y0019370D01*
X0299046Y0019370D02*
X0306327Y0019370D01*
X0306327Y0021190D02*
X0304507Y0023010D01*
X0300866Y0023010D01*
X0299046Y0021190D01*
X0299046Y0019370D01*
X0300866Y0015730D02*
X0304507Y0015730D01*
X0306327Y0017550D01*
X0306327Y0021190D01*
X0309937Y0023010D02*
X0313577Y0023010D01*
X0311757Y0024830D02*
X0311757Y0017550D01*
X0309937Y0015730D01*
X0317172Y0017550D02*
X0318992Y0015730D01*
X0324452Y0015730D01*
X0328048Y0015730D02*
X0328048Y0021190D01*
X0329868Y0023010D01*
X0333508Y0023010D01*
X0333508Y0019370D02*
X0328048Y0019370D01*
X0328048Y0015730D02*
X0333508Y0015730D01*
X0335328Y0017550D01*
X0333508Y0019370D01*
X0338923Y0023010D02*
X0344383Y0023010D01*
X0346203Y0021190D01*
X0346203Y0017550D01*
X0344383Y0015730D01*
X0338923Y0015730D01*
X0338923Y0026650D01*
X0349798Y0023010D02*
X0349798Y0015730D01*
X0349798Y0021190D02*
X0357079Y0021190D01*
X0357079Y0023010D02*
X0353439Y0026650D01*
X0349798Y0023010D01*
X0357079Y0023010D02*
X0357079Y0015730D01*
X0371549Y0019370D02*
X0378829Y0019370D01*
X0378829Y0021190D02*
X0377009Y0023010D01*
X0373369Y0023010D01*
X0371549Y0021190D01*
X0371549Y0019370D01*
X0373369Y0015730D02*
X0377009Y0015730D01*
X0378829Y0017550D01*
X0378829Y0021190D01*
X0382425Y0023010D02*
X0387885Y0023010D01*
X0389705Y0021190D01*
X0389705Y0017550D01*
X0387885Y0015730D01*
X0382425Y0015730D01*
X0382425Y0013909D02*
X0382425Y0023010D01*
X0382425Y0013909D02*
X0384245Y0012089D01*
X0386065Y0012089D01*
X0393300Y0015730D02*
X0398760Y0015730D01*
X0400580Y0017550D01*
X0400580Y0021190D01*
X0398760Y0023010D01*
X0393300Y0023010D01*
X0393300Y0026650D02*
X0393300Y0015730D01*
X0404191Y0015730D02*
X0407831Y0015730D01*
X0406011Y0015730D02*
X0406011Y0023010D01*
X0407831Y0023010D01*
X0411433Y0023010D02*
X0413253Y0023010D01*
X0416893Y0019370D01*
X0416893Y0015730D02*
X0416893Y0023010D01*
X0420504Y0023010D02*
X0424144Y0023010D01*
X0422324Y0024830D02*
X0422324Y0017550D01*
X0420504Y0015730D01*
X0427746Y0023010D02*
X0429567Y0023010D01*
X0433207Y0019370D01*
X0436802Y0019370D02*
X0442262Y0019370D01*
X0444082Y0017550D01*
X0442262Y0015730D01*
X0436802Y0015730D01*
X0436802Y0021190D01*
X0438622Y0023010D01*
X0442262Y0023010D01*
X0447677Y0024830D02*
X0449497Y0026650D01*
X0453137Y0026650D01*
X0454957Y0024830D01*
X0454957Y0017550D01*
X0453137Y0015730D01*
X0449497Y0015730D01*
X0447677Y0017550D01*
X0433207Y0015730D02*
X0433207Y0023010D01*
X0406011Y0026650D02*
X0406011Y0028470D01*
X0324452Y0023010D02*
X0324452Y0012089D01*
X0317172Y0017550D02*
X0317172Y0021190D01*
X0318992Y0023010D01*
X0324452Y0023010D01*
X0295451Y0023010D02*
X0295451Y0015730D01*
X0155902Y0446832D02*
X0155902Y0457752D01*
X0150442Y0457752D01*
X0148622Y0455932D01*
X0148622Y0452292D01*
X0150442Y0450472D01*
X0155902Y0450472D01*
X0152262Y0450472D02*
X0148622Y0446832D01*
X0145027Y0446832D02*
X0139567Y0446832D01*
X0137747Y0448652D01*
X0137747Y0450472D01*
X0139567Y0452292D01*
X0145027Y0452292D01*
X0145027Y0446832D02*
X0145027Y0457752D01*
X0139567Y0457752D01*
X0137747Y0455932D01*
X0137747Y0454112D01*
X0139567Y0452292D01*
X0134152Y0454112D02*
X0132331Y0452292D01*
X0128691Y0452292D01*
X0126871Y0450472D01*
X0126871Y0448652D01*
X0128691Y0446832D01*
X0132331Y0446832D01*
X0134152Y0448652D01*
X0134152Y0454112D02*
X0134152Y0455932D01*
X0132331Y0457752D01*
X0128691Y0457752D01*
X0126871Y0455932D01*
X0123276Y0455932D02*
X0123276Y0448652D01*
X0121456Y0446832D01*
X0117816Y0446832D01*
X0115996Y0448652D01*
X0115996Y0455932D02*
X0117816Y0457752D01*
X0121456Y0457752D01*
X0123276Y0455932D01*
D14*
X0067770Y0450319D02*
X0067772Y0450512D01*
X0067779Y0450705D01*
X0067791Y0450898D01*
X0067808Y0451091D01*
X0067829Y0451283D01*
X0067855Y0451474D01*
X0067886Y0451665D01*
X0067921Y0451855D01*
X0067961Y0452044D01*
X0068006Y0452232D01*
X0068055Y0452419D01*
X0068109Y0452605D01*
X0068167Y0452789D01*
X0068230Y0452972D01*
X0068298Y0453153D01*
X0068369Y0453332D01*
X0068446Y0453510D01*
X0068526Y0453686D01*
X0068611Y0453859D01*
X0068700Y0454031D01*
X0068793Y0454200D01*
X0068890Y0454367D01*
X0068992Y0454532D01*
X0069097Y0454694D01*
X0069206Y0454853D01*
X0069320Y0455010D01*
X0069437Y0455163D01*
X0069557Y0455314D01*
X0069682Y0455462D01*
X0069810Y0455607D01*
X0069941Y0455748D01*
X0070076Y0455887D01*
X0070215Y0456022D01*
X0070356Y0456153D01*
X0070501Y0456281D01*
X0070649Y0456406D01*
X0070800Y0456526D01*
X0070953Y0456643D01*
X0071110Y0456757D01*
X0071269Y0456866D01*
X0071431Y0456971D01*
X0071596Y0457073D01*
X0071763Y0457170D01*
X0071932Y0457263D01*
X0072104Y0457352D01*
X0072277Y0457437D01*
X0072453Y0457517D01*
X0072631Y0457594D01*
X0072810Y0457665D01*
X0072991Y0457733D01*
X0073174Y0457796D01*
X0073358Y0457854D01*
X0073544Y0457908D01*
X0073731Y0457957D01*
X0073919Y0458002D01*
X0074108Y0458042D01*
X0074298Y0458077D01*
X0074489Y0458108D01*
X0074680Y0458134D01*
X0074872Y0458155D01*
X0075065Y0458172D01*
X0075258Y0458184D01*
X0075451Y0458191D01*
X0075644Y0458193D01*
X0075837Y0458191D01*
X0076030Y0458184D01*
X0076223Y0458172D01*
X0076416Y0458155D01*
X0076608Y0458134D01*
X0076799Y0458108D01*
X0076990Y0458077D01*
X0077180Y0458042D01*
X0077369Y0458002D01*
X0077557Y0457957D01*
X0077744Y0457908D01*
X0077930Y0457854D01*
X0078114Y0457796D01*
X0078297Y0457733D01*
X0078478Y0457665D01*
X0078657Y0457594D01*
X0078835Y0457517D01*
X0079011Y0457437D01*
X0079184Y0457352D01*
X0079356Y0457263D01*
X0079525Y0457170D01*
X0079692Y0457073D01*
X0079857Y0456971D01*
X0080019Y0456866D01*
X0080178Y0456757D01*
X0080335Y0456643D01*
X0080488Y0456526D01*
X0080639Y0456406D01*
X0080787Y0456281D01*
X0080932Y0456153D01*
X0081073Y0456022D01*
X0081212Y0455887D01*
X0081347Y0455748D01*
X0081478Y0455607D01*
X0081606Y0455462D01*
X0081731Y0455314D01*
X0081851Y0455163D01*
X0081968Y0455010D01*
X0082082Y0454853D01*
X0082191Y0454694D01*
X0082296Y0454532D01*
X0082398Y0454367D01*
X0082495Y0454200D01*
X0082588Y0454031D01*
X0082677Y0453859D01*
X0082762Y0453686D01*
X0082842Y0453510D01*
X0082919Y0453332D01*
X0082990Y0453153D01*
X0083058Y0452972D01*
X0083121Y0452789D01*
X0083179Y0452605D01*
X0083233Y0452419D01*
X0083282Y0452232D01*
X0083327Y0452044D01*
X0083367Y0451855D01*
X0083402Y0451665D01*
X0083433Y0451474D01*
X0083459Y0451283D01*
X0083480Y0451091D01*
X0083497Y0450898D01*
X0083509Y0450705D01*
X0083516Y0450512D01*
X0083518Y0450319D01*
X0083516Y0450126D01*
X0083509Y0449933D01*
X0083497Y0449740D01*
X0083480Y0449547D01*
X0083459Y0449355D01*
X0083433Y0449164D01*
X0083402Y0448973D01*
X0083367Y0448783D01*
X0083327Y0448594D01*
X0083282Y0448406D01*
X0083233Y0448219D01*
X0083179Y0448033D01*
X0083121Y0447849D01*
X0083058Y0447666D01*
X0082990Y0447485D01*
X0082919Y0447306D01*
X0082842Y0447128D01*
X0082762Y0446952D01*
X0082677Y0446779D01*
X0082588Y0446607D01*
X0082495Y0446438D01*
X0082398Y0446271D01*
X0082296Y0446106D01*
X0082191Y0445944D01*
X0082082Y0445785D01*
X0081968Y0445628D01*
X0081851Y0445475D01*
X0081731Y0445324D01*
X0081606Y0445176D01*
X0081478Y0445031D01*
X0081347Y0444890D01*
X0081212Y0444751D01*
X0081073Y0444616D01*
X0080932Y0444485D01*
X0080787Y0444357D01*
X0080639Y0444232D01*
X0080488Y0444112D01*
X0080335Y0443995D01*
X0080178Y0443881D01*
X0080019Y0443772D01*
X0079857Y0443667D01*
X0079692Y0443565D01*
X0079525Y0443468D01*
X0079356Y0443375D01*
X0079184Y0443286D01*
X0079011Y0443201D01*
X0078835Y0443121D01*
X0078657Y0443044D01*
X0078478Y0442973D01*
X0078297Y0442905D01*
X0078114Y0442842D01*
X0077930Y0442784D01*
X0077744Y0442730D01*
X0077557Y0442681D01*
X0077369Y0442636D01*
X0077180Y0442596D01*
X0076990Y0442561D01*
X0076799Y0442530D01*
X0076608Y0442504D01*
X0076416Y0442483D01*
X0076223Y0442466D01*
X0076030Y0442454D01*
X0075837Y0442447D01*
X0075644Y0442445D01*
X0075451Y0442447D01*
X0075258Y0442454D01*
X0075065Y0442466D01*
X0074872Y0442483D01*
X0074680Y0442504D01*
X0074489Y0442530D01*
X0074298Y0442561D01*
X0074108Y0442596D01*
X0073919Y0442636D01*
X0073731Y0442681D01*
X0073544Y0442730D01*
X0073358Y0442784D01*
X0073174Y0442842D01*
X0072991Y0442905D01*
X0072810Y0442973D01*
X0072631Y0443044D01*
X0072453Y0443121D01*
X0072277Y0443201D01*
X0072104Y0443286D01*
X0071932Y0443375D01*
X0071763Y0443468D01*
X0071596Y0443565D01*
X0071431Y0443667D01*
X0071269Y0443772D01*
X0071110Y0443881D01*
X0070953Y0443995D01*
X0070800Y0444112D01*
X0070649Y0444232D01*
X0070501Y0444357D01*
X0070356Y0444485D01*
X0070215Y0444616D01*
X0070076Y0444751D01*
X0069941Y0444890D01*
X0069810Y0445031D01*
X0069682Y0445176D01*
X0069557Y0445324D01*
X0069437Y0445475D01*
X0069320Y0445628D01*
X0069206Y0445785D01*
X0069097Y0445944D01*
X0068992Y0446106D01*
X0068890Y0446271D01*
X0068793Y0446438D01*
X0068700Y0446607D01*
X0068611Y0446779D01*
X0068526Y0446952D01*
X0068446Y0447128D01*
X0068369Y0447306D01*
X0068298Y0447485D01*
X0068230Y0447666D01*
X0068167Y0447849D01*
X0068109Y0448033D01*
X0068055Y0448219D01*
X0068006Y0448406D01*
X0067961Y0448594D01*
X0067921Y0448783D01*
X0067886Y0448973D01*
X0067855Y0449164D01*
X0067829Y0449355D01*
X0067808Y0449547D01*
X0067791Y0449740D01*
X0067779Y0449933D01*
X0067772Y0450126D01*
X0067770Y0450319D01*
X0490998Y0450319D02*
X0491000Y0450512D01*
X0491007Y0450705D01*
X0491019Y0450898D01*
X0491036Y0451091D01*
X0491057Y0451283D01*
X0491083Y0451474D01*
X0491114Y0451665D01*
X0491149Y0451855D01*
X0491189Y0452044D01*
X0491234Y0452232D01*
X0491283Y0452419D01*
X0491337Y0452605D01*
X0491395Y0452789D01*
X0491458Y0452972D01*
X0491526Y0453153D01*
X0491597Y0453332D01*
X0491674Y0453510D01*
X0491754Y0453686D01*
X0491839Y0453859D01*
X0491928Y0454031D01*
X0492021Y0454200D01*
X0492118Y0454367D01*
X0492220Y0454532D01*
X0492325Y0454694D01*
X0492434Y0454853D01*
X0492548Y0455010D01*
X0492665Y0455163D01*
X0492785Y0455314D01*
X0492910Y0455462D01*
X0493038Y0455607D01*
X0493169Y0455748D01*
X0493304Y0455887D01*
X0493443Y0456022D01*
X0493584Y0456153D01*
X0493729Y0456281D01*
X0493877Y0456406D01*
X0494028Y0456526D01*
X0494181Y0456643D01*
X0494338Y0456757D01*
X0494497Y0456866D01*
X0494659Y0456971D01*
X0494824Y0457073D01*
X0494991Y0457170D01*
X0495160Y0457263D01*
X0495332Y0457352D01*
X0495505Y0457437D01*
X0495681Y0457517D01*
X0495859Y0457594D01*
X0496038Y0457665D01*
X0496219Y0457733D01*
X0496402Y0457796D01*
X0496586Y0457854D01*
X0496772Y0457908D01*
X0496959Y0457957D01*
X0497147Y0458002D01*
X0497336Y0458042D01*
X0497526Y0458077D01*
X0497717Y0458108D01*
X0497908Y0458134D01*
X0498100Y0458155D01*
X0498293Y0458172D01*
X0498486Y0458184D01*
X0498679Y0458191D01*
X0498872Y0458193D01*
X0499065Y0458191D01*
X0499258Y0458184D01*
X0499451Y0458172D01*
X0499644Y0458155D01*
X0499836Y0458134D01*
X0500027Y0458108D01*
X0500218Y0458077D01*
X0500408Y0458042D01*
X0500597Y0458002D01*
X0500785Y0457957D01*
X0500972Y0457908D01*
X0501158Y0457854D01*
X0501342Y0457796D01*
X0501525Y0457733D01*
X0501706Y0457665D01*
X0501885Y0457594D01*
X0502063Y0457517D01*
X0502239Y0457437D01*
X0502412Y0457352D01*
X0502584Y0457263D01*
X0502753Y0457170D01*
X0502920Y0457073D01*
X0503085Y0456971D01*
X0503247Y0456866D01*
X0503406Y0456757D01*
X0503563Y0456643D01*
X0503716Y0456526D01*
X0503867Y0456406D01*
X0504015Y0456281D01*
X0504160Y0456153D01*
X0504301Y0456022D01*
X0504440Y0455887D01*
X0504575Y0455748D01*
X0504706Y0455607D01*
X0504834Y0455462D01*
X0504959Y0455314D01*
X0505079Y0455163D01*
X0505196Y0455010D01*
X0505310Y0454853D01*
X0505419Y0454694D01*
X0505524Y0454532D01*
X0505626Y0454367D01*
X0505723Y0454200D01*
X0505816Y0454031D01*
X0505905Y0453859D01*
X0505990Y0453686D01*
X0506070Y0453510D01*
X0506147Y0453332D01*
X0506218Y0453153D01*
X0506286Y0452972D01*
X0506349Y0452789D01*
X0506407Y0452605D01*
X0506461Y0452419D01*
X0506510Y0452232D01*
X0506555Y0452044D01*
X0506595Y0451855D01*
X0506630Y0451665D01*
X0506661Y0451474D01*
X0506687Y0451283D01*
X0506708Y0451091D01*
X0506725Y0450898D01*
X0506737Y0450705D01*
X0506744Y0450512D01*
X0506746Y0450319D01*
X0506744Y0450126D01*
X0506737Y0449933D01*
X0506725Y0449740D01*
X0506708Y0449547D01*
X0506687Y0449355D01*
X0506661Y0449164D01*
X0506630Y0448973D01*
X0506595Y0448783D01*
X0506555Y0448594D01*
X0506510Y0448406D01*
X0506461Y0448219D01*
X0506407Y0448033D01*
X0506349Y0447849D01*
X0506286Y0447666D01*
X0506218Y0447485D01*
X0506147Y0447306D01*
X0506070Y0447128D01*
X0505990Y0446952D01*
X0505905Y0446779D01*
X0505816Y0446607D01*
X0505723Y0446438D01*
X0505626Y0446271D01*
X0505524Y0446106D01*
X0505419Y0445944D01*
X0505310Y0445785D01*
X0505196Y0445628D01*
X0505079Y0445475D01*
X0504959Y0445324D01*
X0504834Y0445176D01*
X0504706Y0445031D01*
X0504575Y0444890D01*
X0504440Y0444751D01*
X0504301Y0444616D01*
X0504160Y0444485D01*
X0504015Y0444357D01*
X0503867Y0444232D01*
X0503716Y0444112D01*
X0503563Y0443995D01*
X0503406Y0443881D01*
X0503247Y0443772D01*
X0503085Y0443667D01*
X0502920Y0443565D01*
X0502753Y0443468D01*
X0502584Y0443375D01*
X0502412Y0443286D01*
X0502239Y0443201D01*
X0502063Y0443121D01*
X0501885Y0443044D01*
X0501706Y0442973D01*
X0501525Y0442905D01*
X0501342Y0442842D01*
X0501158Y0442784D01*
X0500972Y0442730D01*
X0500785Y0442681D01*
X0500597Y0442636D01*
X0500408Y0442596D01*
X0500218Y0442561D01*
X0500027Y0442530D01*
X0499836Y0442504D01*
X0499644Y0442483D01*
X0499451Y0442466D01*
X0499258Y0442454D01*
X0499065Y0442447D01*
X0498872Y0442445D01*
X0498679Y0442447D01*
X0498486Y0442454D01*
X0498293Y0442466D01*
X0498100Y0442483D01*
X0497908Y0442504D01*
X0497717Y0442530D01*
X0497526Y0442561D01*
X0497336Y0442596D01*
X0497147Y0442636D01*
X0496959Y0442681D01*
X0496772Y0442730D01*
X0496586Y0442784D01*
X0496402Y0442842D01*
X0496219Y0442905D01*
X0496038Y0442973D01*
X0495859Y0443044D01*
X0495681Y0443121D01*
X0495505Y0443201D01*
X0495332Y0443286D01*
X0495160Y0443375D01*
X0494991Y0443468D01*
X0494824Y0443565D01*
X0494659Y0443667D01*
X0494497Y0443772D01*
X0494338Y0443881D01*
X0494181Y0443995D01*
X0494028Y0444112D01*
X0493877Y0444232D01*
X0493729Y0444357D01*
X0493584Y0444485D01*
X0493443Y0444616D01*
X0493304Y0444751D01*
X0493169Y0444890D01*
X0493038Y0445031D01*
X0492910Y0445176D01*
X0492785Y0445324D01*
X0492665Y0445475D01*
X0492548Y0445628D01*
X0492434Y0445785D01*
X0492325Y0445944D01*
X0492220Y0446106D01*
X0492118Y0446271D01*
X0492021Y0446438D01*
X0491928Y0446607D01*
X0491839Y0446779D01*
X0491754Y0446952D01*
X0491674Y0447128D01*
X0491597Y0447306D01*
X0491526Y0447485D01*
X0491458Y0447666D01*
X0491395Y0447849D01*
X0491337Y0448033D01*
X0491283Y0448219D01*
X0491234Y0448406D01*
X0491189Y0448594D01*
X0491149Y0448783D01*
X0491114Y0448973D01*
X0491083Y0449164D01*
X0491057Y0449355D01*
X0491036Y0449547D01*
X0491019Y0449740D01*
X0491007Y0449933D01*
X0491000Y0450126D01*
X0490998Y0450319D01*
X0490998Y0021185D02*
X0491000Y0021378D01*
X0491007Y0021571D01*
X0491019Y0021764D01*
X0491036Y0021957D01*
X0491057Y0022149D01*
X0491083Y0022340D01*
X0491114Y0022531D01*
X0491149Y0022721D01*
X0491189Y0022910D01*
X0491234Y0023098D01*
X0491283Y0023285D01*
X0491337Y0023471D01*
X0491395Y0023655D01*
X0491458Y0023838D01*
X0491526Y0024019D01*
X0491597Y0024198D01*
X0491674Y0024376D01*
X0491754Y0024552D01*
X0491839Y0024725D01*
X0491928Y0024897D01*
X0492021Y0025066D01*
X0492118Y0025233D01*
X0492220Y0025398D01*
X0492325Y0025560D01*
X0492434Y0025719D01*
X0492548Y0025876D01*
X0492665Y0026029D01*
X0492785Y0026180D01*
X0492910Y0026328D01*
X0493038Y0026473D01*
X0493169Y0026614D01*
X0493304Y0026753D01*
X0493443Y0026888D01*
X0493584Y0027019D01*
X0493729Y0027147D01*
X0493877Y0027272D01*
X0494028Y0027392D01*
X0494181Y0027509D01*
X0494338Y0027623D01*
X0494497Y0027732D01*
X0494659Y0027837D01*
X0494824Y0027939D01*
X0494991Y0028036D01*
X0495160Y0028129D01*
X0495332Y0028218D01*
X0495505Y0028303D01*
X0495681Y0028383D01*
X0495859Y0028460D01*
X0496038Y0028531D01*
X0496219Y0028599D01*
X0496402Y0028662D01*
X0496586Y0028720D01*
X0496772Y0028774D01*
X0496959Y0028823D01*
X0497147Y0028868D01*
X0497336Y0028908D01*
X0497526Y0028943D01*
X0497717Y0028974D01*
X0497908Y0029000D01*
X0498100Y0029021D01*
X0498293Y0029038D01*
X0498486Y0029050D01*
X0498679Y0029057D01*
X0498872Y0029059D01*
X0499065Y0029057D01*
X0499258Y0029050D01*
X0499451Y0029038D01*
X0499644Y0029021D01*
X0499836Y0029000D01*
X0500027Y0028974D01*
X0500218Y0028943D01*
X0500408Y0028908D01*
X0500597Y0028868D01*
X0500785Y0028823D01*
X0500972Y0028774D01*
X0501158Y0028720D01*
X0501342Y0028662D01*
X0501525Y0028599D01*
X0501706Y0028531D01*
X0501885Y0028460D01*
X0502063Y0028383D01*
X0502239Y0028303D01*
X0502412Y0028218D01*
X0502584Y0028129D01*
X0502753Y0028036D01*
X0502920Y0027939D01*
X0503085Y0027837D01*
X0503247Y0027732D01*
X0503406Y0027623D01*
X0503563Y0027509D01*
X0503716Y0027392D01*
X0503867Y0027272D01*
X0504015Y0027147D01*
X0504160Y0027019D01*
X0504301Y0026888D01*
X0504440Y0026753D01*
X0504575Y0026614D01*
X0504706Y0026473D01*
X0504834Y0026328D01*
X0504959Y0026180D01*
X0505079Y0026029D01*
X0505196Y0025876D01*
X0505310Y0025719D01*
X0505419Y0025560D01*
X0505524Y0025398D01*
X0505626Y0025233D01*
X0505723Y0025066D01*
X0505816Y0024897D01*
X0505905Y0024725D01*
X0505990Y0024552D01*
X0506070Y0024376D01*
X0506147Y0024198D01*
X0506218Y0024019D01*
X0506286Y0023838D01*
X0506349Y0023655D01*
X0506407Y0023471D01*
X0506461Y0023285D01*
X0506510Y0023098D01*
X0506555Y0022910D01*
X0506595Y0022721D01*
X0506630Y0022531D01*
X0506661Y0022340D01*
X0506687Y0022149D01*
X0506708Y0021957D01*
X0506725Y0021764D01*
X0506737Y0021571D01*
X0506744Y0021378D01*
X0506746Y0021185D01*
X0506744Y0020992D01*
X0506737Y0020799D01*
X0506725Y0020606D01*
X0506708Y0020413D01*
X0506687Y0020221D01*
X0506661Y0020030D01*
X0506630Y0019839D01*
X0506595Y0019649D01*
X0506555Y0019460D01*
X0506510Y0019272D01*
X0506461Y0019085D01*
X0506407Y0018899D01*
X0506349Y0018715D01*
X0506286Y0018532D01*
X0506218Y0018351D01*
X0506147Y0018172D01*
X0506070Y0017994D01*
X0505990Y0017818D01*
X0505905Y0017645D01*
X0505816Y0017473D01*
X0505723Y0017304D01*
X0505626Y0017137D01*
X0505524Y0016972D01*
X0505419Y0016810D01*
X0505310Y0016651D01*
X0505196Y0016494D01*
X0505079Y0016341D01*
X0504959Y0016190D01*
X0504834Y0016042D01*
X0504706Y0015897D01*
X0504575Y0015756D01*
X0504440Y0015617D01*
X0504301Y0015482D01*
X0504160Y0015351D01*
X0504015Y0015223D01*
X0503867Y0015098D01*
X0503716Y0014978D01*
X0503563Y0014861D01*
X0503406Y0014747D01*
X0503247Y0014638D01*
X0503085Y0014533D01*
X0502920Y0014431D01*
X0502753Y0014334D01*
X0502584Y0014241D01*
X0502412Y0014152D01*
X0502239Y0014067D01*
X0502063Y0013987D01*
X0501885Y0013910D01*
X0501706Y0013839D01*
X0501525Y0013771D01*
X0501342Y0013708D01*
X0501158Y0013650D01*
X0500972Y0013596D01*
X0500785Y0013547D01*
X0500597Y0013502D01*
X0500408Y0013462D01*
X0500218Y0013427D01*
X0500027Y0013396D01*
X0499836Y0013370D01*
X0499644Y0013349D01*
X0499451Y0013332D01*
X0499258Y0013320D01*
X0499065Y0013313D01*
X0498872Y0013311D01*
X0498679Y0013313D01*
X0498486Y0013320D01*
X0498293Y0013332D01*
X0498100Y0013349D01*
X0497908Y0013370D01*
X0497717Y0013396D01*
X0497526Y0013427D01*
X0497336Y0013462D01*
X0497147Y0013502D01*
X0496959Y0013547D01*
X0496772Y0013596D01*
X0496586Y0013650D01*
X0496402Y0013708D01*
X0496219Y0013771D01*
X0496038Y0013839D01*
X0495859Y0013910D01*
X0495681Y0013987D01*
X0495505Y0014067D01*
X0495332Y0014152D01*
X0495160Y0014241D01*
X0494991Y0014334D01*
X0494824Y0014431D01*
X0494659Y0014533D01*
X0494497Y0014638D01*
X0494338Y0014747D01*
X0494181Y0014861D01*
X0494028Y0014978D01*
X0493877Y0015098D01*
X0493729Y0015223D01*
X0493584Y0015351D01*
X0493443Y0015482D01*
X0493304Y0015617D01*
X0493169Y0015756D01*
X0493038Y0015897D01*
X0492910Y0016042D01*
X0492785Y0016190D01*
X0492665Y0016341D01*
X0492548Y0016494D01*
X0492434Y0016651D01*
X0492325Y0016810D01*
X0492220Y0016972D01*
X0492118Y0017137D01*
X0492021Y0017304D01*
X0491928Y0017473D01*
X0491839Y0017645D01*
X0491754Y0017818D01*
X0491674Y0017994D01*
X0491597Y0018172D01*
X0491526Y0018351D01*
X0491458Y0018532D01*
X0491395Y0018715D01*
X0491337Y0018899D01*
X0491283Y0019085D01*
X0491234Y0019272D01*
X0491189Y0019460D01*
X0491149Y0019649D01*
X0491114Y0019839D01*
X0491083Y0020030D01*
X0491057Y0020221D01*
X0491036Y0020413D01*
X0491019Y0020606D01*
X0491007Y0020799D01*
X0491000Y0020992D01*
X0490998Y0021185D01*
X0067770Y0021185D02*
X0067772Y0021378D01*
X0067779Y0021571D01*
X0067791Y0021764D01*
X0067808Y0021957D01*
X0067829Y0022149D01*
X0067855Y0022340D01*
X0067886Y0022531D01*
X0067921Y0022721D01*
X0067961Y0022910D01*
X0068006Y0023098D01*
X0068055Y0023285D01*
X0068109Y0023471D01*
X0068167Y0023655D01*
X0068230Y0023838D01*
X0068298Y0024019D01*
X0068369Y0024198D01*
X0068446Y0024376D01*
X0068526Y0024552D01*
X0068611Y0024725D01*
X0068700Y0024897D01*
X0068793Y0025066D01*
X0068890Y0025233D01*
X0068992Y0025398D01*
X0069097Y0025560D01*
X0069206Y0025719D01*
X0069320Y0025876D01*
X0069437Y0026029D01*
X0069557Y0026180D01*
X0069682Y0026328D01*
X0069810Y0026473D01*
X0069941Y0026614D01*
X0070076Y0026753D01*
X0070215Y0026888D01*
X0070356Y0027019D01*
X0070501Y0027147D01*
X0070649Y0027272D01*
X0070800Y0027392D01*
X0070953Y0027509D01*
X0071110Y0027623D01*
X0071269Y0027732D01*
X0071431Y0027837D01*
X0071596Y0027939D01*
X0071763Y0028036D01*
X0071932Y0028129D01*
X0072104Y0028218D01*
X0072277Y0028303D01*
X0072453Y0028383D01*
X0072631Y0028460D01*
X0072810Y0028531D01*
X0072991Y0028599D01*
X0073174Y0028662D01*
X0073358Y0028720D01*
X0073544Y0028774D01*
X0073731Y0028823D01*
X0073919Y0028868D01*
X0074108Y0028908D01*
X0074298Y0028943D01*
X0074489Y0028974D01*
X0074680Y0029000D01*
X0074872Y0029021D01*
X0075065Y0029038D01*
X0075258Y0029050D01*
X0075451Y0029057D01*
X0075644Y0029059D01*
X0075837Y0029057D01*
X0076030Y0029050D01*
X0076223Y0029038D01*
X0076416Y0029021D01*
X0076608Y0029000D01*
X0076799Y0028974D01*
X0076990Y0028943D01*
X0077180Y0028908D01*
X0077369Y0028868D01*
X0077557Y0028823D01*
X0077744Y0028774D01*
X0077930Y0028720D01*
X0078114Y0028662D01*
X0078297Y0028599D01*
X0078478Y0028531D01*
X0078657Y0028460D01*
X0078835Y0028383D01*
X0079011Y0028303D01*
X0079184Y0028218D01*
X0079356Y0028129D01*
X0079525Y0028036D01*
X0079692Y0027939D01*
X0079857Y0027837D01*
X0080019Y0027732D01*
X0080178Y0027623D01*
X0080335Y0027509D01*
X0080488Y0027392D01*
X0080639Y0027272D01*
X0080787Y0027147D01*
X0080932Y0027019D01*
X0081073Y0026888D01*
X0081212Y0026753D01*
X0081347Y0026614D01*
X0081478Y0026473D01*
X0081606Y0026328D01*
X0081731Y0026180D01*
X0081851Y0026029D01*
X0081968Y0025876D01*
X0082082Y0025719D01*
X0082191Y0025560D01*
X0082296Y0025398D01*
X0082398Y0025233D01*
X0082495Y0025066D01*
X0082588Y0024897D01*
X0082677Y0024725D01*
X0082762Y0024552D01*
X0082842Y0024376D01*
X0082919Y0024198D01*
X0082990Y0024019D01*
X0083058Y0023838D01*
X0083121Y0023655D01*
X0083179Y0023471D01*
X0083233Y0023285D01*
X0083282Y0023098D01*
X0083327Y0022910D01*
X0083367Y0022721D01*
X0083402Y0022531D01*
X0083433Y0022340D01*
X0083459Y0022149D01*
X0083480Y0021957D01*
X0083497Y0021764D01*
X0083509Y0021571D01*
X0083516Y0021378D01*
X0083518Y0021185D01*
X0083516Y0020992D01*
X0083509Y0020799D01*
X0083497Y0020606D01*
X0083480Y0020413D01*
X0083459Y0020221D01*
X0083433Y0020030D01*
X0083402Y0019839D01*
X0083367Y0019649D01*
X0083327Y0019460D01*
X0083282Y0019272D01*
X0083233Y0019085D01*
X0083179Y0018899D01*
X0083121Y0018715D01*
X0083058Y0018532D01*
X0082990Y0018351D01*
X0082919Y0018172D01*
X0082842Y0017994D01*
X0082762Y0017818D01*
X0082677Y0017645D01*
X0082588Y0017473D01*
X0082495Y0017304D01*
X0082398Y0017137D01*
X0082296Y0016972D01*
X0082191Y0016810D01*
X0082082Y0016651D01*
X0081968Y0016494D01*
X0081851Y0016341D01*
X0081731Y0016190D01*
X0081606Y0016042D01*
X0081478Y0015897D01*
X0081347Y0015756D01*
X0081212Y0015617D01*
X0081073Y0015482D01*
X0080932Y0015351D01*
X0080787Y0015223D01*
X0080639Y0015098D01*
X0080488Y0014978D01*
X0080335Y0014861D01*
X0080178Y0014747D01*
X0080019Y0014638D01*
X0079857Y0014533D01*
X0079692Y0014431D01*
X0079525Y0014334D01*
X0079356Y0014241D01*
X0079184Y0014152D01*
X0079011Y0014067D01*
X0078835Y0013987D01*
X0078657Y0013910D01*
X0078478Y0013839D01*
X0078297Y0013771D01*
X0078114Y0013708D01*
X0077930Y0013650D01*
X0077744Y0013596D01*
X0077557Y0013547D01*
X0077369Y0013502D01*
X0077180Y0013462D01*
X0076990Y0013427D01*
X0076799Y0013396D01*
X0076608Y0013370D01*
X0076416Y0013349D01*
X0076223Y0013332D01*
X0076030Y0013320D01*
X0075837Y0013313D01*
X0075644Y0013311D01*
X0075451Y0013313D01*
X0075258Y0013320D01*
X0075065Y0013332D01*
X0074872Y0013349D01*
X0074680Y0013370D01*
X0074489Y0013396D01*
X0074298Y0013427D01*
X0074108Y0013462D01*
X0073919Y0013502D01*
X0073731Y0013547D01*
X0073544Y0013596D01*
X0073358Y0013650D01*
X0073174Y0013708D01*
X0072991Y0013771D01*
X0072810Y0013839D01*
X0072631Y0013910D01*
X0072453Y0013987D01*
X0072277Y0014067D01*
X0072104Y0014152D01*
X0071932Y0014241D01*
X0071763Y0014334D01*
X0071596Y0014431D01*
X0071431Y0014533D01*
X0071269Y0014638D01*
X0071110Y0014747D01*
X0070953Y0014861D01*
X0070800Y0014978D01*
X0070649Y0015098D01*
X0070501Y0015223D01*
X0070356Y0015351D01*
X0070215Y0015482D01*
X0070076Y0015617D01*
X0069941Y0015756D01*
X0069810Y0015897D01*
X0069682Y0016042D01*
X0069557Y0016190D01*
X0069437Y0016341D01*
X0069320Y0016494D01*
X0069206Y0016651D01*
X0069097Y0016810D01*
X0068992Y0016972D01*
X0068890Y0017137D01*
X0068793Y0017304D01*
X0068700Y0017473D01*
X0068611Y0017645D01*
X0068526Y0017818D01*
X0068446Y0017994D01*
X0068369Y0018172D01*
X0068298Y0018351D01*
X0068230Y0018532D01*
X0068167Y0018715D01*
X0068109Y0018899D01*
X0068055Y0019085D01*
X0068006Y0019272D01*
X0067961Y0019460D01*
X0067921Y0019649D01*
X0067886Y0019839D01*
X0067855Y0020030D01*
X0067829Y0020221D01*
X0067808Y0020413D01*
X0067791Y0020606D01*
X0067779Y0020799D01*
X0067772Y0020992D01*
X0067770Y0021185D01*
D15*
X0102258Y0409394D02*
X0102258Y0423173D01*
X0167219Y0423173D01*
X0167219Y0409394D01*
X0102258Y0409394D01*
D16*
X0232354Y0448290D02*
X0232354Y0452815D01*
X0232354Y0448290D02*
X0233862Y0446782D01*
X0235370Y0448290D01*
X0236879Y0446782D01*
X0238387Y0448290D01*
X0238387Y0452815D01*
X0241417Y0451307D02*
X0242925Y0452815D01*
X0245942Y0452815D01*
X0247450Y0451307D01*
X0247450Y0448290D01*
X0245942Y0446782D01*
X0242925Y0446782D01*
X0241417Y0449799D02*
X0247450Y0449799D01*
X0250477Y0452815D02*
X0251986Y0452815D01*
X0255002Y0449799D01*
X0255002Y0452815D02*
X0255002Y0446782D01*
X0258032Y0448290D02*
X0259540Y0446782D01*
X0262557Y0446782D01*
X0264065Y0448290D01*
X0264065Y0454324D01*
X0262557Y0455832D01*
X0259540Y0455832D01*
X0258032Y0454324D01*
X0241417Y0451307D02*
X0241417Y0449799D01*
X0276158Y0449799D02*
X0282191Y0449799D01*
X0282191Y0451307D02*
X0280683Y0452815D01*
X0277666Y0452815D01*
X0276158Y0451307D01*
X0276158Y0449799D01*
X0277666Y0446782D02*
X0280683Y0446782D01*
X0282191Y0448290D01*
X0282191Y0451307D01*
X0285220Y0452815D02*
X0289746Y0452815D01*
X0291254Y0451307D01*
X0291254Y0448290D01*
X0289746Y0446782D01*
X0285220Y0446782D01*
X0294279Y0446782D02*
X0297296Y0446782D01*
X0295787Y0446782D02*
X0295787Y0452815D01*
X0297296Y0452815D01*
X0300325Y0452815D02*
X0303342Y0446782D01*
X0306359Y0452815D01*
X0309386Y0452815D02*
X0310894Y0452815D01*
X0313911Y0449799D01*
X0313911Y0452815D02*
X0313911Y0446782D01*
X0316940Y0449799D02*
X0322974Y0449799D01*
X0322974Y0451307D02*
X0321466Y0452815D01*
X0318449Y0452815D01*
X0316940Y0451307D01*
X0316940Y0449799D01*
X0318449Y0446782D02*
X0321466Y0446782D01*
X0322974Y0448290D01*
X0322974Y0451307D01*
X0326003Y0449799D02*
X0326003Y0448290D01*
X0327512Y0446782D01*
X0330528Y0446782D01*
X0332037Y0448290D01*
X0330528Y0451307D02*
X0332037Y0452815D01*
X0332037Y0454324D01*
X0330528Y0455832D01*
X0327512Y0455832D01*
X0326003Y0454324D01*
X0327512Y0451307D02*
X0326003Y0449799D01*
X0327512Y0451307D02*
X0330528Y0451307D01*
X0344127Y0452815D02*
X0345635Y0452815D01*
X0348652Y0449799D01*
X0348652Y0452815D02*
X0348652Y0446782D01*
X0351681Y0446782D02*
X0356206Y0446782D01*
X0357715Y0448290D01*
X0356206Y0449799D01*
X0351681Y0449799D01*
X0351681Y0451307D02*
X0351681Y0446782D01*
X0351681Y0451307D02*
X0353190Y0452815D01*
X0356206Y0452815D01*
X0360744Y0451307D02*
X0360744Y0449799D01*
X0366778Y0449799D01*
X0366778Y0451307D02*
X0365269Y0452815D01*
X0362253Y0452815D01*
X0360744Y0451307D01*
X0362253Y0446782D02*
X0365269Y0446782D01*
X0366778Y0448290D01*
X0366778Y0451307D01*
X0369807Y0449799D02*
X0369807Y0448290D01*
X0371315Y0446782D01*
X0375841Y0446782D01*
X0375841Y0455832D01*
X0371315Y0455832D01*
X0369807Y0454324D01*
X0369807Y0452815D01*
X0371315Y0451307D01*
X0375841Y0451307D01*
X0371315Y0451307D02*
X0369807Y0449799D01*
X0387933Y0451307D02*
X0387933Y0446782D01*
X0387933Y0451307D02*
X0389441Y0452815D01*
X0393966Y0452815D01*
X0393966Y0446782D01*
X0396996Y0446782D02*
X0401521Y0446782D01*
X0403029Y0448290D01*
X0401521Y0449799D01*
X0396996Y0449799D01*
X0396996Y0451307D02*
X0396996Y0446782D01*
X0396996Y0451307D02*
X0398504Y0452815D01*
X0401521Y0452815D01*
X0407563Y0452815D02*
X0407563Y0446782D01*
X0409071Y0446782D02*
X0406054Y0446782D01*
X0412100Y0448290D02*
X0413609Y0449799D01*
X0416626Y0449799D01*
X0418134Y0451307D01*
X0416626Y0452815D01*
X0412100Y0452815D01*
X0409071Y0452815D02*
X0407563Y0452815D01*
X0407563Y0455832D02*
X0407563Y0457341D01*
X0412100Y0448290D02*
X0413609Y0446782D01*
X0418134Y0446782D01*
X0421163Y0448290D02*
X0422672Y0449799D01*
X0425688Y0449799D01*
X0427197Y0451307D01*
X0425688Y0452815D01*
X0421163Y0452815D01*
X0421163Y0448290D02*
X0422672Y0446782D01*
X0427197Y0446782D01*
X0430226Y0446782D02*
X0430226Y0452815D01*
X0436260Y0452815D02*
X0436260Y0448290D01*
X0434751Y0446782D01*
X0430226Y0446782D01*
X0439289Y0446782D02*
X0442306Y0449799D01*
X0440797Y0449799D02*
X0445322Y0449799D01*
X0445322Y0446782D02*
X0445322Y0455832D01*
X0440797Y0455832D01*
X0439289Y0454324D01*
X0439289Y0451307D01*
X0440797Y0449799D01*
X0295787Y0455832D02*
X0295787Y0457341D01*
D17*
X0133439Y0090299D03*
X0134148Y0086756D03*
X0133439Y0086283D03*
X0133203Y0086047D03*
X0133203Y0085575D03*
X0133911Y0085575D03*
X0134620Y0084866D03*
X0131313Y0083685D03*
X0128715Y0082740D03*
X0127297Y0082504D03*
X0127297Y0082268D03*
X0127297Y0082031D03*
X0127061Y0081559D03*
X0127061Y0081323D03*
X0128242Y0081087D03*
X0128242Y0080850D03*
X0125644Y0082504D03*
X0125644Y0082740D03*
X0125880Y0083921D03*
X0125880Y0084157D03*
X0126352Y0086283D03*
X0126352Y0086520D03*
X0126352Y0086756D03*
X0126589Y0087937D03*
X0127770Y0087228D03*
X0127770Y0086992D03*
X0127770Y0086756D03*
X0127770Y0086520D03*
X0127770Y0086283D03*
X0127770Y0086047D03*
X0127770Y0085811D03*
X0127770Y0085575D03*
X0128951Y0087701D03*
X0128715Y0087937D03*
X0135801Y0081087D03*
X0140998Y0085811D03*
X0142888Y0083685D03*
X0144305Y0085575D03*
X0145959Y0084394D03*
X0145959Y0084157D03*
X0147848Y0072346D03*
X0140526Y0066677D03*
X0140289Y0066441D03*
X0140526Y0066205D03*
X0136982Y0065024D03*
X0136746Y0064787D03*
X0137219Y0062425D03*
X0136982Y0062189D03*
X0136982Y0061953D03*
X0136746Y0061717D03*
X0135801Y0061717D03*
X0135801Y0061480D03*
X0131549Y0061480D03*
X0131549Y0061244D03*
X0130368Y0061244D03*
X0130368Y0061008D03*
X0130368Y0060535D03*
X0130368Y0060299D03*
X0130368Y0060063D03*
X0130132Y0061480D03*
X0130132Y0061717D03*
X0130132Y0061953D03*
X0129896Y0062189D03*
X0129423Y0065024D03*
X0129187Y0065496D03*
X0128951Y0065969D03*
X0128951Y0066205D03*
X0128951Y0066677D03*
X0128951Y0066913D03*
X0131313Y0065024D03*
X0133203Y0065024D03*
X0134148Y0067386D03*
X0133675Y0067858D03*
X0132494Y0068803D03*
X0130604Y0070929D03*
X0129896Y0071402D03*
X0129659Y0071638D03*
X0128951Y0072110D03*
X0129187Y0072346D03*
X0129896Y0077071D03*
X0136274Y0071638D03*
X0147140Y0065969D03*
X0146904Y0063134D03*
X0149974Y0061480D03*
X0147612Y0059591D03*
X0142179Y0061008D03*
X0142415Y0056756D03*
X0143833Y0055102D03*
X0139344Y0056283D03*
X0136274Y0052504D03*
X0132258Y0053685D03*
X0131313Y0051795D03*
X0132258Y0056283D03*
X0134148Y0056756D03*
X0134148Y0056992D03*
X0126352Y0061953D03*
X0123518Y0064315D03*
X0119974Y0065024D03*
X0119738Y0064787D03*
X0120211Y0066205D03*
X0120683Y0068094D03*
X0152573Y0063843D03*
D18*
X0152100Y0064551D03*
X0152337Y0065732D03*
X0152100Y0066205D03*
X0152337Y0068094D03*
X0152100Y0068567D03*
X0152573Y0069512D03*
X0152337Y0069748D03*
X0152100Y0070929D03*
X0151864Y0071165D03*
X0152100Y0072583D03*
X0151864Y0072819D03*
X0151392Y0073055D03*
X0151392Y0073291D03*
X0151392Y0073528D03*
X0151628Y0074236D03*
X0151392Y0074709D03*
X0150919Y0074945D03*
X0150683Y0075181D03*
X0149974Y0075654D03*
X0149738Y0075890D03*
X0149974Y0077071D03*
X0150211Y0077543D03*
X0150211Y0077780D03*
X0150447Y0078016D03*
X0150683Y0078252D03*
X0150919Y0078488D03*
X0150919Y0078724D03*
X0148321Y0079906D03*
X0145722Y0082976D03*
X0145722Y0083213D03*
X0145722Y0083449D03*
X0145959Y0084866D03*
X0145959Y0085102D03*
X0145959Y0085339D03*
X0145722Y0086047D03*
X0145722Y0086283D03*
X0145722Y0086992D03*
X0145722Y0087228D03*
X0145722Y0087465D03*
X0142888Y0086283D03*
X0144069Y0083921D03*
X0144069Y0083685D03*
X0144069Y0083449D03*
X0144069Y0083213D03*
X0140526Y0088646D03*
X0138163Y0088882D03*
X0135565Y0088882D03*
X0134384Y0090063D03*
X0133911Y0086520D03*
X0134384Y0085811D03*
X0134620Y0086047D03*
X0133439Y0085339D03*
X0133439Y0084866D03*
X0133203Y0083685D03*
X0131313Y0084157D03*
X0127533Y0083921D03*
X0127533Y0083685D03*
X0126116Y0085102D03*
X0126825Y0088882D03*
X0127061Y0089591D03*
X0127297Y0089827D03*
X0128715Y0088173D03*
X0121628Y0081087D03*
X0121628Y0080850D03*
X0121392Y0080142D03*
X0121392Y0079906D03*
X0121392Y0078488D03*
X0121392Y0078252D03*
X0121628Y0077780D03*
X0121864Y0077307D03*
X0122337Y0076835D03*
X0122573Y0076598D03*
X0122573Y0076362D03*
X0122337Y0075654D03*
X0122337Y0075181D03*
X0122573Y0074945D03*
X0122337Y0074472D03*
X0122100Y0073764D03*
X0121864Y0073055D03*
X0121864Y0072583D03*
X0120919Y0070220D03*
X0120447Y0069039D03*
X0120447Y0068803D03*
X0120683Y0067858D03*
X0120683Y0067150D03*
X0119974Y0065732D03*
X0119974Y0065260D03*
X0125407Y0062661D03*
X0129659Y0064551D03*
X0129423Y0067858D03*
X0128715Y0071874D03*
X0128951Y0079906D03*
X0125407Y0079906D03*
X0123045Y0080142D03*
X0135565Y0083213D03*
X0137455Y0085811D03*
X0136274Y0079906D03*
X0137691Y0077071D03*
X0148321Y0073291D03*
X0148793Y0072583D03*
X0148793Y0072346D03*
X0138163Y0064787D03*
X0135801Y0065496D03*
X0135565Y0065024D03*
X0135093Y0062189D03*
X0134856Y0061953D03*
X0134620Y0061717D03*
X0131785Y0060535D03*
X0131549Y0060772D03*
X0131549Y0061008D03*
X0131077Y0059354D03*
X0131313Y0059118D03*
X0134148Y0057228D03*
X0134856Y0052504D03*
X0131313Y0052031D03*
X0129896Y0054394D03*
X0126825Y0056283D03*
X0126825Y0056520D03*
X0141234Y0054866D03*
X0149266Y0058409D03*
D19*
X0151510Y0060299D03*
X0150093Y0061244D03*
X0152219Y0064315D03*
X0152219Y0065969D03*
X0151982Y0068331D03*
X0147730Y0077307D03*
X0146077Y0081559D03*
X0145841Y0083685D03*
X0145841Y0083921D03*
X0146077Y0084630D03*
X0145841Y0085575D03*
X0145841Y0085811D03*
X0145841Y0086520D03*
X0145841Y0086756D03*
X0140880Y0086520D03*
X0138990Y0088409D03*
X0134502Y0086283D03*
X0130250Y0090299D03*
X0126943Y0089354D03*
X0126943Y0089118D03*
X0126707Y0088646D03*
X0126707Y0088409D03*
X0126707Y0088173D03*
X0126470Y0087701D03*
X0126470Y0087465D03*
X0126470Y0087228D03*
X0126470Y0086992D03*
X0126234Y0086047D03*
X0126234Y0085811D03*
X0126234Y0085575D03*
X0126234Y0085339D03*
X0125998Y0084866D03*
X0125998Y0084630D03*
X0125998Y0084394D03*
X0125762Y0083685D03*
X0125762Y0083449D03*
X0125762Y0083213D03*
X0125762Y0082976D03*
X0125526Y0082031D03*
X0127179Y0081795D03*
X0127415Y0082740D03*
X0127415Y0082976D03*
X0127415Y0083213D03*
X0127415Y0083449D03*
X0127652Y0084157D03*
X0127652Y0084394D03*
X0127652Y0084630D03*
X0127888Y0084866D03*
X0127888Y0085102D03*
X0127888Y0085339D03*
X0128360Y0081323D03*
X0125762Y0079669D03*
X0125762Y0078016D03*
X0125526Y0077780D03*
X0124817Y0077307D03*
X0123400Y0078016D03*
X0121982Y0077071D03*
X0121746Y0077543D03*
X0121510Y0078016D03*
X0121274Y0078724D03*
X0121274Y0078961D03*
X0121274Y0079197D03*
X0121274Y0079433D03*
X0121274Y0079669D03*
X0121510Y0080614D03*
X0122455Y0076126D03*
X0122455Y0075890D03*
X0122219Y0075417D03*
X0122455Y0074709D03*
X0122219Y0074236D03*
X0122219Y0074000D03*
X0121982Y0073528D03*
X0121982Y0073291D03*
X0121746Y0072819D03*
X0121982Y0072110D03*
X0121982Y0071874D03*
X0121746Y0071638D03*
X0121510Y0071402D03*
X0121274Y0071165D03*
X0121274Y0070929D03*
X0121037Y0070693D03*
X0121037Y0070457D03*
X0120801Y0069984D03*
X0120801Y0069748D03*
X0120565Y0069512D03*
X0120565Y0069276D03*
X0120801Y0066913D03*
X0120565Y0066677D03*
X0120329Y0066441D03*
X0120093Y0065969D03*
X0119856Y0064551D03*
X0125762Y0062425D03*
X0125998Y0062189D03*
X0129541Y0064787D03*
X0129305Y0065260D03*
X0129069Y0065732D03*
X0129069Y0066441D03*
X0129069Y0067150D03*
X0129069Y0067386D03*
X0129069Y0067622D03*
X0132848Y0068331D03*
X0133793Y0067622D03*
X0135683Y0065260D03*
X0138045Y0064551D03*
X0140644Y0065969D03*
X0141825Y0069748D03*
X0138754Y0072346D03*
X0138045Y0079906D03*
X0138045Y0080142D03*
X0138045Y0081323D03*
X0126707Y0078016D03*
X0130486Y0059827D03*
X0130722Y0059591D03*
X0131904Y0057701D03*
X0132140Y0056992D03*
X0132140Y0056756D03*
X0132140Y0056520D03*
X0133793Y0054157D03*
X0135683Y0053921D03*
X0134974Y0052268D03*
X0132612Y0052268D03*
X0135919Y0057228D03*
X0142533Y0061244D03*
X0143715Y0055339D03*
D20*
X0142533Y0056520D03*
X0138754Y0054866D03*
X0136392Y0052740D03*
X0133793Y0053921D03*
X0131431Y0052268D03*
X0130722Y0053213D03*
X0130250Y0053921D03*
X0129778Y0054630D03*
X0129541Y0054866D03*
X0128596Y0056283D03*
X0127415Y0055102D03*
X0126707Y0056756D03*
X0122219Y0059827D03*
X0120801Y0061717D03*
X0120565Y0061953D03*
X0120329Y0062661D03*
X0120093Y0063134D03*
X0119856Y0063606D03*
X0119620Y0064079D03*
X0119620Y0064315D03*
X0120093Y0065496D03*
X0120565Y0067386D03*
X0120565Y0067622D03*
X0121982Y0072346D03*
X0123400Y0078252D03*
X0121510Y0080378D03*
X0121746Y0081323D03*
X0121982Y0081559D03*
X0128833Y0082504D03*
X0129069Y0082031D03*
X0133321Y0087701D03*
X0135447Y0089827D03*
X0136864Y0089354D03*
X0137573Y0085575D03*
X0138990Y0085575D03*
X0139226Y0085811D03*
X0137809Y0082504D03*
X0137809Y0082268D03*
X0135683Y0083449D03*
X0136392Y0080142D03*
X0147730Y0077780D03*
X0147730Y0077543D03*
X0147967Y0078016D03*
X0147967Y0078252D03*
X0147967Y0078488D03*
X0147967Y0078724D03*
X0150093Y0077307D03*
X0149856Y0076835D03*
X0149620Y0076598D03*
X0149384Y0076362D03*
X0149384Y0076126D03*
X0150329Y0075417D03*
X0151510Y0074472D03*
X0151510Y0074000D03*
X0151510Y0073764D03*
X0152219Y0072346D03*
X0152219Y0072110D03*
X0151982Y0071874D03*
X0151746Y0071638D03*
X0151746Y0071402D03*
X0152219Y0070693D03*
X0152219Y0070457D03*
X0152219Y0070220D03*
X0152219Y0069984D03*
X0152455Y0067622D03*
X0152219Y0067386D03*
X0152219Y0067150D03*
X0152219Y0066913D03*
X0152219Y0065496D03*
X0152455Y0063606D03*
X0152455Y0062898D03*
X0152455Y0062661D03*
X0151510Y0060535D03*
X0149856Y0060063D03*
X0142770Y0061480D03*
X0142297Y0060772D03*
X0140407Y0064315D03*
X0138281Y0065024D03*
X0135919Y0065969D03*
X0135919Y0066205D03*
X0135919Y0066441D03*
X0135683Y0064787D03*
X0134502Y0061480D03*
X0135919Y0061008D03*
X0135919Y0060772D03*
X0135683Y0060535D03*
X0135447Y0060299D03*
X0136156Y0061244D03*
X0132848Y0061244D03*
X0132848Y0061480D03*
X0132848Y0062189D03*
X0131904Y0060299D03*
X0132140Y0057228D03*
X0134030Y0057465D03*
X0135919Y0057465D03*
X0130250Y0064315D03*
X0129541Y0068094D03*
X0129778Y0068331D03*
X0126707Y0068331D03*
X0126470Y0068094D03*
X0124817Y0064315D03*
X0124817Y0064079D03*
X0125053Y0063134D03*
X0125289Y0062898D03*
X0148911Y0071402D03*
X0148675Y0072819D03*
X0150801Y0078961D03*
X0150565Y0079197D03*
X0150565Y0079433D03*
X0150565Y0079669D03*
X0150329Y0079906D03*
X0150329Y0080142D03*
X0150093Y0080378D03*
X0149856Y0080850D03*
X0149620Y0081087D03*
X0149384Y0081559D03*
X0145604Y0087701D03*
X0145368Y0087937D03*
X0127415Y0090063D03*
D21*
X0124344Y0081323D03*
X0123636Y0079197D03*
X0128833Y0079197D03*
X0128833Y0079433D03*
X0131431Y0080378D03*
X0137337Y0081559D03*
X0140880Y0083213D03*
X0140880Y0083449D03*
X0141352Y0084394D03*
X0136864Y0086520D03*
X0144423Y0088646D03*
X0124108Y0069039D03*
X0124108Y0068803D03*
X0124108Y0065969D03*
X0124108Y0065732D03*
X0134502Y0063134D03*
X0137809Y0065496D03*
X0143715Y0062661D03*
X0144659Y0060772D03*
X0148911Y0064315D03*
X0131904Y0052504D03*
D22*
X0133793Y0053685D03*
X0134738Y0052740D03*
X0133321Y0059118D03*
X0133557Y0060772D03*
X0132848Y0061953D03*
X0130959Y0063843D03*
X0130722Y0064079D03*
X0130250Y0068567D03*
X0126943Y0068803D03*
X0124344Y0064551D03*
X0121037Y0061480D03*
X0121746Y0060535D03*
X0122691Y0059118D03*
X0126470Y0056992D03*
X0137573Y0060299D03*
X0137809Y0060772D03*
X0140171Y0063370D03*
X0140171Y0063606D03*
X0143006Y0061717D03*
X0146785Y0062189D03*
X0151746Y0061480D03*
X0151746Y0061244D03*
X0151982Y0061717D03*
X0152219Y0061953D03*
X0152219Y0062189D03*
X0152691Y0063134D03*
X0152691Y0063370D03*
X0152219Y0065024D03*
X0149620Y0066677D03*
X0149148Y0070929D03*
X0148675Y0072110D03*
X0148911Y0073055D03*
X0148203Y0073528D03*
X0148439Y0082268D03*
X0143951Y0084394D03*
X0143006Y0086520D03*
X0145132Y0088173D03*
X0137809Y0082740D03*
X0134030Y0080142D03*
X0133085Y0083449D03*
X0133793Y0085102D03*
X0133085Y0087937D03*
X0129069Y0088646D03*
X0128833Y0088409D03*
X0128124Y0090772D03*
X0131195Y0082504D03*
X0128833Y0079669D03*
X0127415Y0076598D03*
X0123163Y0079906D03*
X0138754Y0072110D03*
D23*
X0143242Y0078724D03*
X0146785Y0082740D03*
X0143006Y0089118D03*
X0136628Y0088409D03*
X0136628Y0086756D03*
X0130250Y0086992D03*
X0130486Y0084630D03*
X0130014Y0083449D03*
X0124581Y0081087D03*
X0124108Y0068094D03*
X0124108Y0066205D03*
X0125289Y0057701D03*
X0128360Y0055339D03*
X0131904Y0052976D03*
X0131904Y0052740D03*
X0143715Y0062898D03*
X0149148Y0063134D03*
X0149148Y0063370D03*
X0149148Y0063843D03*
X0149148Y0064079D03*
X0148675Y0059354D03*
D24*
X0148085Y0062661D03*
X0148321Y0062898D03*
X0144069Y0063606D03*
X0145722Y0067622D03*
X0145722Y0067858D03*
X0141470Y0068803D03*
X0137219Y0065732D03*
X0133675Y0071638D03*
X0133675Y0071874D03*
X0139817Y0076126D03*
X0132967Y0079906D03*
X0136982Y0083685D03*
X0136982Y0083921D03*
X0137455Y0084866D03*
X0132258Y0088409D03*
X0131313Y0089827D03*
X0140053Y0090063D03*
X0140762Y0089827D03*
X0147140Y0082504D03*
X0146195Y0081087D03*
X0125880Y0073055D03*
X0125880Y0072819D03*
X0124463Y0070220D03*
X0124463Y0066677D03*
X0135565Y0052976D03*
X0140289Y0055102D03*
X0143124Y0056047D03*
D25*
X0141825Y0055811D03*
X0134738Y0053213D03*
X0134266Y0058646D03*
X0144423Y0066205D03*
X0144423Y0066441D03*
X0144423Y0066677D03*
X0147022Y0068803D03*
X0142770Y0072583D03*
X0139463Y0075181D03*
X0143006Y0078252D03*
X0143951Y0077307D03*
X0133557Y0076598D03*
X0133793Y0073055D03*
X0125998Y0071165D03*
D26*
X0127652Y0075417D03*
X0132140Y0081323D03*
X0131431Y0089118D03*
X0143006Y0072346D03*
X0147022Y0069512D03*
X0147022Y0069039D03*
X0147258Y0068567D03*
X0144659Y0067150D03*
X0143242Y0065260D03*
X0143242Y0064787D03*
X0143242Y0064551D03*
X0134974Y0053449D03*
D27*
X0138400Y0054630D03*
X0139817Y0056047D03*
X0136982Y0059354D03*
X0136982Y0059591D03*
X0137219Y0059827D03*
X0137455Y0060063D03*
X0137691Y0060535D03*
X0134384Y0061244D03*
X0132730Y0061717D03*
X0131549Y0063370D03*
X0132967Y0068094D03*
X0132494Y0070929D03*
X0132494Y0071165D03*
X0129187Y0070220D03*
X0128951Y0069984D03*
X0126825Y0068567D03*
X0124699Y0063843D03*
X0124935Y0063370D03*
X0121864Y0060299D03*
X0122100Y0060063D03*
X0122337Y0059591D03*
X0122573Y0059354D03*
X0120447Y0062189D03*
X0120447Y0062425D03*
X0120211Y0062898D03*
X0119974Y0063370D03*
X0119738Y0063843D03*
X0120683Y0068331D03*
X0120683Y0068567D03*
X0125644Y0077543D03*
X0123518Y0078488D03*
X0122337Y0081795D03*
X0128951Y0082268D03*
X0129423Y0081795D03*
X0132258Y0081795D03*
X0135801Y0082268D03*
X0135801Y0082504D03*
X0135801Y0082740D03*
X0137455Y0086047D03*
X0139108Y0086047D03*
X0139581Y0086520D03*
X0140526Y0088409D03*
X0137927Y0089118D03*
X0136274Y0089591D03*
X0131549Y0090299D03*
X0127770Y0090535D03*
X0127533Y0090299D03*
X0140053Y0079197D03*
X0143833Y0082976D03*
X0144069Y0084157D03*
X0148793Y0082031D03*
X0149030Y0081795D03*
X0149502Y0081323D03*
X0149974Y0080614D03*
X0148321Y0079669D03*
X0148085Y0078961D03*
X0148793Y0071638D03*
X0149030Y0071165D03*
X0152100Y0068803D03*
X0152573Y0069276D03*
X0152337Y0067858D03*
X0152100Y0066677D03*
X0152100Y0066441D03*
X0152337Y0065260D03*
X0152100Y0064787D03*
X0152337Y0062425D03*
X0149974Y0060535D03*
X0149974Y0060299D03*
X0149738Y0059827D03*
X0149502Y0059591D03*
X0146667Y0061953D03*
X0146431Y0061717D03*
X0142652Y0060063D03*
X0140289Y0063843D03*
X0140289Y0064079D03*
X0132258Y0057465D03*
X0129423Y0055102D03*
X0130132Y0054157D03*
X0130368Y0053685D03*
X0130604Y0053449D03*
D28*
X0136864Y0053685D03*
X0143478Y0056283D03*
X0147967Y0058646D03*
X0148203Y0058882D03*
X0143951Y0063370D03*
X0145841Y0068094D03*
X0145841Y0068331D03*
X0134738Y0063370D03*
X0124344Y0066441D03*
X0127415Y0076362D03*
X0129778Y0078724D03*
X0124817Y0080614D03*
X0124581Y0080850D03*
X0124108Y0082268D03*
X0130722Y0085339D03*
X0130722Y0085575D03*
X0130722Y0085811D03*
X0130722Y0086047D03*
X0136864Y0082976D03*
X0137573Y0085102D03*
X0141116Y0082976D03*
X0141116Y0081323D03*
X0140880Y0081087D03*
X0136864Y0079197D03*
X0136628Y0079433D03*
X0137809Y0090535D03*
D29*
X0140998Y0084157D03*
X0140998Y0083921D03*
X0140998Y0083685D03*
X0144541Y0079906D03*
X0146195Y0081323D03*
X0133203Y0078724D03*
X0125880Y0080142D03*
X0125644Y0080378D03*
X0123518Y0079433D03*
X0124226Y0065496D03*
X0123281Y0058882D03*
X0125644Y0057465D03*
X0133675Y0061008D03*
X0135801Y0064551D03*
X0143596Y0062425D03*
X0143596Y0062189D03*
X0146904Y0058409D03*
X0145722Y0057465D03*
X0145486Y0057228D03*
X0137691Y0053921D03*
X0149266Y0068094D03*
X0149266Y0068331D03*
D30*
X0149502Y0067386D03*
X0149502Y0067150D03*
X0149502Y0066913D03*
X0149502Y0066441D03*
X0149502Y0066205D03*
X0149502Y0065969D03*
X0149502Y0065732D03*
X0152337Y0069039D03*
X0149266Y0070693D03*
X0148793Y0071874D03*
X0148085Y0073764D03*
X0147848Y0074000D03*
X0147848Y0079197D03*
X0147848Y0079433D03*
X0144069Y0079197D03*
X0143833Y0078961D03*
X0140289Y0079433D03*
X0140053Y0076362D03*
X0137219Y0078961D03*
X0135093Y0078252D03*
X0131549Y0080142D03*
X0129659Y0083685D03*
X0129659Y0083921D03*
X0129659Y0084157D03*
X0130604Y0087937D03*
X0136037Y0088646D03*
X0137691Y0083213D03*
X0141470Y0085575D03*
X0144778Y0088409D03*
X0123990Y0082504D03*
X0123518Y0078724D03*
X0128242Y0069748D03*
X0127770Y0069512D03*
X0127533Y0069276D03*
X0127297Y0069039D03*
X0124226Y0065024D03*
X0124226Y0064787D03*
X0124699Y0063606D03*
X0121628Y0060772D03*
X0121392Y0061008D03*
X0121156Y0061244D03*
X0131077Y0063606D03*
X0136510Y0059118D03*
X0138163Y0061008D03*
X0138400Y0061244D03*
X0138636Y0061480D03*
X0138872Y0061717D03*
X0139108Y0061953D03*
X0139344Y0062189D03*
X0139344Y0062425D03*
X0139581Y0062661D03*
X0139817Y0062898D03*
X0140053Y0063134D03*
X0143360Y0061953D03*
X0145722Y0061244D03*
X0146195Y0061480D03*
X0144541Y0056520D03*
X0138163Y0054394D03*
X0137927Y0054157D03*
D31*
X0135683Y0054157D03*
X0133793Y0054394D03*
X0132140Y0059118D03*
X0133321Y0060535D03*
X0134030Y0060535D03*
X0135919Y0059354D03*
X0136628Y0061480D03*
X0136156Y0062189D03*
X0137337Y0062661D03*
X0133557Y0062898D03*
X0133793Y0064315D03*
X0133085Y0065260D03*
X0132848Y0065496D03*
X0132848Y0065732D03*
X0132612Y0065969D03*
X0132612Y0066205D03*
X0133085Y0067858D03*
X0133557Y0068567D03*
X0130959Y0071402D03*
X0130959Y0071638D03*
X0130722Y0071874D03*
X0130722Y0071165D03*
X0130014Y0073528D03*
X0128596Y0076598D03*
X0126234Y0076598D03*
X0125998Y0078252D03*
X0125526Y0079433D03*
X0124581Y0081559D03*
X0127415Y0081087D03*
X0131431Y0083921D03*
X0133557Y0083921D03*
X0134266Y0085339D03*
X0133085Y0085811D03*
X0133557Y0087465D03*
X0135211Y0089118D03*
X0134502Y0082268D03*
X0135683Y0081559D03*
X0134502Y0078488D03*
X0133321Y0078488D03*
X0132612Y0078488D03*
X0132612Y0079433D03*
X0137573Y0076835D03*
X0138518Y0076362D03*
X0139935Y0076598D03*
X0140407Y0077543D03*
X0139699Y0078961D03*
X0142297Y0078961D03*
X0139226Y0073528D03*
X0138281Y0073528D03*
X0136864Y0071874D03*
X0137100Y0071638D03*
X0137573Y0071402D03*
X0136392Y0071874D03*
X0139699Y0068567D03*
X0141116Y0069748D03*
X0147730Y0064787D03*
X0147730Y0064551D03*
X0149856Y0061717D03*
X0152455Y0064079D03*
X0150565Y0069039D03*
X0143715Y0060063D03*
X0142061Y0059827D03*
X0140880Y0056047D03*
X0130250Y0060772D03*
X0127179Y0061480D03*
X0126707Y0061717D03*
X0123636Y0063370D03*
X0123163Y0064079D03*
X0130486Y0065969D03*
X0130486Y0066205D03*
X0130722Y0065732D03*
X0130722Y0065496D03*
X0130959Y0065260D03*
X0131195Y0064315D03*
X0123872Y0076126D03*
X0124108Y0076362D03*
X0124108Y0076598D03*
X0124344Y0076835D03*
X0124581Y0077071D03*
X0123400Y0077543D03*
X0123400Y0077780D03*
X0127652Y0087465D03*
X0129069Y0089827D03*
X0143242Y0085575D03*
X0144423Y0085811D03*
D32*
X0141352Y0089591D03*
X0137100Y0084630D03*
X0137100Y0084394D03*
X0137100Y0084157D03*
X0136628Y0082031D03*
X0141352Y0081559D03*
X0143006Y0078488D03*
X0130959Y0077543D03*
X0125998Y0073291D03*
X0125762Y0072583D03*
X0124817Y0070457D03*
X0124581Y0066913D03*
X0135211Y0063606D03*
X0136156Y0064315D03*
X0137337Y0067150D03*
X0143951Y0063843D03*
X0134738Y0057937D03*
X0134738Y0057701D03*
X0140407Y0055339D03*
X0132376Y0088646D03*
D33*
X0131313Y0081559D03*
X0127533Y0075654D03*
X0126352Y0071638D03*
X0139581Y0075417D03*
X0143833Y0077543D03*
X0141470Y0055575D03*
D34*
X0143596Y0060299D03*
X0147612Y0062425D03*
X0149030Y0063606D03*
X0150919Y0061008D03*
X0150919Y0060772D03*
X0142179Y0067858D03*
X0141943Y0068094D03*
X0141943Y0068331D03*
X0135801Y0070929D03*
X0140526Y0080142D03*
X0140526Y0080378D03*
X0138163Y0085339D03*
X0143833Y0088882D03*
X0130841Y0090063D03*
X0128951Y0091008D03*
X0130132Y0087465D03*
X0130132Y0087228D03*
X0130368Y0084394D03*
X0129187Y0078961D03*
X0124226Y0069276D03*
X0123990Y0068567D03*
X0123990Y0068331D03*
X0123518Y0058646D03*
X0128006Y0056047D03*
X0128006Y0055811D03*
X0128242Y0055575D03*
D35*
X0125998Y0057228D03*
X0124108Y0065260D03*
X0129069Y0070457D03*
X0130722Y0068803D03*
X0135683Y0071165D03*
X0138281Y0066441D03*
X0138281Y0066205D03*
X0138281Y0065969D03*
X0137809Y0065260D03*
X0142297Y0067622D03*
X0149384Y0067622D03*
X0149384Y0067858D03*
X0149620Y0065496D03*
X0149384Y0065260D03*
X0149384Y0065024D03*
X0149148Y0064787D03*
X0149148Y0064551D03*
X0145368Y0061008D03*
X0146549Y0058173D03*
X0146313Y0057937D03*
X0146077Y0057701D03*
X0145132Y0056992D03*
X0144896Y0056756D03*
X0149384Y0070457D03*
X0144187Y0079433D03*
X0144423Y0079669D03*
X0140407Y0079669D03*
X0140407Y0079906D03*
X0137809Y0083449D03*
X0133557Y0082504D03*
X0130486Y0087701D03*
X0122927Y0082031D03*
X0123400Y0079669D03*
X0123636Y0078961D03*
D36*
X0124226Y0069984D03*
X0123990Y0069748D03*
X0123990Y0069512D03*
X0123990Y0058409D03*
X0124226Y0058173D03*
X0124699Y0057937D03*
X0133675Y0059827D03*
X0143833Y0060535D03*
X0143833Y0063134D03*
X0141707Y0068567D03*
X0148557Y0059118D03*
X0140526Y0080614D03*
X0140762Y0080850D03*
X0136982Y0081795D03*
X0130604Y0084866D03*
X0130604Y0085102D03*
X0130604Y0086283D03*
X0130604Y0086520D03*
X0130368Y0086756D03*
X0130604Y0091953D03*
X0137455Y0090772D03*
X0142652Y0089354D03*
D37*
X0139108Y0090299D03*
X0137927Y0086283D03*
X0142415Y0085339D03*
X0142415Y0085102D03*
X0141470Y0081795D03*
X0146195Y0080850D03*
X0133439Y0075417D03*
X0133439Y0075181D03*
X0133439Y0074945D03*
X0133675Y0072110D03*
X0136510Y0068331D03*
X0136746Y0068094D03*
X0137219Y0067622D03*
X0137455Y0066913D03*
X0137455Y0066677D03*
X0133675Y0060063D03*
X0134856Y0058409D03*
X0134856Y0058173D03*
X0124699Y0067150D03*
X0124699Y0067386D03*
X0124699Y0067858D03*
X0125880Y0073528D03*
X0132258Y0082740D03*
X0131785Y0088173D03*
D38*
X0131313Y0088882D03*
X0131549Y0089354D03*
X0132258Y0081087D03*
X0129423Y0078252D03*
X0133675Y0076835D03*
X0136510Y0077543D03*
X0142888Y0073291D03*
X0144778Y0077071D03*
X0146904Y0069748D03*
X0134148Y0058882D03*
X0126116Y0070929D03*
X0141707Y0086756D03*
D39*
X0142533Y0084866D03*
X0144896Y0076362D03*
X0145132Y0076126D03*
X0137100Y0067858D03*
X0137337Y0067386D03*
X0135447Y0063843D03*
X0143951Y0064079D03*
X0133557Y0075654D03*
X0127415Y0076126D03*
X0125998Y0073764D03*
X0125526Y0072346D03*
X0125762Y0072110D03*
X0125762Y0071874D03*
X0124817Y0067622D03*
X0131667Y0083213D03*
D40*
X0131785Y0082976D03*
X0129896Y0078488D03*
X0130604Y0077780D03*
X0139817Y0075890D03*
X0141707Y0082031D03*
X0142415Y0084630D03*
X0146195Y0080614D03*
X0145486Y0075890D03*
X0136274Y0068567D03*
X0135565Y0064079D03*
X0143833Y0064315D03*
D41*
X0143360Y0065024D03*
X0143360Y0065496D03*
X0143360Y0065732D03*
X0144541Y0066913D03*
X0144541Y0067386D03*
X0147140Y0069276D03*
X0133675Y0077071D03*
D42*
X0133557Y0076362D03*
X0133793Y0072819D03*
X0136156Y0068803D03*
X0143951Y0065969D03*
X0145604Y0075181D03*
X0144896Y0076835D03*
X0139699Y0075654D03*
X0141825Y0082268D03*
X0141825Y0082504D03*
X0125998Y0071402D03*
D43*
X0136510Y0069039D03*
D44*
X0136392Y0069276D03*
D45*
X0136510Y0069512D03*
X0142415Y0074945D03*
X0140053Y0078016D03*
D46*
X0136037Y0070220D03*
X0135801Y0069984D03*
X0135565Y0069748D03*
D47*
X0134030Y0073528D03*
X0142533Y0071402D03*
X0147022Y0069984D03*
D48*
X0146904Y0070220D03*
X0138872Y0087937D03*
X0132258Y0091717D03*
X0126589Y0070693D03*
D49*
X0133793Y0072346D03*
X0133793Y0072583D03*
X0134266Y0071402D03*
X0133557Y0075890D03*
X0130250Y0078016D03*
X0144896Y0076598D03*
X0145604Y0075654D03*
X0145604Y0075417D03*
X0145604Y0070457D03*
X0146077Y0080378D03*
D50*
X0136392Y0070457D03*
D51*
X0139699Y0070693D03*
D52*
X0142888Y0070929D03*
D53*
X0143006Y0071165D03*
X0142533Y0071874D03*
X0139226Y0087701D03*
X0132140Y0091480D03*
D54*
X0142179Y0071638D03*
D55*
X0143242Y0072110D03*
X0134030Y0073291D03*
X0127652Y0074945D03*
X0127652Y0075181D03*
X0138518Y0088173D03*
X0135211Y0091008D03*
D56*
X0131313Y0089591D03*
X0135565Y0080378D03*
X0133439Y0076126D03*
X0127533Y0075890D03*
X0142179Y0073528D03*
X0142415Y0073055D03*
X0142415Y0072819D03*
X0146195Y0080142D03*
X0141943Y0082740D03*
D57*
X0137100Y0073764D03*
D58*
X0134384Y0074000D03*
D59*
X0136392Y0074236D03*
X0136392Y0074472D03*
D60*
X0140053Y0077780D03*
X0142179Y0074709D03*
D61*
X0129659Y0074709D03*
D62*
X0134030Y0077307D03*
D63*
X0134856Y0079669D03*
D64*
X0134148Y0080614D03*
D65*
X0133557Y0080850D03*
D66*
X0139817Y0086992D03*
X0139817Y0087228D03*
D67*
X0139463Y0087465D03*
D68*
X0132612Y0091244D03*
M02*
