G75*
%MOIN*%
%OFA0B0*%
%FSLAX25Y25*%
%IPPOS*%
%LPD*%
%AMOC8*
5,1,8,0,0,1.08239X$1,22.5*
%
%ADD10C,0.16548*%
%ADD11C,0.07874*%
%ADD12OC8,0.06737*%
%ADD13C,0.06800*%
D10*
X0075644Y0021185D03*
X0498872Y0021185D03*
X0498872Y0450319D03*
X0075644Y0450319D03*
D11*
X0065607Y0021185D02*
X0065610Y0021431D01*
X0065619Y0021677D01*
X0065634Y0021923D01*
X0065655Y0022169D01*
X0065682Y0022414D01*
X0065716Y0022658D01*
X0065755Y0022901D01*
X0065800Y0023143D01*
X0065851Y0023384D01*
X0065908Y0023624D01*
X0065971Y0023862D01*
X0066039Y0024099D01*
X0066114Y0024333D01*
X0066194Y0024566D01*
X0066280Y0024797D01*
X0066371Y0025026D01*
X0066468Y0025252D01*
X0066571Y0025476D01*
X0066679Y0025698D01*
X0066792Y0025916D01*
X0066911Y0026132D01*
X0067035Y0026345D01*
X0067164Y0026555D01*
X0067299Y0026761D01*
X0067438Y0026964D01*
X0067582Y0027164D01*
X0067731Y0027360D01*
X0067885Y0027552D01*
X0068044Y0027741D01*
X0068207Y0027925D01*
X0068375Y0028106D01*
X0068547Y0028282D01*
X0068723Y0028454D01*
X0068904Y0028622D01*
X0069088Y0028785D01*
X0069277Y0028944D01*
X0069469Y0029098D01*
X0069665Y0029247D01*
X0069865Y0029391D01*
X0070068Y0029530D01*
X0070274Y0029665D01*
X0070484Y0029794D01*
X0070697Y0029918D01*
X0070913Y0030037D01*
X0071131Y0030150D01*
X0071353Y0030258D01*
X0071577Y0030361D01*
X0071803Y0030458D01*
X0072032Y0030549D01*
X0072263Y0030635D01*
X0072496Y0030715D01*
X0072730Y0030790D01*
X0072967Y0030858D01*
X0073205Y0030921D01*
X0073445Y0030978D01*
X0073686Y0031029D01*
X0073928Y0031074D01*
X0074171Y0031113D01*
X0074415Y0031147D01*
X0074660Y0031174D01*
X0074906Y0031195D01*
X0075152Y0031210D01*
X0075398Y0031219D01*
X0075644Y0031222D01*
X0075890Y0031219D01*
X0076136Y0031210D01*
X0076382Y0031195D01*
X0076628Y0031174D01*
X0076873Y0031147D01*
X0077117Y0031113D01*
X0077360Y0031074D01*
X0077602Y0031029D01*
X0077843Y0030978D01*
X0078083Y0030921D01*
X0078321Y0030858D01*
X0078558Y0030790D01*
X0078792Y0030715D01*
X0079025Y0030635D01*
X0079256Y0030549D01*
X0079485Y0030458D01*
X0079711Y0030361D01*
X0079935Y0030258D01*
X0080157Y0030150D01*
X0080375Y0030037D01*
X0080591Y0029918D01*
X0080804Y0029794D01*
X0081014Y0029665D01*
X0081220Y0029530D01*
X0081423Y0029391D01*
X0081623Y0029247D01*
X0081819Y0029098D01*
X0082011Y0028944D01*
X0082200Y0028785D01*
X0082384Y0028622D01*
X0082565Y0028454D01*
X0082741Y0028282D01*
X0082913Y0028106D01*
X0083081Y0027925D01*
X0083244Y0027741D01*
X0083403Y0027552D01*
X0083557Y0027360D01*
X0083706Y0027164D01*
X0083850Y0026964D01*
X0083989Y0026761D01*
X0084124Y0026555D01*
X0084253Y0026345D01*
X0084377Y0026132D01*
X0084496Y0025916D01*
X0084609Y0025698D01*
X0084717Y0025476D01*
X0084820Y0025252D01*
X0084917Y0025026D01*
X0085008Y0024797D01*
X0085094Y0024566D01*
X0085174Y0024333D01*
X0085249Y0024099D01*
X0085317Y0023862D01*
X0085380Y0023624D01*
X0085437Y0023384D01*
X0085488Y0023143D01*
X0085533Y0022901D01*
X0085572Y0022658D01*
X0085606Y0022414D01*
X0085633Y0022169D01*
X0085654Y0021923D01*
X0085669Y0021677D01*
X0085678Y0021431D01*
X0085681Y0021185D01*
X0085678Y0020939D01*
X0085669Y0020693D01*
X0085654Y0020447D01*
X0085633Y0020201D01*
X0085606Y0019956D01*
X0085572Y0019712D01*
X0085533Y0019469D01*
X0085488Y0019227D01*
X0085437Y0018986D01*
X0085380Y0018746D01*
X0085317Y0018508D01*
X0085249Y0018271D01*
X0085174Y0018037D01*
X0085094Y0017804D01*
X0085008Y0017573D01*
X0084917Y0017344D01*
X0084820Y0017118D01*
X0084717Y0016894D01*
X0084609Y0016672D01*
X0084496Y0016454D01*
X0084377Y0016238D01*
X0084253Y0016025D01*
X0084124Y0015815D01*
X0083989Y0015609D01*
X0083850Y0015406D01*
X0083706Y0015206D01*
X0083557Y0015010D01*
X0083403Y0014818D01*
X0083244Y0014629D01*
X0083081Y0014445D01*
X0082913Y0014264D01*
X0082741Y0014088D01*
X0082565Y0013916D01*
X0082384Y0013748D01*
X0082200Y0013585D01*
X0082011Y0013426D01*
X0081819Y0013272D01*
X0081623Y0013123D01*
X0081423Y0012979D01*
X0081220Y0012840D01*
X0081014Y0012705D01*
X0080804Y0012576D01*
X0080591Y0012452D01*
X0080375Y0012333D01*
X0080157Y0012220D01*
X0079935Y0012112D01*
X0079711Y0012009D01*
X0079485Y0011912D01*
X0079256Y0011821D01*
X0079025Y0011735D01*
X0078792Y0011655D01*
X0078558Y0011580D01*
X0078321Y0011512D01*
X0078083Y0011449D01*
X0077843Y0011392D01*
X0077602Y0011341D01*
X0077360Y0011296D01*
X0077117Y0011257D01*
X0076873Y0011223D01*
X0076628Y0011196D01*
X0076382Y0011175D01*
X0076136Y0011160D01*
X0075890Y0011151D01*
X0075644Y0011148D01*
X0075398Y0011151D01*
X0075152Y0011160D01*
X0074906Y0011175D01*
X0074660Y0011196D01*
X0074415Y0011223D01*
X0074171Y0011257D01*
X0073928Y0011296D01*
X0073686Y0011341D01*
X0073445Y0011392D01*
X0073205Y0011449D01*
X0072967Y0011512D01*
X0072730Y0011580D01*
X0072496Y0011655D01*
X0072263Y0011735D01*
X0072032Y0011821D01*
X0071803Y0011912D01*
X0071577Y0012009D01*
X0071353Y0012112D01*
X0071131Y0012220D01*
X0070913Y0012333D01*
X0070697Y0012452D01*
X0070484Y0012576D01*
X0070274Y0012705D01*
X0070068Y0012840D01*
X0069865Y0012979D01*
X0069665Y0013123D01*
X0069469Y0013272D01*
X0069277Y0013426D01*
X0069088Y0013585D01*
X0068904Y0013748D01*
X0068723Y0013916D01*
X0068547Y0014088D01*
X0068375Y0014264D01*
X0068207Y0014445D01*
X0068044Y0014629D01*
X0067885Y0014818D01*
X0067731Y0015010D01*
X0067582Y0015206D01*
X0067438Y0015406D01*
X0067299Y0015609D01*
X0067164Y0015815D01*
X0067035Y0016025D01*
X0066911Y0016238D01*
X0066792Y0016454D01*
X0066679Y0016672D01*
X0066571Y0016894D01*
X0066468Y0017118D01*
X0066371Y0017344D01*
X0066280Y0017573D01*
X0066194Y0017804D01*
X0066114Y0018037D01*
X0066039Y0018271D01*
X0065971Y0018508D01*
X0065908Y0018746D01*
X0065851Y0018986D01*
X0065800Y0019227D01*
X0065755Y0019469D01*
X0065716Y0019712D01*
X0065682Y0019956D01*
X0065655Y0020201D01*
X0065634Y0020447D01*
X0065619Y0020693D01*
X0065610Y0020939D01*
X0065607Y0021185D01*
X0488568Y0021185D02*
X0488571Y0021438D01*
X0488580Y0021691D01*
X0488596Y0021943D01*
X0488618Y0022195D01*
X0488645Y0022446D01*
X0488680Y0022697D01*
X0488720Y0022947D01*
X0488766Y0023195D01*
X0488818Y0023443D01*
X0488877Y0023689D01*
X0488941Y0023933D01*
X0489012Y0024176D01*
X0489088Y0024417D01*
X0489170Y0024656D01*
X0489258Y0024893D01*
X0489352Y0025128D01*
X0489452Y0025361D01*
X0489557Y0025591D01*
X0489668Y0025818D01*
X0489785Y0026042D01*
X0489907Y0026264D01*
X0490034Y0026482D01*
X0490167Y0026698D01*
X0490305Y0026910D01*
X0490448Y0027118D01*
X0490596Y0027323D01*
X0490749Y0027524D01*
X0490907Y0027722D01*
X0491070Y0027915D01*
X0491237Y0028105D01*
X0491409Y0028290D01*
X0491586Y0028471D01*
X0491767Y0028648D01*
X0491952Y0028820D01*
X0492142Y0028987D01*
X0492335Y0029150D01*
X0492533Y0029308D01*
X0492734Y0029461D01*
X0492939Y0029609D01*
X0493147Y0029752D01*
X0493359Y0029890D01*
X0493575Y0030023D01*
X0493793Y0030150D01*
X0494015Y0030272D01*
X0494239Y0030389D01*
X0494466Y0030500D01*
X0494696Y0030605D01*
X0494929Y0030705D01*
X0495164Y0030799D01*
X0495401Y0030887D01*
X0495640Y0030969D01*
X0495881Y0031045D01*
X0496124Y0031116D01*
X0496368Y0031180D01*
X0496614Y0031239D01*
X0496862Y0031291D01*
X0497110Y0031337D01*
X0497360Y0031377D01*
X0497611Y0031412D01*
X0497862Y0031439D01*
X0498114Y0031461D01*
X0498366Y0031477D01*
X0498619Y0031486D01*
X0498872Y0031489D01*
X0499125Y0031486D01*
X0499378Y0031477D01*
X0499630Y0031461D01*
X0499882Y0031439D01*
X0500133Y0031412D01*
X0500384Y0031377D01*
X0500634Y0031337D01*
X0500882Y0031291D01*
X0501130Y0031239D01*
X0501376Y0031180D01*
X0501620Y0031116D01*
X0501863Y0031045D01*
X0502104Y0030969D01*
X0502343Y0030887D01*
X0502580Y0030799D01*
X0502815Y0030705D01*
X0503048Y0030605D01*
X0503278Y0030500D01*
X0503505Y0030389D01*
X0503729Y0030272D01*
X0503951Y0030150D01*
X0504169Y0030023D01*
X0504385Y0029890D01*
X0504597Y0029752D01*
X0504805Y0029609D01*
X0505010Y0029461D01*
X0505211Y0029308D01*
X0505409Y0029150D01*
X0505602Y0028987D01*
X0505792Y0028820D01*
X0505977Y0028648D01*
X0506158Y0028471D01*
X0506335Y0028290D01*
X0506507Y0028105D01*
X0506674Y0027915D01*
X0506837Y0027722D01*
X0506995Y0027524D01*
X0507148Y0027323D01*
X0507296Y0027118D01*
X0507439Y0026910D01*
X0507577Y0026698D01*
X0507710Y0026482D01*
X0507837Y0026264D01*
X0507959Y0026042D01*
X0508076Y0025818D01*
X0508187Y0025591D01*
X0508292Y0025361D01*
X0508392Y0025128D01*
X0508486Y0024893D01*
X0508574Y0024656D01*
X0508656Y0024417D01*
X0508732Y0024176D01*
X0508803Y0023933D01*
X0508867Y0023689D01*
X0508926Y0023443D01*
X0508978Y0023195D01*
X0509024Y0022947D01*
X0509064Y0022697D01*
X0509099Y0022446D01*
X0509126Y0022195D01*
X0509148Y0021943D01*
X0509164Y0021691D01*
X0509173Y0021438D01*
X0509176Y0021185D01*
X0509173Y0020932D01*
X0509164Y0020679D01*
X0509148Y0020427D01*
X0509126Y0020175D01*
X0509099Y0019924D01*
X0509064Y0019673D01*
X0509024Y0019423D01*
X0508978Y0019175D01*
X0508926Y0018927D01*
X0508867Y0018681D01*
X0508803Y0018437D01*
X0508732Y0018194D01*
X0508656Y0017953D01*
X0508574Y0017714D01*
X0508486Y0017477D01*
X0508392Y0017242D01*
X0508292Y0017009D01*
X0508187Y0016779D01*
X0508076Y0016552D01*
X0507959Y0016328D01*
X0507837Y0016106D01*
X0507710Y0015888D01*
X0507577Y0015672D01*
X0507439Y0015460D01*
X0507296Y0015252D01*
X0507148Y0015047D01*
X0506995Y0014846D01*
X0506837Y0014648D01*
X0506674Y0014455D01*
X0506507Y0014265D01*
X0506335Y0014080D01*
X0506158Y0013899D01*
X0505977Y0013722D01*
X0505792Y0013550D01*
X0505602Y0013383D01*
X0505409Y0013220D01*
X0505211Y0013062D01*
X0505010Y0012909D01*
X0504805Y0012761D01*
X0504597Y0012618D01*
X0504385Y0012480D01*
X0504169Y0012347D01*
X0503951Y0012220D01*
X0503729Y0012098D01*
X0503505Y0011981D01*
X0503278Y0011870D01*
X0503048Y0011765D01*
X0502815Y0011665D01*
X0502580Y0011571D01*
X0502343Y0011483D01*
X0502104Y0011401D01*
X0501863Y0011325D01*
X0501620Y0011254D01*
X0501376Y0011190D01*
X0501130Y0011131D01*
X0500882Y0011079D01*
X0500634Y0011033D01*
X0500384Y0010993D01*
X0500133Y0010958D01*
X0499882Y0010931D01*
X0499630Y0010909D01*
X0499378Y0010893D01*
X0499125Y0010884D01*
X0498872Y0010881D01*
X0498619Y0010884D01*
X0498366Y0010893D01*
X0498114Y0010909D01*
X0497862Y0010931D01*
X0497611Y0010958D01*
X0497360Y0010993D01*
X0497110Y0011033D01*
X0496862Y0011079D01*
X0496614Y0011131D01*
X0496368Y0011190D01*
X0496124Y0011254D01*
X0495881Y0011325D01*
X0495640Y0011401D01*
X0495401Y0011483D01*
X0495164Y0011571D01*
X0494929Y0011665D01*
X0494696Y0011765D01*
X0494466Y0011870D01*
X0494239Y0011981D01*
X0494015Y0012098D01*
X0493793Y0012220D01*
X0493575Y0012347D01*
X0493359Y0012480D01*
X0493147Y0012618D01*
X0492939Y0012761D01*
X0492734Y0012909D01*
X0492533Y0013062D01*
X0492335Y0013220D01*
X0492142Y0013383D01*
X0491952Y0013550D01*
X0491767Y0013722D01*
X0491586Y0013899D01*
X0491409Y0014080D01*
X0491237Y0014265D01*
X0491070Y0014455D01*
X0490907Y0014648D01*
X0490749Y0014846D01*
X0490596Y0015047D01*
X0490448Y0015252D01*
X0490305Y0015460D01*
X0490167Y0015672D01*
X0490034Y0015888D01*
X0489907Y0016106D01*
X0489785Y0016328D01*
X0489668Y0016552D01*
X0489557Y0016779D01*
X0489452Y0017009D01*
X0489352Y0017242D01*
X0489258Y0017477D01*
X0489170Y0017714D01*
X0489088Y0017953D01*
X0489012Y0018194D01*
X0488941Y0018437D01*
X0488877Y0018681D01*
X0488818Y0018927D01*
X0488766Y0019175D01*
X0488720Y0019423D01*
X0488680Y0019673D01*
X0488645Y0019924D01*
X0488618Y0020175D01*
X0488596Y0020427D01*
X0488580Y0020679D01*
X0488571Y0020932D01*
X0488568Y0021185D01*
X0488781Y0450319D02*
X0488784Y0450567D01*
X0488793Y0450814D01*
X0488808Y0451061D01*
X0488830Y0451308D01*
X0488857Y0451554D01*
X0488890Y0451800D01*
X0488930Y0452044D01*
X0488975Y0452288D01*
X0489026Y0452530D01*
X0489083Y0452771D01*
X0489147Y0453010D01*
X0489216Y0453248D01*
X0489290Y0453484D01*
X0489371Y0453719D01*
X0489457Y0453951D01*
X0489549Y0454181D01*
X0489647Y0454408D01*
X0489750Y0454633D01*
X0489858Y0454856D01*
X0489973Y0455076D01*
X0490092Y0455293D01*
X0490217Y0455507D01*
X0490347Y0455718D01*
X0490482Y0455925D01*
X0490622Y0456129D01*
X0490767Y0456330D01*
X0490917Y0456527D01*
X0491072Y0456721D01*
X0491231Y0456910D01*
X0491395Y0457096D01*
X0491564Y0457277D01*
X0491737Y0457454D01*
X0491914Y0457627D01*
X0492095Y0457796D01*
X0492281Y0457960D01*
X0492470Y0458119D01*
X0492664Y0458274D01*
X0492861Y0458424D01*
X0493062Y0458569D01*
X0493266Y0458709D01*
X0493473Y0458844D01*
X0493684Y0458974D01*
X0493898Y0459099D01*
X0494115Y0459218D01*
X0494335Y0459333D01*
X0494558Y0459441D01*
X0494783Y0459544D01*
X0495010Y0459642D01*
X0495240Y0459734D01*
X0495472Y0459820D01*
X0495707Y0459901D01*
X0495943Y0459975D01*
X0496181Y0460044D01*
X0496420Y0460108D01*
X0496661Y0460165D01*
X0496903Y0460216D01*
X0497147Y0460261D01*
X0497391Y0460301D01*
X0497637Y0460334D01*
X0497883Y0460361D01*
X0498130Y0460383D01*
X0498377Y0460398D01*
X0498624Y0460407D01*
X0498872Y0460410D01*
X0499120Y0460407D01*
X0499367Y0460398D01*
X0499614Y0460383D01*
X0499861Y0460361D01*
X0500107Y0460334D01*
X0500353Y0460301D01*
X0500597Y0460261D01*
X0500841Y0460216D01*
X0501083Y0460165D01*
X0501324Y0460108D01*
X0501563Y0460044D01*
X0501801Y0459975D01*
X0502037Y0459901D01*
X0502272Y0459820D01*
X0502504Y0459734D01*
X0502734Y0459642D01*
X0502961Y0459544D01*
X0503186Y0459441D01*
X0503409Y0459333D01*
X0503629Y0459218D01*
X0503846Y0459099D01*
X0504060Y0458974D01*
X0504271Y0458844D01*
X0504478Y0458709D01*
X0504682Y0458569D01*
X0504883Y0458424D01*
X0505080Y0458274D01*
X0505274Y0458119D01*
X0505463Y0457960D01*
X0505649Y0457796D01*
X0505830Y0457627D01*
X0506007Y0457454D01*
X0506180Y0457277D01*
X0506349Y0457096D01*
X0506513Y0456910D01*
X0506672Y0456721D01*
X0506827Y0456527D01*
X0506977Y0456330D01*
X0507122Y0456129D01*
X0507262Y0455925D01*
X0507397Y0455718D01*
X0507527Y0455507D01*
X0507652Y0455293D01*
X0507771Y0455076D01*
X0507886Y0454856D01*
X0507994Y0454633D01*
X0508097Y0454408D01*
X0508195Y0454181D01*
X0508287Y0453951D01*
X0508373Y0453719D01*
X0508454Y0453484D01*
X0508528Y0453248D01*
X0508597Y0453010D01*
X0508661Y0452771D01*
X0508718Y0452530D01*
X0508769Y0452288D01*
X0508814Y0452044D01*
X0508854Y0451800D01*
X0508887Y0451554D01*
X0508914Y0451308D01*
X0508936Y0451061D01*
X0508951Y0450814D01*
X0508960Y0450567D01*
X0508963Y0450319D01*
X0508960Y0450071D01*
X0508951Y0449824D01*
X0508936Y0449577D01*
X0508914Y0449330D01*
X0508887Y0449084D01*
X0508854Y0448838D01*
X0508814Y0448594D01*
X0508769Y0448350D01*
X0508718Y0448108D01*
X0508661Y0447867D01*
X0508597Y0447628D01*
X0508528Y0447390D01*
X0508454Y0447154D01*
X0508373Y0446919D01*
X0508287Y0446687D01*
X0508195Y0446457D01*
X0508097Y0446230D01*
X0507994Y0446005D01*
X0507886Y0445782D01*
X0507771Y0445562D01*
X0507652Y0445345D01*
X0507527Y0445131D01*
X0507397Y0444920D01*
X0507262Y0444713D01*
X0507122Y0444509D01*
X0506977Y0444308D01*
X0506827Y0444111D01*
X0506672Y0443917D01*
X0506513Y0443728D01*
X0506349Y0443542D01*
X0506180Y0443361D01*
X0506007Y0443184D01*
X0505830Y0443011D01*
X0505649Y0442842D01*
X0505463Y0442678D01*
X0505274Y0442519D01*
X0505080Y0442364D01*
X0504883Y0442214D01*
X0504682Y0442069D01*
X0504478Y0441929D01*
X0504271Y0441794D01*
X0504060Y0441664D01*
X0503846Y0441539D01*
X0503629Y0441420D01*
X0503409Y0441305D01*
X0503186Y0441197D01*
X0502961Y0441094D01*
X0502734Y0440996D01*
X0502504Y0440904D01*
X0502272Y0440818D01*
X0502037Y0440737D01*
X0501801Y0440663D01*
X0501563Y0440594D01*
X0501324Y0440530D01*
X0501083Y0440473D01*
X0500841Y0440422D01*
X0500597Y0440377D01*
X0500353Y0440337D01*
X0500107Y0440304D01*
X0499861Y0440277D01*
X0499614Y0440255D01*
X0499367Y0440240D01*
X0499120Y0440231D01*
X0498872Y0440228D01*
X0498624Y0440231D01*
X0498377Y0440240D01*
X0498130Y0440255D01*
X0497883Y0440277D01*
X0497637Y0440304D01*
X0497391Y0440337D01*
X0497147Y0440377D01*
X0496903Y0440422D01*
X0496661Y0440473D01*
X0496420Y0440530D01*
X0496181Y0440594D01*
X0495943Y0440663D01*
X0495707Y0440737D01*
X0495472Y0440818D01*
X0495240Y0440904D01*
X0495010Y0440996D01*
X0494783Y0441094D01*
X0494558Y0441197D01*
X0494335Y0441305D01*
X0494115Y0441420D01*
X0493898Y0441539D01*
X0493684Y0441664D01*
X0493473Y0441794D01*
X0493266Y0441929D01*
X0493062Y0442069D01*
X0492861Y0442214D01*
X0492664Y0442364D01*
X0492470Y0442519D01*
X0492281Y0442678D01*
X0492095Y0442842D01*
X0491914Y0443011D01*
X0491737Y0443184D01*
X0491564Y0443361D01*
X0491395Y0443542D01*
X0491231Y0443728D01*
X0491072Y0443917D01*
X0490917Y0444111D01*
X0490767Y0444308D01*
X0490622Y0444509D01*
X0490482Y0444713D01*
X0490347Y0444920D01*
X0490217Y0445131D01*
X0490092Y0445345D01*
X0489973Y0445562D01*
X0489858Y0445782D01*
X0489750Y0446005D01*
X0489647Y0446230D01*
X0489549Y0446457D01*
X0489457Y0446687D01*
X0489371Y0446919D01*
X0489290Y0447154D01*
X0489216Y0447390D01*
X0489147Y0447628D01*
X0489083Y0447867D01*
X0489026Y0448108D01*
X0488975Y0448350D01*
X0488930Y0448594D01*
X0488890Y0448838D01*
X0488857Y0449084D01*
X0488830Y0449330D01*
X0488808Y0449577D01*
X0488793Y0449824D01*
X0488784Y0450071D01*
X0488781Y0450319D01*
X0065607Y0450319D02*
X0065610Y0450565D01*
X0065619Y0450811D01*
X0065634Y0451057D01*
X0065655Y0451303D01*
X0065682Y0451548D01*
X0065716Y0451792D01*
X0065755Y0452035D01*
X0065800Y0452277D01*
X0065851Y0452518D01*
X0065908Y0452758D01*
X0065971Y0452996D01*
X0066039Y0453233D01*
X0066114Y0453467D01*
X0066194Y0453700D01*
X0066280Y0453931D01*
X0066371Y0454160D01*
X0066468Y0454386D01*
X0066571Y0454610D01*
X0066679Y0454832D01*
X0066792Y0455050D01*
X0066911Y0455266D01*
X0067035Y0455479D01*
X0067164Y0455689D01*
X0067299Y0455895D01*
X0067438Y0456098D01*
X0067582Y0456298D01*
X0067731Y0456494D01*
X0067885Y0456686D01*
X0068044Y0456875D01*
X0068207Y0457059D01*
X0068375Y0457240D01*
X0068547Y0457416D01*
X0068723Y0457588D01*
X0068904Y0457756D01*
X0069088Y0457919D01*
X0069277Y0458078D01*
X0069469Y0458232D01*
X0069665Y0458381D01*
X0069865Y0458525D01*
X0070068Y0458664D01*
X0070274Y0458799D01*
X0070484Y0458928D01*
X0070697Y0459052D01*
X0070913Y0459171D01*
X0071131Y0459284D01*
X0071353Y0459392D01*
X0071577Y0459495D01*
X0071803Y0459592D01*
X0072032Y0459683D01*
X0072263Y0459769D01*
X0072496Y0459849D01*
X0072730Y0459924D01*
X0072967Y0459992D01*
X0073205Y0460055D01*
X0073445Y0460112D01*
X0073686Y0460163D01*
X0073928Y0460208D01*
X0074171Y0460247D01*
X0074415Y0460281D01*
X0074660Y0460308D01*
X0074906Y0460329D01*
X0075152Y0460344D01*
X0075398Y0460353D01*
X0075644Y0460356D01*
X0075890Y0460353D01*
X0076136Y0460344D01*
X0076382Y0460329D01*
X0076628Y0460308D01*
X0076873Y0460281D01*
X0077117Y0460247D01*
X0077360Y0460208D01*
X0077602Y0460163D01*
X0077843Y0460112D01*
X0078083Y0460055D01*
X0078321Y0459992D01*
X0078558Y0459924D01*
X0078792Y0459849D01*
X0079025Y0459769D01*
X0079256Y0459683D01*
X0079485Y0459592D01*
X0079711Y0459495D01*
X0079935Y0459392D01*
X0080157Y0459284D01*
X0080375Y0459171D01*
X0080591Y0459052D01*
X0080804Y0458928D01*
X0081014Y0458799D01*
X0081220Y0458664D01*
X0081423Y0458525D01*
X0081623Y0458381D01*
X0081819Y0458232D01*
X0082011Y0458078D01*
X0082200Y0457919D01*
X0082384Y0457756D01*
X0082565Y0457588D01*
X0082741Y0457416D01*
X0082913Y0457240D01*
X0083081Y0457059D01*
X0083244Y0456875D01*
X0083403Y0456686D01*
X0083557Y0456494D01*
X0083706Y0456298D01*
X0083850Y0456098D01*
X0083989Y0455895D01*
X0084124Y0455689D01*
X0084253Y0455479D01*
X0084377Y0455266D01*
X0084496Y0455050D01*
X0084609Y0454832D01*
X0084717Y0454610D01*
X0084820Y0454386D01*
X0084917Y0454160D01*
X0085008Y0453931D01*
X0085094Y0453700D01*
X0085174Y0453467D01*
X0085249Y0453233D01*
X0085317Y0452996D01*
X0085380Y0452758D01*
X0085437Y0452518D01*
X0085488Y0452277D01*
X0085533Y0452035D01*
X0085572Y0451792D01*
X0085606Y0451548D01*
X0085633Y0451303D01*
X0085654Y0451057D01*
X0085669Y0450811D01*
X0085678Y0450565D01*
X0085681Y0450319D01*
X0085678Y0450073D01*
X0085669Y0449827D01*
X0085654Y0449581D01*
X0085633Y0449335D01*
X0085606Y0449090D01*
X0085572Y0448846D01*
X0085533Y0448603D01*
X0085488Y0448361D01*
X0085437Y0448120D01*
X0085380Y0447880D01*
X0085317Y0447642D01*
X0085249Y0447405D01*
X0085174Y0447171D01*
X0085094Y0446938D01*
X0085008Y0446707D01*
X0084917Y0446478D01*
X0084820Y0446252D01*
X0084717Y0446028D01*
X0084609Y0445806D01*
X0084496Y0445588D01*
X0084377Y0445372D01*
X0084253Y0445159D01*
X0084124Y0444949D01*
X0083989Y0444743D01*
X0083850Y0444540D01*
X0083706Y0444340D01*
X0083557Y0444144D01*
X0083403Y0443952D01*
X0083244Y0443763D01*
X0083081Y0443579D01*
X0082913Y0443398D01*
X0082741Y0443222D01*
X0082565Y0443050D01*
X0082384Y0442882D01*
X0082200Y0442719D01*
X0082011Y0442560D01*
X0081819Y0442406D01*
X0081623Y0442257D01*
X0081423Y0442113D01*
X0081220Y0441974D01*
X0081014Y0441839D01*
X0080804Y0441710D01*
X0080591Y0441586D01*
X0080375Y0441467D01*
X0080157Y0441354D01*
X0079935Y0441246D01*
X0079711Y0441143D01*
X0079485Y0441046D01*
X0079256Y0440955D01*
X0079025Y0440869D01*
X0078792Y0440789D01*
X0078558Y0440714D01*
X0078321Y0440646D01*
X0078083Y0440583D01*
X0077843Y0440526D01*
X0077602Y0440475D01*
X0077360Y0440430D01*
X0077117Y0440391D01*
X0076873Y0440357D01*
X0076628Y0440330D01*
X0076382Y0440309D01*
X0076136Y0440294D01*
X0075890Y0440285D01*
X0075644Y0440282D01*
X0075398Y0440285D01*
X0075152Y0440294D01*
X0074906Y0440309D01*
X0074660Y0440330D01*
X0074415Y0440357D01*
X0074171Y0440391D01*
X0073928Y0440430D01*
X0073686Y0440475D01*
X0073445Y0440526D01*
X0073205Y0440583D01*
X0072967Y0440646D01*
X0072730Y0440714D01*
X0072496Y0440789D01*
X0072263Y0440869D01*
X0072032Y0440955D01*
X0071803Y0441046D01*
X0071577Y0441143D01*
X0071353Y0441246D01*
X0071131Y0441354D01*
X0070913Y0441467D01*
X0070697Y0441586D01*
X0070484Y0441710D01*
X0070274Y0441839D01*
X0070068Y0441974D01*
X0069865Y0442113D01*
X0069665Y0442257D01*
X0069469Y0442406D01*
X0069277Y0442560D01*
X0069088Y0442719D01*
X0068904Y0442882D01*
X0068723Y0443050D01*
X0068547Y0443222D01*
X0068375Y0443398D01*
X0068207Y0443579D01*
X0068044Y0443763D01*
X0067885Y0443952D01*
X0067731Y0444144D01*
X0067582Y0444340D01*
X0067438Y0444540D01*
X0067299Y0444743D01*
X0067164Y0444949D01*
X0067035Y0445159D01*
X0066911Y0445372D01*
X0066792Y0445588D01*
X0066679Y0445806D01*
X0066571Y0446028D01*
X0066468Y0446252D01*
X0066371Y0446478D01*
X0066280Y0446707D01*
X0066194Y0446938D01*
X0066114Y0447171D01*
X0066039Y0447405D01*
X0065971Y0447642D01*
X0065908Y0447880D01*
X0065851Y0448120D01*
X0065800Y0448361D01*
X0065755Y0448603D01*
X0065716Y0448846D01*
X0065682Y0449090D01*
X0065655Y0449335D01*
X0065634Y0449581D01*
X0065619Y0449827D01*
X0065610Y0450073D01*
X0065607Y0450319D01*
D12*
X0066959Y0380063D03*
X0066959Y0370063D03*
X0066959Y0360063D03*
X0066959Y0350063D03*
X0066959Y0340063D03*
X0066959Y0330063D03*
X0066959Y0320063D03*
X0066959Y0310063D03*
X0066959Y0300063D03*
X0066959Y0290063D03*
X0066959Y0280063D03*
X0066959Y0270063D03*
X0066959Y0260063D03*
X0066959Y0250063D03*
X0066959Y0240063D03*
X0066959Y0230063D03*
X0066959Y0220063D03*
X0066959Y0210063D03*
X0066959Y0200063D03*
X0066959Y0190063D03*
X0066959Y0180063D03*
X0066959Y0170063D03*
X0066959Y0160063D03*
X0066959Y0150063D03*
X0066959Y0140063D03*
X0066959Y0130063D03*
X0066959Y0120063D03*
X0066959Y0110063D03*
X0066959Y0100063D03*
X0066959Y0090063D03*
X0086959Y0090063D03*
X0086959Y0100063D03*
X0086959Y0110063D03*
X0086959Y0120063D03*
X0086959Y0130063D03*
X0086959Y0140063D03*
X0086959Y0150063D03*
X0086959Y0160063D03*
X0086959Y0170063D03*
X0086959Y0180063D03*
X0086959Y0190063D03*
X0086959Y0200063D03*
X0086959Y0210063D03*
X0086959Y0220063D03*
X0086959Y0230063D03*
X0086959Y0240063D03*
X0086959Y0250063D03*
X0086959Y0260063D03*
X0086959Y0270063D03*
X0086959Y0280063D03*
X0086959Y0290063D03*
X0086959Y0300063D03*
X0086959Y0310063D03*
X0086959Y0320063D03*
X0086959Y0330063D03*
X0086959Y0340063D03*
X0086959Y0350063D03*
X0086959Y0360063D03*
X0086959Y0370063D03*
X0086959Y0380063D03*
D13*
X0155959Y0345063D03*
X0165959Y0345063D03*
X0165959Y0335063D03*
X0155959Y0335063D03*
X0155959Y0325063D03*
X0165959Y0325063D03*
X0165959Y0315063D03*
X0165959Y0305063D03*
X0165959Y0295063D03*
X0165959Y0285063D03*
X0165959Y0275063D03*
X0165959Y0265063D03*
X0165959Y0255063D03*
X0155959Y0255063D03*
X0155959Y0265063D03*
X0155959Y0275063D03*
X0155959Y0285063D03*
X0155959Y0295063D03*
X0155959Y0305063D03*
X0155959Y0315063D03*
X0155959Y0245063D03*
X0165959Y0245063D03*
X0165959Y0235063D03*
X0165959Y0225063D03*
X0165959Y0215063D03*
X0165959Y0205063D03*
X0165959Y0195063D03*
X0165959Y0185063D03*
X0165959Y0175063D03*
X0165959Y0165063D03*
X0155959Y0165063D03*
X0155959Y0175063D03*
X0155959Y0185063D03*
X0155959Y0195063D03*
X0155959Y0205063D03*
X0155959Y0215063D03*
X0155959Y0225063D03*
X0155959Y0235063D03*
X0155959Y0155063D03*
X0165959Y0155063D03*
X0165959Y0145063D03*
X0165959Y0135063D03*
X0165959Y0125063D03*
X0165959Y0115063D03*
X0165959Y0105063D03*
X0155959Y0105063D03*
X0155959Y0115063D03*
X0155959Y0125063D03*
X0155959Y0135063D03*
X0155959Y0145063D03*
M02*
