G75*
%MOIN*%
%OFA0B0*%
%FSLAX25Y25*%
%IPPOS*%
%LPD*%
%AMOC8*
5,1,8,0,0,1.08239X$1,22.5*
%
%ADD10C,0.16548*%
%ADD11C,0.07874*%
%ADD12OC8,0.06737*%
%ADD13C,0.06800*%
D10*
X0075644Y0021185D03*
X0498872Y0021185D03*
X0498872Y0450319D03*
X0075644Y0450319D03*
D11*
X0065431Y0021185D02*
X0065434Y0021436D01*
X0065443Y0021686D01*
X0065459Y0021936D01*
X0065480Y0022186D01*
X0065508Y0022435D01*
X0065542Y0022684D01*
X0065581Y0022931D01*
X0065627Y0023177D01*
X0065679Y0023423D01*
X0065737Y0023667D01*
X0065801Y0023909D01*
X0065871Y0024150D01*
X0065946Y0024389D01*
X0066028Y0024626D01*
X0066115Y0024861D01*
X0066208Y0025093D01*
X0066307Y0025324D01*
X0066412Y0025552D01*
X0066522Y0025777D01*
X0066637Y0025999D01*
X0066758Y0026219D01*
X0066884Y0026436D01*
X0067016Y0026649D01*
X0067152Y0026859D01*
X0067294Y0027066D01*
X0067441Y0027269D01*
X0067593Y0027468D01*
X0067749Y0027664D01*
X0067911Y0027856D01*
X0068077Y0028044D01*
X0068247Y0028227D01*
X0068422Y0028407D01*
X0068602Y0028582D01*
X0068785Y0028752D01*
X0068973Y0028918D01*
X0069165Y0029080D01*
X0069361Y0029236D01*
X0069560Y0029388D01*
X0069763Y0029535D01*
X0069970Y0029677D01*
X0070180Y0029813D01*
X0070393Y0029945D01*
X0070610Y0030071D01*
X0070830Y0030192D01*
X0071052Y0030307D01*
X0071277Y0030417D01*
X0071505Y0030522D01*
X0071736Y0030621D01*
X0071968Y0030714D01*
X0072203Y0030801D01*
X0072440Y0030883D01*
X0072679Y0030958D01*
X0072920Y0031028D01*
X0073162Y0031092D01*
X0073406Y0031150D01*
X0073652Y0031202D01*
X0073898Y0031248D01*
X0074145Y0031287D01*
X0074394Y0031321D01*
X0074643Y0031349D01*
X0074893Y0031370D01*
X0075143Y0031386D01*
X0075393Y0031395D01*
X0075644Y0031398D01*
X0075895Y0031395D01*
X0076145Y0031386D01*
X0076395Y0031370D01*
X0076645Y0031349D01*
X0076894Y0031321D01*
X0077143Y0031287D01*
X0077390Y0031248D01*
X0077636Y0031202D01*
X0077882Y0031150D01*
X0078126Y0031092D01*
X0078368Y0031028D01*
X0078609Y0030958D01*
X0078848Y0030883D01*
X0079085Y0030801D01*
X0079320Y0030714D01*
X0079552Y0030621D01*
X0079783Y0030522D01*
X0080011Y0030417D01*
X0080236Y0030307D01*
X0080458Y0030192D01*
X0080678Y0030071D01*
X0080895Y0029945D01*
X0081108Y0029813D01*
X0081318Y0029677D01*
X0081525Y0029535D01*
X0081728Y0029388D01*
X0081927Y0029236D01*
X0082123Y0029080D01*
X0082315Y0028918D01*
X0082503Y0028752D01*
X0082686Y0028582D01*
X0082866Y0028407D01*
X0083041Y0028227D01*
X0083211Y0028044D01*
X0083377Y0027856D01*
X0083539Y0027664D01*
X0083695Y0027468D01*
X0083847Y0027269D01*
X0083994Y0027066D01*
X0084136Y0026859D01*
X0084272Y0026649D01*
X0084404Y0026436D01*
X0084530Y0026219D01*
X0084651Y0025999D01*
X0084766Y0025777D01*
X0084876Y0025552D01*
X0084981Y0025324D01*
X0085080Y0025093D01*
X0085173Y0024861D01*
X0085260Y0024626D01*
X0085342Y0024389D01*
X0085417Y0024150D01*
X0085487Y0023909D01*
X0085551Y0023667D01*
X0085609Y0023423D01*
X0085661Y0023177D01*
X0085707Y0022931D01*
X0085746Y0022684D01*
X0085780Y0022435D01*
X0085808Y0022186D01*
X0085829Y0021936D01*
X0085845Y0021686D01*
X0085854Y0021436D01*
X0085857Y0021185D01*
X0085854Y0020934D01*
X0085845Y0020684D01*
X0085829Y0020434D01*
X0085808Y0020184D01*
X0085780Y0019935D01*
X0085746Y0019686D01*
X0085707Y0019439D01*
X0085661Y0019193D01*
X0085609Y0018947D01*
X0085551Y0018703D01*
X0085487Y0018461D01*
X0085417Y0018220D01*
X0085342Y0017981D01*
X0085260Y0017744D01*
X0085173Y0017509D01*
X0085080Y0017277D01*
X0084981Y0017046D01*
X0084876Y0016818D01*
X0084766Y0016593D01*
X0084651Y0016371D01*
X0084530Y0016151D01*
X0084404Y0015934D01*
X0084272Y0015721D01*
X0084136Y0015511D01*
X0083994Y0015304D01*
X0083847Y0015101D01*
X0083695Y0014902D01*
X0083539Y0014706D01*
X0083377Y0014514D01*
X0083211Y0014326D01*
X0083041Y0014143D01*
X0082866Y0013963D01*
X0082686Y0013788D01*
X0082503Y0013618D01*
X0082315Y0013452D01*
X0082123Y0013290D01*
X0081927Y0013134D01*
X0081728Y0012982D01*
X0081525Y0012835D01*
X0081318Y0012693D01*
X0081108Y0012557D01*
X0080895Y0012425D01*
X0080678Y0012299D01*
X0080458Y0012178D01*
X0080236Y0012063D01*
X0080011Y0011953D01*
X0079783Y0011848D01*
X0079552Y0011749D01*
X0079320Y0011656D01*
X0079085Y0011569D01*
X0078848Y0011487D01*
X0078609Y0011412D01*
X0078368Y0011342D01*
X0078126Y0011278D01*
X0077882Y0011220D01*
X0077636Y0011168D01*
X0077390Y0011122D01*
X0077143Y0011083D01*
X0076894Y0011049D01*
X0076645Y0011021D01*
X0076395Y0011000D01*
X0076145Y0010984D01*
X0075895Y0010975D01*
X0075644Y0010972D01*
X0075393Y0010975D01*
X0075143Y0010984D01*
X0074893Y0011000D01*
X0074643Y0011021D01*
X0074394Y0011049D01*
X0074145Y0011083D01*
X0073898Y0011122D01*
X0073652Y0011168D01*
X0073406Y0011220D01*
X0073162Y0011278D01*
X0072920Y0011342D01*
X0072679Y0011412D01*
X0072440Y0011487D01*
X0072203Y0011569D01*
X0071968Y0011656D01*
X0071736Y0011749D01*
X0071505Y0011848D01*
X0071277Y0011953D01*
X0071052Y0012063D01*
X0070830Y0012178D01*
X0070610Y0012299D01*
X0070393Y0012425D01*
X0070180Y0012557D01*
X0069970Y0012693D01*
X0069763Y0012835D01*
X0069560Y0012982D01*
X0069361Y0013134D01*
X0069165Y0013290D01*
X0068973Y0013452D01*
X0068785Y0013618D01*
X0068602Y0013788D01*
X0068422Y0013963D01*
X0068247Y0014143D01*
X0068077Y0014326D01*
X0067911Y0014514D01*
X0067749Y0014706D01*
X0067593Y0014902D01*
X0067441Y0015101D01*
X0067294Y0015304D01*
X0067152Y0015511D01*
X0067016Y0015721D01*
X0066884Y0015934D01*
X0066758Y0016151D01*
X0066637Y0016371D01*
X0066522Y0016593D01*
X0066412Y0016818D01*
X0066307Y0017046D01*
X0066208Y0017277D01*
X0066115Y0017509D01*
X0066028Y0017744D01*
X0065946Y0017981D01*
X0065871Y0018220D01*
X0065801Y0018461D01*
X0065737Y0018703D01*
X0065679Y0018947D01*
X0065627Y0019193D01*
X0065581Y0019439D01*
X0065542Y0019686D01*
X0065508Y0019935D01*
X0065480Y0020184D01*
X0065459Y0020434D01*
X0065443Y0020684D01*
X0065434Y0020934D01*
X0065431Y0021185D01*
X0488712Y0021185D02*
X0488715Y0021434D01*
X0488724Y0021684D01*
X0488740Y0021932D01*
X0488761Y0022181D01*
X0488788Y0022429D01*
X0488822Y0022676D01*
X0488862Y0022922D01*
X0488907Y0023167D01*
X0488959Y0023411D01*
X0489016Y0023654D01*
X0489080Y0023895D01*
X0489149Y0024134D01*
X0489225Y0024372D01*
X0489306Y0024608D01*
X0489393Y0024842D01*
X0489485Y0025073D01*
X0489584Y0025302D01*
X0489687Y0025529D01*
X0489797Y0025753D01*
X0489912Y0025974D01*
X0490032Y0026193D01*
X0490157Y0026408D01*
X0490288Y0026621D01*
X0490424Y0026830D01*
X0490565Y0027035D01*
X0490711Y0027237D01*
X0490862Y0027436D01*
X0491018Y0027630D01*
X0491179Y0027821D01*
X0491344Y0028008D01*
X0491514Y0028191D01*
X0491688Y0028369D01*
X0491866Y0028543D01*
X0492049Y0028713D01*
X0492236Y0028878D01*
X0492427Y0029039D01*
X0492621Y0029195D01*
X0492820Y0029346D01*
X0493022Y0029492D01*
X0493227Y0029633D01*
X0493436Y0029769D01*
X0493649Y0029900D01*
X0493864Y0030025D01*
X0494083Y0030145D01*
X0494304Y0030260D01*
X0494528Y0030370D01*
X0494755Y0030473D01*
X0494984Y0030572D01*
X0495215Y0030664D01*
X0495449Y0030751D01*
X0495685Y0030832D01*
X0495923Y0030908D01*
X0496162Y0030977D01*
X0496403Y0031041D01*
X0496646Y0031098D01*
X0496890Y0031150D01*
X0497135Y0031195D01*
X0497381Y0031235D01*
X0497628Y0031269D01*
X0497876Y0031296D01*
X0498125Y0031317D01*
X0498373Y0031333D01*
X0498623Y0031342D01*
X0498872Y0031345D01*
X0499121Y0031342D01*
X0499371Y0031333D01*
X0499619Y0031317D01*
X0499868Y0031296D01*
X0500116Y0031269D01*
X0500363Y0031235D01*
X0500609Y0031195D01*
X0500854Y0031150D01*
X0501098Y0031098D01*
X0501341Y0031041D01*
X0501582Y0030977D01*
X0501821Y0030908D01*
X0502059Y0030832D01*
X0502295Y0030751D01*
X0502529Y0030664D01*
X0502760Y0030572D01*
X0502989Y0030473D01*
X0503216Y0030370D01*
X0503440Y0030260D01*
X0503661Y0030145D01*
X0503880Y0030025D01*
X0504095Y0029900D01*
X0504308Y0029769D01*
X0504517Y0029633D01*
X0504722Y0029492D01*
X0504924Y0029346D01*
X0505123Y0029195D01*
X0505317Y0029039D01*
X0505508Y0028878D01*
X0505695Y0028713D01*
X0505878Y0028543D01*
X0506056Y0028369D01*
X0506230Y0028191D01*
X0506400Y0028008D01*
X0506565Y0027821D01*
X0506726Y0027630D01*
X0506882Y0027436D01*
X0507033Y0027237D01*
X0507179Y0027035D01*
X0507320Y0026830D01*
X0507456Y0026621D01*
X0507587Y0026408D01*
X0507712Y0026193D01*
X0507832Y0025974D01*
X0507947Y0025753D01*
X0508057Y0025529D01*
X0508160Y0025302D01*
X0508259Y0025073D01*
X0508351Y0024842D01*
X0508438Y0024608D01*
X0508519Y0024372D01*
X0508595Y0024134D01*
X0508664Y0023895D01*
X0508728Y0023654D01*
X0508785Y0023411D01*
X0508837Y0023167D01*
X0508882Y0022922D01*
X0508922Y0022676D01*
X0508956Y0022429D01*
X0508983Y0022181D01*
X0509004Y0021932D01*
X0509020Y0021684D01*
X0509029Y0021434D01*
X0509032Y0021185D01*
X0509029Y0020936D01*
X0509020Y0020686D01*
X0509004Y0020438D01*
X0508983Y0020189D01*
X0508956Y0019941D01*
X0508922Y0019694D01*
X0508882Y0019448D01*
X0508837Y0019203D01*
X0508785Y0018959D01*
X0508728Y0018716D01*
X0508664Y0018475D01*
X0508595Y0018236D01*
X0508519Y0017998D01*
X0508438Y0017762D01*
X0508351Y0017528D01*
X0508259Y0017297D01*
X0508160Y0017068D01*
X0508057Y0016841D01*
X0507947Y0016617D01*
X0507832Y0016396D01*
X0507712Y0016177D01*
X0507587Y0015962D01*
X0507456Y0015749D01*
X0507320Y0015540D01*
X0507179Y0015335D01*
X0507033Y0015133D01*
X0506882Y0014934D01*
X0506726Y0014740D01*
X0506565Y0014549D01*
X0506400Y0014362D01*
X0506230Y0014179D01*
X0506056Y0014001D01*
X0505878Y0013827D01*
X0505695Y0013657D01*
X0505508Y0013492D01*
X0505317Y0013331D01*
X0505123Y0013175D01*
X0504924Y0013024D01*
X0504722Y0012878D01*
X0504517Y0012737D01*
X0504308Y0012601D01*
X0504095Y0012470D01*
X0503880Y0012345D01*
X0503661Y0012225D01*
X0503440Y0012110D01*
X0503216Y0012000D01*
X0502989Y0011897D01*
X0502760Y0011798D01*
X0502529Y0011706D01*
X0502295Y0011619D01*
X0502059Y0011538D01*
X0501821Y0011462D01*
X0501582Y0011393D01*
X0501341Y0011329D01*
X0501098Y0011272D01*
X0500854Y0011220D01*
X0500609Y0011175D01*
X0500363Y0011135D01*
X0500116Y0011101D01*
X0499868Y0011074D01*
X0499619Y0011053D01*
X0499371Y0011037D01*
X0499121Y0011028D01*
X0498872Y0011025D01*
X0498623Y0011028D01*
X0498373Y0011037D01*
X0498125Y0011053D01*
X0497876Y0011074D01*
X0497628Y0011101D01*
X0497381Y0011135D01*
X0497135Y0011175D01*
X0496890Y0011220D01*
X0496646Y0011272D01*
X0496403Y0011329D01*
X0496162Y0011393D01*
X0495923Y0011462D01*
X0495685Y0011538D01*
X0495449Y0011619D01*
X0495215Y0011706D01*
X0494984Y0011798D01*
X0494755Y0011897D01*
X0494528Y0012000D01*
X0494304Y0012110D01*
X0494083Y0012225D01*
X0493864Y0012345D01*
X0493649Y0012470D01*
X0493436Y0012601D01*
X0493227Y0012737D01*
X0493022Y0012878D01*
X0492820Y0013024D01*
X0492621Y0013175D01*
X0492427Y0013331D01*
X0492236Y0013492D01*
X0492049Y0013657D01*
X0491866Y0013827D01*
X0491688Y0014001D01*
X0491514Y0014179D01*
X0491344Y0014362D01*
X0491179Y0014549D01*
X0491018Y0014740D01*
X0490862Y0014934D01*
X0490711Y0015133D01*
X0490565Y0015335D01*
X0490424Y0015540D01*
X0490288Y0015749D01*
X0490157Y0015962D01*
X0490032Y0016177D01*
X0489912Y0016396D01*
X0489797Y0016617D01*
X0489687Y0016841D01*
X0489584Y0017068D01*
X0489485Y0017297D01*
X0489393Y0017528D01*
X0489306Y0017762D01*
X0489225Y0017998D01*
X0489149Y0018236D01*
X0489080Y0018475D01*
X0489016Y0018716D01*
X0488959Y0018959D01*
X0488907Y0019203D01*
X0488862Y0019448D01*
X0488822Y0019694D01*
X0488788Y0019941D01*
X0488761Y0020189D01*
X0488740Y0020438D01*
X0488724Y0020686D01*
X0488715Y0020936D01*
X0488712Y0021185D01*
X0488712Y0450319D02*
X0488715Y0450568D01*
X0488724Y0450818D01*
X0488740Y0451066D01*
X0488761Y0451315D01*
X0488788Y0451563D01*
X0488822Y0451810D01*
X0488862Y0452056D01*
X0488907Y0452301D01*
X0488959Y0452545D01*
X0489016Y0452788D01*
X0489080Y0453029D01*
X0489149Y0453268D01*
X0489225Y0453506D01*
X0489306Y0453742D01*
X0489393Y0453976D01*
X0489485Y0454207D01*
X0489584Y0454436D01*
X0489687Y0454663D01*
X0489797Y0454887D01*
X0489912Y0455108D01*
X0490032Y0455327D01*
X0490157Y0455542D01*
X0490288Y0455755D01*
X0490424Y0455964D01*
X0490565Y0456169D01*
X0490711Y0456371D01*
X0490862Y0456570D01*
X0491018Y0456764D01*
X0491179Y0456955D01*
X0491344Y0457142D01*
X0491514Y0457325D01*
X0491688Y0457503D01*
X0491866Y0457677D01*
X0492049Y0457847D01*
X0492236Y0458012D01*
X0492427Y0458173D01*
X0492621Y0458329D01*
X0492820Y0458480D01*
X0493022Y0458626D01*
X0493227Y0458767D01*
X0493436Y0458903D01*
X0493649Y0459034D01*
X0493864Y0459159D01*
X0494083Y0459279D01*
X0494304Y0459394D01*
X0494528Y0459504D01*
X0494755Y0459607D01*
X0494984Y0459706D01*
X0495215Y0459798D01*
X0495449Y0459885D01*
X0495685Y0459966D01*
X0495923Y0460042D01*
X0496162Y0460111D01*
X0496403Y0460175D01*
X0496646Y0460232D01*
X0496890Y0460284D01*
X0497135Y0460329D01*
X0497381Y0460369D01*
X0497628Y0460403D01*
X0497876Y0460430D01*
X0498125Y0460451D01*
X0498373Y0460467D01*
X0498623Y0460476D01*
X0498872Y0460479D01*
X0499121Y0460476D01*
X0499371Y0460467D01*
X0499619Y0460451D01*
X0499868Y0460430D01*
X0500116Y0460403D01*
X0500363Y0460369D01*
X0500609Y0460329D01*
X0500854Y0460284D01*
X0501098Y0460232D01*
X0501341Y0460175D01*
X0501582Y0460111D01*
X0501821Y0460042D01*
X0502059Y0459966D01*
X0502295Y0459885D01*
X0502529Y0459798D01*
X0502760Y0459706D01*
X0502989Y0459607D01*
X0503216Y0459504D01*
X0503440Y0459394D01*
X0503661Y0459279D01*
X0503880Y0459159D01*
X0504095Y0459034D01*
X0504308Y0458903D01*
X0504517Y0458767D01*
X0504722Y0458626D01*
X0504924Y0458480D01*
X0505123Y0458329D01*
X0505317Y0458173D01*
X0505508Y0458012D01*
X0505695Y0457847D01*
X0505878Y0457677D01*
X0506056Y0457503D01*
X0506230Y0457325D01*
X0506400Y0457142D01*
X0506565Y0456955D01*
X0506726Y0456764D01*
X0506882Y0456570D01*
X0507033Y0456371D01*
X0507179Y0456169D01*
X0507320Y0455964D01*
X0507456Y0455755D01*
X0507587Y0455542D01*
X0507712Y0455327D01*
X0507832Y0455108D01*
X0507947Y0454887D01*
X0508057Y0454663D01*
X0508160Y0454436D01*
X0508259Y0454207D01*
X0508351Y0453976D01*
X0508438Y0453742D01*
X0508519Y0453506D01*
X0508595Y0453268D01*
X0508664Y0453029D01*
X0508728Y0452788D01*
X0508785Y0452545D01*
X0508837Y0452301D01*
X0508882Y0452056D01*
X0508922Y0451810D01*
X0508956Y0451563D01*
X0508983Y0451315D01*
X0509004Y0451066D01*
X0509020Y0450818D01*
X0509029Y0450568D01*
X0509032Y0450319D01*
X0509029Y0450070D01*
X0509020Y0449820D01*
X0509004Y0449572D01*
X0508983Y0449323D01*
X0508956Y0449075D01*
X0508922Y0448828D01*
X0508882Y0448582D01*
X0508837Y0448337D01*
X0508785Y0448093D01*
X0508728Y0447850D01*
X0508664Y0447609D01*
X0508595Y0447370D01*
X0508519Y0447132D01*
X0508438Y0446896D01*
X0508351Y0446662D01*
X0508259Y0446431D01*
X0508160Y0446202D01*
X0508057Y0445975D01*
X0507947Y0445751D01*
X0507832Y0445530D01*
X0507712Y0445311D01*
X0507587Y0445096D01*
X0507456Y0444883D01*
X0507320Y0444674D01*
X0507179Y0444469D01*
X0507033Y0444267D01*
X0506882Y0444068D01*
X0506726Y0443874D01*
X0506565Y0443683D01*
X0506400Y0443496D01*
X0506230Y0443313D01*
X0506056Y0443135D01*
X0505878Y0442961D01*
X0505695Y0442791D01*
X0505508Y0442626D01*
X0505317Y0442465D01*
X0505123Y0442309D01*
X0504924Y0442158D01*
X0504722Y0442012D01*
X0504517Y0441871D01*
X0504308Y0441735D01*
X0504095Y0441604D01*
X0503880Y0441479D01*
X0503661Y0441359D01*
X0503440Y0441244D01*
X0503216Y0441134D01*
X0502989Y0441031D01*
X0502760Y0440932D01*
X0502529Y0440840D01*
X0502295Y0440753D01*
X0502059Y0440672D01*
X0501821Y0440596D01*
X0501582Y0440527D01*
X0501341Y0440463D01*
X0501098Y0440406D01*
X0500854Y0440354D01*
X0500609Y0440309D01*
X0500363Y0440269D01*
X0500116Y0440235D01*
X0499868Y0440208D01*
X0499619Y0440187D01*
X0499371Y0440171D01*
X0499121Y0440162D01*
X0498872Y0440159D01*
X0498623Y0440162D01*
X0498373Y0440171D01*
X0498125Y0440187D01*
X0497876Y0440208D01*
X0497628Y0440235D01*
X0497381Y0440269D01*
X0497135Y0440309D01*
X0496890Y0440354D01*
X0496646Y0440406D01*
X0496403Y0440463D01*
X0496162Y0440527D01*
X0495923Y0440596D01*
X0495685Y0440672D01*
X0495449Y0440753D01*
X0495215Y0440840D01*
X0494984Y0440932D01*
X0494755Y0441031D01*
X0494528Y0441134D01*
X0494304Y0441244D01*
X0494083Y0441359D01*
X0493864Y0441479D01*
X0493649Y0441604D01*
X0493436Y0441735D01*
X0493227Y0441871D01*
X0493022Y0442012D01*
X0492820Y0442158D01*
X0492621Y0442309D01*
X0492427Y0442465D01*
X0492236Y0442626D01*
X0492049Y0442791D01*
X0491866Y0442961D01*
X0491688Y0443135D01*
X0491514Y0443313D01*
X0491344Y0443496D01*
X0491179Y0443683D01*
X0491018Y0443874D01*
X0490862Y0444068D01*
X0490711Y0444267D01*
X0490565Y0444469D01*
X0490424Y0444674D01*
X0490288Y0444883D01*
X0490157Y0445096D01*
X0490032Y0445311D01*
X0489912Y0445530D01*
X0489797Y0445751D01*
X0489687Y0445975D01*
X0489584Y0446202D01*
X0489485Y0446431D01*
X0489393Y0446662D01*
X0489306Y0446896D01*
X0489225Y0447132D01*
X0489149Y0447370D01*
X0489080Y0447609D01*
X0489016Y0447850D01*
X0488959Y0448093D01*
X0488907Y0448337D01*
X0488862Y0448582D01*
X0488822Y0448828D01*
X0488788Y0449075D01*
X0488761Y0449323D01*
X0488740Y0449572D01*
X0488724Y0449820D01*
X0488715Y0450070D01*
X0488712Y0450319D01*
X0065622Y0450319D02*
X0065625Y0450565D01*
X0065634Y0450811D01*
X0065649Y0451056D01*
X0065670Y0451301D01*
X0065697Y0451546D01*
X0065730Y0451790D01*
X0065770Y0452032D01*
X0065815Y0452274D01*
X0065866Y0452515D01*
X0065922Y0452754D01*
X0065985Y0452992D01*
X0066054Y0453228D01*
X0066128Y0453463D01*
X0066208Y0453695D01*
X0066294Y0453926D01*
X0066385Y0454154D01*
X0066482Y0454380D01*
X0066584Y0454604D01*
X0066692Y0454825D01*
X0066805Y0455043D01*
X0066924Y0455259D01*
X0067048Y0455471D01*
X0067177Y0455681D01*
X0067311Y0455887D01*
X0067450Y0456090D01*
X0067594Y0456289D01*
X0067743Y0456485D01*
X0067897Y0456677D01*
X0068055Y0456865D01*
X0068218Y0457049D01*
X0068386Y0457230D01*
X0068557Y0457406D01*
X0068733Y0457577D01*
X0068914Y0457745D01*
X0069098Y0457908D01*
X0069286Y0458066D01*
X0069478Y0458220D01*
X0069674Y0458369D01*
X0069873Y0458513D01*
X0070076Y0458652D01*
X0070282Y0458786D01*
X0070492Y0458915D01*
X0070704Y0459039D01*
X0070920Y0459158D01*
X0071138Y0459271D01*
X0071359Y0459379D01*
X0071583Y0459481D01*
X0071809Y0459578D01*
X0072037Y0459669D01*
X0072268Y0459755D01*
X0072500Y0459835D01*
X0072735Y0459909D01*
X0072971Y0459978D01*
X0073209Y0460041D01*
X0073448Y0460097D01*
X0073689Y0460148D01*
X0073931Y0460193D01*
X0074173Y0460233D01*
X0074417Y0460266D01*
X0074662Y0460293D01*
X0074907Y0460314D01*
X0075152Y0460329D01*
X0075398Y0460338D01*
X0075644Y0460341D01*
X0075890Y0460338D01*
X0076136Y0460329D01*
X0076381Y0460314D01*
X0076626Y0460293D01*
X0076871Y0460266D01*
X0077115Y0460233D01*
X0077357Y0460193D01*
X0077599Y0460148D01*
X0077840Y0460097D01*
X0078079Y0460041D01*
X0078317Y0459978D01*
X0078553Y0459909D01*
X0078788Y0459835D01*
X0079020Y0459755D01*
X0079251Y0459669D01*
X0079479Y0459578D01*
X0079705Y0459481D01*
X0079929Y0459379D01*
X0080150Y0459271D01*
X0080368Y0459158D01*
X0080584Y0459039D01*
X0080796Y0458915D01*
X0081006Y0458786D01*
X0081212Y0458652D01*
X0081415Y0458513D01*
X0081614Y0458369D01*
X0081810Y0458220D01*
X0082002Y0458066D01*
X0082190Y0457908D01*
X0082374Y0457745D01*
X0082555Y0457577D01*
X0082731Y0457406D01*
X0082902Y0457230D01*
X0083070Y0457049D01*
X0083233Y0456865D01*
X0083391Y0456677D01*
X0083545Y0456485D01*
X0083694Y0456289D01*
X0083838Y0456090D01*
X0083977Y0455887D01*
X0084111Y0455681D01*
X0084240Y0455471D01*
X0084364Y0455259D01*
X0084483Y0455043D01*
X0084596Y0454825D01*
X0084704Y0454604D01*
X0084806Y0454380D01*
X0084903Y0454154D01*
X0084994Y0453926D01*
X0085080Y0453695D01*
X0085160Y0453463D01*
X0085234Y0453228D01*
X0085303Y0452992D01*
X0085366Y0452754D01*
X0085422Y0452515D01*
X0085473Y0452274D01*
X0085518Y0452032D01*
X0085558Y0451790D01*
X0085591Y0451546D01*
X0085618Y0451301D01*
X0085639Y0451056D01*
X0085654Y0450811D01*
X0085663Y0450565D01*
X0085666Y0450319D01*
X0085663Y0450073D01*
X0085654Y0449827D01*
X0085639Y0449582D01*
X0085618Y0449337D01*
X0085591Y0449092D01*
X0085558Y0448848D01*
X0085518Y0448606D01*
X0085473Y0448364D01*
X0085422Y0448123D01*
X0085366Y0447884D01*
X0085303Y0447646D01*
X0085234Y0447410D01*
X0085160Y0447175D01*
X0085080Y0446943D01*
X0084994Y0446712D01*
X0084903Y0446484D01*
X0084806Y0446258D01*
X0084704Y0446034D01*
X0084596Y0445813D01*
X0084483Y0445595D01*
X0084364Y0445379D01*
X0084240Y0445167D01*
X0084111Y0444957D01*
X0083977Y0444751D01*
X0083838Y0444548D01*
X0083694Y0444349D01*
X0083545Y0444153D01*
X0083391Y0443961D01*
X0083233Y0443773D01*
X0083070Y0443589D01*
X0082902Y0443408D01*
X0082731Y0443232D01*
X0082555Y0443061D01*
X0082374Y0442893D01*
X0082190Y0442730D01*
X0082002Y0442572D01*
X0081810Y0442418D01*
X0081614Y0442269D01*
X0081415Y0442125D01*
X0081212Y0441986D01*
X0081006Y0441852D01*
X0080796Y0441723D01*
X0080584Y0441599D01*
X0080368Y0441480D01*
X0080150Y0441367D01*
X0079929Y0441259D01*
X0079705Y0441157D01*
X0079479Y0441060D01*
X0079251Y0440969D01*
X0079020Y0440883D01*
X0078788Y0440803D01*
X0078553Y0440729D01*
X0078317Y0440660D01*
X0078079Y0440597D01*
X0077840Y0440541D01*
X0077599Y0440490D01*
X0077357Y0440445D01*
X0077115Y0440405D01*
X0076871Y0440372D01*
X0076626Y0440345D01*
X0076381Y0440324D01*
X0076136Y0440309D01*
X0075890Y0440300D01*
X0075644Y0440297D01*
X0075398Y0440300D01*
X0075152Y0440309D01*
X0074907Y0440324D01*
X0074662Y0440345D01*
X0074417Y0440372D01*
X0074173Y0440405D01*
X0073931Y0440445D01*
X0073689Y0440490D01*
X0073448Y0440541D01*
X0073209Y0440597D01*
X0072971Y0440660D01*
X0072735Y0440729D01*
X0072500Y0440803D01*
X0072268Y0440883D01*
X0072037Y0440969D01*
X0071809Y0441060D01*
X0071583Y0441157D01*
X0071359Y0441259D01*
X0071138Y0441367D01*
X0070920Y0441480D01*
X0070704Y0441599D01*
X0070492Y0441723D01*
X0070282Y0441852D01*
X0070076Y0441986D01*
X0069873Y0442125D01*
X0069674Y0442269D01*
X0069478Y0442418D01*
X0069286Y0442572D01*
X0069098Y0442730D01*
X0068914Y0442893D01*
X0068733Y0443061D01*
X0068557Y0443232D01*
X0068386Y0443408D01*
X0068218Y0443589D01*
X0068055Y0443773D01*
X0067897Y0443961D01*
X0067743Y0444153D01*
X0067594Y0444349D01*
X0067450Y0444548D01*
X0067311Y0444751D01*
X0067177Y0444957D01*
X0067048Y0445167D01*
X0066924Y0445379D01*
X0066805Y0445595D01*
X0066692Y0445813D01*
X0066584Y0446034D01*
X0066482Y0446258D01*
X0066385Y0446484D01*
X0066294Y0446712D01*
X0066208Y0446943D01*
X0066128Y0447175D01*
X0066054Y0447410D01*
X0065985Y0447646D01*
X0065922Y0447884D01*
X0065866Y0448123D01*
X0065815Y0448364D01*
X0065770Y0448606D01*
X0065730Y0448848D01*
X0065697Y0449092D01*
X0065670Y0449337D01*
X0065649Y0449582D01*
X0065634Y0449827D01*
X0065625Y0450073D01*
X0065622Y0450319D01*
D12*
X0066959Y0380063D03*
X0066959Y0370063D03*
X0066959Y0360063D03*
X0066959Y0350063D03*
X0066959Y0340063D03*
X0066959Y0330063D03*
X0066959Y0320063D03*
X0066959Y0310063D03*
X0066959Y0300063D03*
X0066959Y0290063D03*
X0066959Y0280063D03*
X0066959Y0270063D03*
X0066959Y0260063D03*
X0066959Y0250063D03*
X0066959Y0240063D03*
X0066959Y0230063D03*
X0066959Y0220063D03*
X0066959Y0210063D03*
X0066959Y0200063D03*
X0066959Y0190063D03*
X0066959Y0180063D03*
X0066959Y0170063D03*
X0066959Y0160063D03*
X0066959Y0150063D03*
X0066959Y0140063D03*
X0066959Y0130063D03*
X0066959Y0120063D03*
X0066959Y0110063D03*
X0066959Y0100063D03*
X0066959Y0090063D03*
X0086959Y0090063D03*
X0086959Y0100063D03*
X0086959Y0110063D03*
X0086959Y0120063D03*
X0086959Y0130063D03*
X0086959Y0140063D03*
X0086959Y0150063D03*
X0086959Y0160063D03*
X0086959Y0170063D03*
X0086959Y0180063D03*
X0086959Y0190063D03*
X0086959Y0200063D03*
X0086959Y0210063D03*
X0086959Y0220063D03*
X0086959Y0230063D03*
X0086959Y0240063D03*
X0086959Y0250063D03*
X0086959Y0260063D03*
X0086959Y0270063D03*
X0086959Y0280063D03*
X0086959Y0290063D03*
X0086959Y0300063D03*
X0086959Y0310063D03*
X0086959Y0320063D03*
X0086959Y0330063D03*
X0086959Y0340063D03*
X0086959Y0350063D03*
X0086959Y0360063D03*
X0086959Y0370063D03*
X0086959Y0380063D03*
D13*
X0155959Y0345063D03*
X0165959Y0345063D03*
X0165959Y0335063D03*
X0155959Y0335063D03*
X0155959Y0325063D03*
X0165959Y0325063D03*
X0165959Y0315063D03*
X0165959Y0305063D03*
X0165959Y0295063D03*
X0165959Y0285063D03*
X0165959Y0275063D03*
X0165959Y0265063D03*
X0165959Y0255063D03*
X0155959Y0255063D03*
X0155959Y0265063D03*
X0155959Y0275063D03*
X0155959Y0285063D03*
X0155959Y0295063D03*
X0155959Y0305063D03*
X0155959Y0315063D03*
X0155959Y0245063D03*
X0165959Y0245063D03*
X0165959Y0235063D03*
X0165959Y0225063D03*
X0165959Y0215063D03*
X0165959Y0205063D03*
X0165959Y0195063D03*
X0165959Y0185063D03*
X0165959Y0175063D03*
X0165959Y0165063D03*
X0155959Y0165063D03*
X0155959Y0175063D03*
X0155959Y0185063D03*
X0155959Y0195063D03*
X0155959Y0205063D03*
X0155959Y0215063D03*
X0155959Y0225063D03*
X0155959Y0235063D03*
X0155959Y0155063D03*
X0165959Y0155063D03*
X0165959Y0145063D03*
X0165959Y0135063D03*
X0165959Y0125063D03*
X0165959Y0115063D03*
X0165959Y0105063D03*
X0155959Y0105063D03*
X0155959Y0115063D03*
X0155959Y0125063D03*
X0155959Y0135063D03*
X0155959Y0145063D03*
M02*
