%
M48
M72
T01C0.02362
T02C0.03937
T03C0.04000
T04C0.15748
%
T01
X59896Y68429
X134699Y5437
X347297Y5437
X498872Y5437
X59896Y349925
X59896Y466067
X164226Y466067
X298085Y466067
X498872Y466067
T02
X86959Y380063
X86959Y370063
X86959Y360063
X86959Y350063
X86959Y340063
X86959Y330063
X86959Y320063
X86959Y310063
X86959Y300063
X86959Y290063
X86959Y280063
X86959Y270063
X86959Y260063
X86959Y250063
X86959Y240063
X86959Y230063
X86959Y220063
X86959Y210063
X86959Y200063
X86959Y190063
X86959Y180063
X86959Y170063
X86959Y160063
X86959Y150063
X86959Y140063
X86959Y130063
X86959Y120063
X86959Y110063
X86959Y100063
X86959Y90063
X66959Y90063
X66959Y100063
X66959Y110063
X66959Y120063
X66959Y130063
X66959Y140063
X66959Y150063
X66959Y160063
X66959Y170063
X66959Y180063
X66959Y190063
X66959Y200063
X66959Y210063
X66959Y220063
X66959Y230063
X66959Y240063
X66959Y250063
X66959Y260063
X66959Y270063
X66959Y280063
X66959Y290063
X66959Y300063
X66959Y310063
X66959Y320063
X66959Y330063
X66959Y340063
X66959Y350063
X66959Y360063
X66959Y370063
X66959Y380063
T03
X155959Y345063
X165959Y345063
X165959Y335063
X155959Y335063
X155959Y325063
X165959Y325063
X165959Y315063
X165959Y305063
X165959Y295063
X165959Y285063
X165959Y275063
X165959Y265063
X165959Y255063
X155959Y255063
X155959Y265063
X155959Y275063
X155959Y285063
X155959Y295063
X155959Y305063
X155959Y315063
X155959Y245063
X165959Y245063
X165959Y235063
X165959Y225063
X165959Y215063
X165959Y205063
X165959Y195063
X165959Y185063
X165959Y175063
X165959Y165063
X155959Y165063
X155959Y175063
X155959Y185063
X155959Y195063
X155959Y205063
X155959Y215063
X155959Y225063
X155959Y235063
X155959Y155063
X165959Y155063
X165959Y145063
X165959Y135063
X165959Y125063
X165959Y115063
X165959Y105063
X155959Y105063
X155959Y115063
X155959Y125063
X155959Y135063
X155959Y145063
T04
X75644Y21185
X498872Y21185
X498872Y450319
X75644Y450319
M30
