%
M48
M72
T01C0.04000
%
T01
X26579Y60102
X26579Y70102
X26579Y80102
X26579Y90102
X26579Y100102
X26579Y110102
X26579Y120102
X26579Y130102
X26579Y140102
X26579Y150102
X26579Y160102
X26579Y170102
X26579Y180102
X26579Y190102
X26579Y200102
X26579Y210102
X26579Y220102
X26579Y230102
X26579Y240102
X26579Y250102
X26579Y260102
X26579Y270102
X26579Y280102
X26579Y290102
X26579Y300102
X46579Y300102
X46579Y290102
X46579Y280102
X46579Y270102
X46579Y260102
X46579Y250102
X46579Y240102
X46579Y230102
X46579Y220102
X46579Y210102
X46579Y200102
X46579Y190102
X46579Y180102
X46579Y170102
X46579Y160102
X46579Y150102
X46579Y140102
X46579Y130102
X46579Y120102
X46579Y110102
X46579Y100102
X46579Y90102
X46579Y80102
X46579Y70102
X46579Y60102
X69079Y60102
X69079Y70102
X69079Y80102
X69079Y90102
X69079Y100102
X69079Y110102
X69079Y120102
X69079Y130102
X69079Y140102
X69079Y150102
X69079Y160102
X69079Y170102
X69079Y180102
X69079Y190102
X69079Y200102
X69079Y210102
X69079Y220102
X69079Y230102
X69079Y240102
X69079Y250102
X69079Y260102
X69079Y270102
X69079Y280102
X69079Y290102
X69079Y300102
X79079Y300102
X79079Y290102
X79079Y280102
X79079Y270102
X79079Y260102
X79079Y250102
X79079Y240102
X79079Y230102
X79079Y220102
X79079Y210102
X79079Y200102
X79079Y190102
X79079Y180102
X79079Y170102
X79079Y160102
X79079Y150102
X79079Y140102
X79079Y130102
X79079Y120102
X79079Y110102
X79079Y100102
X79079Y90102
X79079Y80102
X79079Y70102
X79079Y60102
M30
