G75*
%MOIN*%
%OFA0B0*%
%FSLAX25Y25*%
%IPPOS*%
%LPD*%
%AMOC8*
5,1,8,0,0,1.08239X$1,22.5*
%
%ADD10C,0.01000*%
%ADD11C,0.00900*%
%ADD12C,0.00600*%
%ADD13C,0.00500*%
%ADD14C,0.00394*%
%ADD15C,0.00400*%
D10*
X0001500Y0001500D02*
X0001579Y0001500D01*
X0001579Y0367602D01*
X0091579Y0367602D01*
X0092051Y0367642D02*
X0092051Y0022602D01*
X0071579Y0001500D01*
X0001579Y0001500D01*
X0001579Y0130102D02*
X0001579Y0205102D01*
X0001579Y0220102D02*
X0001579Y0330102D01*
X0024079Y0367602D02*
X0071579Y0367602D01*
D11*
X0064170Y0352792D02*
X0065990Y0350972D01*
X0064170Y0352792D02*
X0060530Y0352792D01*
X0058710Y0350972D01*
X0058710Y0343691D01*
X0060530Y0341871D01*
X0064170Y0341871D01*
X0065990Y0343691D01*
X0055115Y0343691D02*
X0053295Y0341871D01*
X0049655Y0341871D01*
X0047835Y0343691D01*
X0049655Y0347331D02*
X0047835Y0349151D01*
X0047835Y0350972D01*
X0049655Y0352792D01*
X0053295Y0352792D01*
X0055115Y0350972D01*
X0053295Y0347331D02*
X0055115Y0345511D01*
X0055115Y0343691D01*
X0053295Y0347331D02*
X0049655Y0347331D01*
X0044240Y0345511D02*
X0044240Y0343691D01*
X0042419Y0341871D01*
X0036959Y0341871D01*
X0036959Y0352792D01*
X0042419Y0352792D01*
X0044240Y0350972D01*
X0044240Y0349151D01*
X0042419Y0347331D01*
X0036959Y0347331D01*
X0033364Y0347331D02*
X0031544Y0345511D01*
X0026084Y0345511D01*
X0026084Y0341871D02*
X0026084Y0352792D01*
X0031544Y0352792D01*
X0033364Y0350972D01*
X0033364Y0347331D01*
X0029724Y0345511D02*
X0033364Y0341871D01*
X0042419Y0347331D02*
X0044240Y0345511D01*
D12*
X0045225Y0337190D02*
X0042798Y0337190D01*
X0041585Y0335977D01*
X0041585Y0331124D01*
X0046438Y0335977D01*
X0046438Y0331124D01*
X0045225Y0329910D01*
X0042798Y0329910D01*
X0041585Y0331124D01*
X0039188Y0329910D02*
X0034334Y0329910D01*
X0039188Y0334764D01*
X0039188Y0335977D01*
X0037974Y0337190D01*
X0035548Y0337190D01*
X0034334Y0335977D01*
X0045225Y0337190D02*
X0046438Y0335977D01*
X0048835Y0334764D02*
X0051262Y0337190D01*
X0051262Y0329910D01*
X0053688Y0329910D02*
X0048835Y0329910D01*
X0056085Y0331124D02*
X0057298Y0329910D01*
X0059725Y0329910D01*
X0060939Y0331124D01*
X0060939Y0335977D01*
X0059725Y0337190D01*
X0057298Y0337190D01*
X0056085Y0335977D01*
X0056085Y0334764D01*
X0057298Y0333550D01*
X0060939Y0333550D01*
D13*
X0056579Y0310102D02*
X0016579Y0310102D01*
X0016579Y0050102D01*
X0056579Y0050102D01*
X0056579Y0310102D01*
X0043280Y0024932D02*
X0043280Y0024030D01*
X0043280Y0022227D02*
X0043280Y0018620D01*
X0044181Y0018620D02*
X0042378Y0018620D01*
X0042378Y0022227D02*
X0043280Y0022227D01*
X0046003Y0021325D02*
X0046003Y0019522D01*
X0046905Y0018620D01*
X0048708Y0018620D01*
X0049610Y0019522D01*
X0049610Y0021325D01*
X0048708Y0022227D01*
X0046905Y0022227D01*
X0046003Y0021325D01*
X0040547Y0022227D02*
X0037842Y0022227D01*
X0036940Y0021325D01*
X0037842Y0020423D01*
X0039645Y0020423D01*
X0040547Y0019522D01*
X0039645Y0018620D01*
X0036940Y0018620D01*
X0035114Y0022227D02*
X0034212Y0022227D01*
X0032409Y0020423D01*
X0032409Y0018620D02*
X0032409Y0022227D01*
X0030578Y0021325D02*
X0030578Y0020423D01*
X0026971Y0020423D01*
X0026971Y0019522D02*
X0026971Y0021325D01*
X0027873Y0022227D01*
X0029676Y0022227D01*
X0030578Y0021325D01*
X0029676Y0018620D02*
X0027873Y0018620D01*
X0026971Y0019522D01*
X0025140Y0020423D02*
X0025140Y0024030D01*
X0025140Y0020423D02*
X0023337Y0018620D01*
X0021533Y0020423D01*
X0021533Y0024030D01*
X0051441Y0022227D02*
X0051441Y0018620D01*
X0051441Y0022227D02*
X0054146Y0022227D01*
X0055048Y0021325D01*
X0055048Y0018620D01*
X0062316Y0018620D02*
X0065923Y0018620D01*
X0064120Y0018620D02*
X0064120Y0024030D01*
X0062316Y0022227D01*
X0067754Y0019522D02*
X0068656Y0019522D01*
X0068656Y0018620D01*
X0067754Y0018620D01*
X0067754Y0019522D01*
X0070473Y0019522D02*
X0074080Y0023129D01*
X0074080Y0019522D01*
X0073178Y0018620D01*
X0071375Y0018620D01*
X0070473Y0019522D01*
X0070473Y0023129D01*
X0071375Y0024030D01*
X0073178Y0024030D01*
X0074080Y0023129D01*
D14*
X0080339Y0028213D02*
X0080339Y0014433D01*
X0015378Y0014433D01*
X0015378Y0028213D01*
X0080339Y0028213D01*
D15*
X0038879Y0138966D02*
X0034275Y0138966D01*
X0035809Y0140501D01*
X0034275Y0142035D01*
X0038879Y0142035D01*
X0038111Y0143570D02*
X0038879Y0144337D01*
X0038879Y0145872D01*
X0038111Y0146639D01*
X0037344Y0146639D01*
X0036577Y0145872D01*
X0036577Y0144337D01*
X0035809Y0143570D01*
X0035042Y0143570D01*
X0034275Y0144337D01*
X0034275Y0145872D01*
X0035042Y0146639D01*
X0034275Y0148174D02*
X0038879Y0151243D01*
X0038879Y0148174D02*
X0034275Y0151243D01*
X0035042Y0157382D02*
X0034275Y0158149D01*
X0034275Y0159684D01*
X0035042Y0160451D01*
X0035809Y0161986D02*
X0034275Y0163520D01*
X0035809Y0165055D01*
X0038879Y0165055D01*
X0038879Y0166590D02*
X0034275Y0166590D01*
X0034275Y0168892D01*
X0035042Y0169659D01*
X0036577Y0169659D01*
X0037344Y0168892D01*
X0037344Y0166590D01*
X0037344Y0168124D02*
X0038879Y0169659D01*
X0038879Y0172728D02*
X0034275Y0172728D01*
X0034275Y0171194D02*
X0034275Y0174263D01*
X0034275Y0175798D02*
X0034275Y0178100D01*
X0035042Y0178867D01*
X0036577Y0178867D01*
X0037344Y0178100D01*
X0037344Y0175798D01*
X0037344Y0177332D02*
X0038879Y0178867D01*
X0038879Y0180402D02*
X0038879Y0181936D01*
X0038879Y0181169D02*
X0034275Y0181169D01*
X0034275Y0180402D02*
X0034275Y0181936D01*
X0034275Y0183471D02*
X0034275Y0185773D01*
X0035042Y0186540D01*
X0038111Y0186540D01*
X0038879Y0185773D01*
X0038879Y0183471D01*
X0034275Y0183471D01*
X0035042Y0188075D02*
X0038111Y0188075D01*
X0038879Y0188842D01*
X0038879Y0190377D01*
X0038111Y0191144D01*
X0036577Y0191144D01*
X0036577Y0189609D01*
X0035042Y0188075D02*
X0034275Y0188842D01*
X0034275Y0190377D01*
X0035042Y0191144D01*
X0034275Y0192679D02*
X0038879Y0192679D01*
X0038879Y0195748D01*
X0038111Y0201886D02*
X0038879Y0202654D01*
X0038879Y0204188D01*
X0038111Y0204956D01*
X0037344Y0204956D01*
X0036577Y0204188D01*
X0036577Y0202654D01*
X0035809Y0201886D01*
X0035042Y0201886D01*
X0034275Y0202654D01*
X0034275Y0204188D01*
X0035042Y0204956D01*
X0034275Y0206490D02*
X0038879Y0206490D01*
X0038879Y0209560D01*
X0038111Y0211094D02*
X0038879Y0211862D01*
X0038879Y0213396D01*
X0038111Y0214164D01*
X0035042Y0214164D01*
X0034275Y0213396D01*
X0034275Y0211862D01*
X0035042Y0211094D01*
X0038111Y0211094D01*
X0038879Y0217233D02*
X0034275Y0217233D01*
X0034275Y0215698D02*
X0034275Y0218768D01*
X0034275Y0195748D02*
X0034275Y0192679D01*
X0036577Y0192679D02*
X0036577Y0194213D01*
X0038879Y0175798D02*
X0034275Y0175798D01*
X0036577Y0165055D02*
X0036577Y0161986D01*
X0035809Y0161986D02*
X0038879Y0161986D01*
X0038111Y0160451D02*
X0038879Y0159684D01*
X0038879Y0158149D01*
X0038111Y0157382D01*
X0035042Y0157382D01*
M02*
