G75*
%MOIN*%
%OFA0B0*%
%FSLAX25Y25*%
%IPPOS*%
%LPD*%
%AMOC8*
5,1,8,0,0,1.08239X$1,22.5*
%
%ADD10C,0.05906*%
%ADD11OC8,0.05937*%
%ADD12C,0.06000*%
%ADD13C,0.04724*%
%ADD14R,0.03962X0.03962*%
%ADD15C,0.01969*%
%ADD16C,0.04000*%
D10*
X0064620Y0021185D02*
X0064623Y0021456D01*
X0064633Y0021726D01*
X0064650Y0021996D01*
X0064673Y0022266D01*
X0064703Y0022534D01*
X0064739Y0022803D01*
X0064782Y0023070D01*
X0064832Y0023336D01*
X0064888Y0023600D01*
X0064950Y0023864D01*
X0065019Y0024125D01*
X0065095Y0024385D01*
X0065176Y0024643D01*
X0065264Y0024899D01*
X0065359Y0025152D01*
X0065459Y0025404D01*
X0065566Y0025652D01*
X0065678Y0025898D01*
X0065797Y0026142D01*
X0065922Y0026382D01*
X0066052Y0026619D01*
X0066188Y0026852D01*
X0066330Y0027083D01*
X0066478Y0027310D01*
X0066631Y0027533D01*
X0066789Y0027752D01*
X0066953Y0027967D01*
X0067122Y0028179D01*
X0067297Y0028386D01*
X0067476Y0028588D01*
X0067660Y0028786D01*
X0067849Y0028980D01*
X0068043Y0029169D01*
X0068241Y0029353D01*
X0068443Y0029532D01*
X0068650Y0029707D01*
X0068862Y0029876D01*
X0069077Y0030040D01*
X0069296Y0030198D01*
X0069519Y0030351D01*
X0069746Y0030499D01*
X0069977Y0030641D01*
X0070210Y0030777D01*
X0070447Y0030907D01*
X0070687Y0031032D01*
X0070931Y0031151D01*
X0071177Y0031263D01*
X0071425Y0031370D01*
X0071677Y0031470D01*
X0071930Y0031565D01*
X0072186Y0031653D01*
X0072444Y0031734D01*
X0072704Y0031810D01*
X0072965Y0031879D01*
X0073229Y0031941D01*
X0073493Y0031997D01*
X0073759Y0032047D01*
X0074026Y0032090D01*
X0074295Y0032126D01*
X0074563Y0032156D01*
X0074833Y0032179D01*
X0075103Y0032196D01*
X0075373Y0032206D01*
X0075644Y0032209D01*
X0075915Y0032206D01*
X0076185Y0032196D01*
X0076455Y0032179D01*
X0076725Y0032156D01*
X0076993Y0032126D01*
X0077262Y0032090D01*
X0077529Y0032047D01*
X0077795Y0031997D01*
X0078059Y0031941D01*
X0078323Y0031879D01*
X0078584Y0031810D01*
X0078844Y0031734D01*
X0079102Y0031653D01*
X0079358Y0031565D01*
X0079611Y0031470D01*
X0079863Y0031370D01*
X0080111Y0031263D01*
X0080357Y0031151D01*
X0080601Y0031032D01*
X0080841Y0030907D01*
X0081078Y0030777D01*
X0081311Y0030641D01*
X0081542Y0030499D01*
X0081769Y0030351D01*
X0081992Y0030198D01*
X0082211Y0030040D01*
X0082426Y0029876D01*
X0082638Y0029707D01*
X0082845Y0029532D01*
X0083047Y0029353D01*
X0083245Y0029169D01*
X0083439Y0028980D01*
X0083628Y0028786D01*
X0083812Y0028588D01*
X0083991Y0028386D01*
X0084166Y0028179D01*
X0084335Y0027967D01*
X0084499Y0027752D01*
X0084657Y0027533D01*
X0084810Y0027310D01*
X0084958Y0027083D01*
X0085100Y0026852D01*
X0085236Y0026619D01*
X0085366Y0026382D01*
X0085491Y0026142D01*
X0085610Y0025898D01*
X0085722Y0025652D01*
X0085829Y0025404D01*
X0085929Y0025152D01*
X0086024Y0024899D01*
X0086112Y0024643D01*
X0086193Y0024385D01*
X0086269Y0024125D01*
X0086338Y0023864D01*
X0086400Y0023600D01*
X0086456Y0023336D01*
X0086506Y0023070D01*
X0086549Y0022803D01*
X0086585Y0022534D01*
X0086615Y0022266D01*
X0086638Y0021996D01*
X0086655Y0021726D01*
X0086665Y0021456D01*
X0086668Y0021185D01*
X0086665Y0020914D01*
X0086655Y0020644D01*
X0086638Y0020374D01*
X0086615Y0020104D01*
X0086585Y0019836D01*
X0086549Y0019567D01*
X0086506Y0019300D01*
X0086456Y0019034D01*
X0086400Y0018770D01*
X0086338Y0018506D01*
X0086269Y0018245D01*
X0086193Y0017985D01*
X0086112Y0017727D01*
X0086024Y0017471D01*
X0085929Y0017218D01*
X0085829Y0016966D01*
X0085722Y0016718D01*
X0085610Y0016472D01*
X0085491Y0016228D01*
X0085366Y0015988D01*
X0085236Y0015751D01*
X0085100Y0015518D01*
X0084958Y0015287D01*
X0084810Y0015060D01*
X0084657Y0014837D01*
X0084499Y0014618D01*
X0084335Y0014403D01*
X0084166Y0014191D01*
X0083991Y0013984D01*
X0083812Y0013782D01*
X0083628Y0013584D01*
X0083439Y0013390D01*
X0083245Y0013201D01*
X0083047Y0013017D01*
X0082845Y0012838D01*
X0082638Y0012663D01*
X0082426Y0012494D01*
X0082211Y0012330D01*
X0081992Y0012172D01*
X0081769Y0012019D01*
X0081542Y0011871D01*
X0081311Y0011729D01*
X0081078Y0011593D01*
X0080841Y0011463D01*
X0080601Y0011338D01*
X0080357Y0011219D01*
X0080111Y0011107D01*
X0079863Y0011000D01*
X0079611Y0010900D01*
X0079358Y0010805D01*
X0079102Y0010717D01*
X0078844Y0010636D01*
X0078584Y0010560D01*
X0078323Y0010491D01*
X0078059Y0010429D01*
X0077795Y0010373D01*
X0077529Y0010323D01*
X0077262Y0010280D01*
X0076993Y0010244D01*
X0076725Y0010214D01*
X0076455Y0010191D01*
X0076185Y0010174D01*
X0075915Y0010164D01*
X0075644Y0010161D01*
X0075373Y0010164D01*
X0075103Y0010174D01*
X0074833Y0010191D01*
X0074563Y0010214D01*
X0074295Y0010244D01*
X0074026Y0010280D01*
X0073759Y0010323D01*
X0073493Y0010373D01*
X0073229Y0010429D01*
X0072965Y0010491D01*
X0072704Y0010560D01*
X0072444Y0010636D01*
X0072186Y0010717D01*
X0071930Y0010805D01*
X0071677Y0010900D01*
X0071425Y0011000D01*
X0071177Y0011107D01*
X0070931Y0011219D01*
X0070687Y0011338D01*
X0070447Y0011463D01*
X0070210Y0011593D01*
X0069977Y0011729D01*
X0069746Y0011871D01*
X0069519Y0012019D01*
X0069296Y0012172D01*
X0069077Y0012330D01*
X0068862Y0012494D01*
X0068650Y0012663D01*
X0068443Y0012838D01*
X0068241Y0013017D01*
X0068043Y0013201D01*
X0067849Y0013390D01*
X0067660Y0013584D01*
X0067476Y0013782D01*
X0067297Y0013984D01*
X0067122Y0014191D01*
X0066953Y0014403D01*
X0066789Y0014618D01*
X0066631Y0014837D01*
X0066478Y0015060D01*
X0066330Y0015287D01*
X0066188Y0015518D01*
X0066052Y0015751D01*
X0065922Y0015988D01*
X0065797Y0016228D01*
X0065678Y0016472D01*
X0065566Y0016718D01*
X0065459Y0016966D01*
X0065359Y0017218D01*
X0065264Y0017471D01*
X0065176Y0017727D01*
X0065095Y0017985D01*
X0065019Y0018245D01*
X0064950Y0018506D01*
X0064888Y0018770D01*
X0064832Y0019034D01*
X0064782Y0019300D01*
X0064739Y0019567D01*
X0064703Y0019836D01*
X0064673Y0020104D01*
X0064650Y0020374D01*
X0064633Y0020644D01*
X0064623Y0020914D01*
X0064620Y0021185D01*
X0487848Y0021185D02*
X0487851Y0021456D01*
X0487861Y0021726D01*
X0487878Y0021996D01*
X0487901Y0022266D01*
X0487931Y0022534D01*
X0487967Y0022803D01*
X0488010Y0023070D01*
X0488060Y0023336D01*
X0488116Y0023600D01*
X0488178Y0023864D01*
X0488247Y0024125D01*
X0488323Y0024385D01*
X0488404Y0024643D01*
X0488492Y0024899D01*
X0488587Y0025152D01*
X0488687Y0025404D01*
X0488794Y0025652D01*
X0488906Y0025898D01*
X0489025Y0026142D01*
X0489150Y0026382D01*
X0489280Y0026619D01*
X0489416Y0026852D01*
X0489558Y0027083D01*
X0489706Y0027310D01*
X0489859Y0027533D01*
X0490017Y0027752D01*
X0490181Y0027967D01*
X0490350Y0028179D01*
X0490525Y0028386D01*
X0490704Y0028588D01*
X0490888Y0028786D01*
X0491077Y0028980D01*
X0491271Y0029169D01*
X0491469Y0029353D01*
X0491671Y0029532D01*
X0491878Y0029707D01*
X0492090Y0029876D01*
X0492305Y0030040D01*
X0492524Y0030198D01*
X0492747Y0030351D01*
X0492974Y0030499D01*
X0493205Y0030641D01*
X0493438Y0030777D01*
X0493675Y0030907D01*
X0493915Y0031032D01*
X0494159Y0031151D01*
X0494405Y0031263D01*
X0494653Y0031370D01*
X0494905Y0031470D01*
X0495158Y0031565D01*
X0495414Y0031653D01*
X0495672Y0031734D01*
X0495932Y0031810D01*
X0496193Y0031879D01*
X0496457Y0031941D01*
X0496721Y0031997D01*
X0496987Y0032047D01*
X0497254Y0032090D01*
X0497523Y0032126D01*
X0497791Y0032156D01*
X0498061Y0032179D01*
X0498331Y0032196D01*
X0498601Y0032206D01*
X0498872Y0032209D01*
X0499143Y0032206D01*
X0499413Y0032196D01*
X0499683Y0032179D01*
X0499953Y0032156D01*
X0500221Y0032126D01*
X0500490Y0032090D01*
X0500757Y0032047D01*
X0501023Y0031997D01*
X0501287Y0031941D01*
X0501551Y0031879D01*
X0501812Y0031810D01*
X0502072Y0031734D01*
X0502330Y0031653D01*
X0502586Y0031565D01*
X0502839Y0031470D01*
X0503091Y0031370D01*
X0503339Y0031263D01*
X0503585Y0031151D01*
X0503829Y0031032D01*
X0504069Y0030907D01*
X0504306Y0030777D01*
X0504539Y0030641D01*
X0504770Y0030499D01*
X0504997Y0030351D01*
X0505220Y0030198D01*
X0505439Y0030040D01*
X0505654Y0029876D01*
X0505866Y0029707D01*
X0506073Y0029532D01*
X0506275Y0029353D01*
X0506473Y0029169D01*
X0506667Y0028980D01*
X0506856Y0028786D01*
X0507040Y0028588D01*
X0507219Y0028386D01*
X0507394Y0028179D01*
X0507563Y0027967D01*
X0507727Y0027752D01*
X0507885Y0027533D01*
X0508038Y0027310D01*
X0508186Y0027083D01*
X0508328Y0026852D01*
X0508464Y0026619D01*
X0508594Y0026382D01*
X0508719Y0026142D01*
X0508838Y0025898D01*
X0508950Y0025652D01*
X0509057Y0025404D01*
X0509157Y0025152D01*
X0509252Y0024899D01*
X0509340Y0024643D01*
X0509421Y0024385D01*
X0509497Y0024125D01*
X0509566Y0023864D01*
X0509628Y0023600D01*
X0509684Y0023336D01*
X0509734Y0023070D01*
X0509777Y0022803D01*
X0509813Y0022534D01*
X0509843Y0022266D01*
X0509866Y0021996D01*
X0509883Y0021726D01*
X0509893Y0021456D01*
X0509896Y0021185D01*
X0509893Y0020914D01*
X0509883Y0020644D01*
X0509866Y0020374D01*
X0509843Y0020104D01*
X0509813Y0019836D01*
X0509777Y0019567D01*
X0509734Y0019300D01*
X0509684Y0019034D01*
X0509628Y0018770D01*
X0509566Y0018506D01*
X0509497Y0018245D01*
X0509421Y0017985D01*
X0509340Y0017727D01*
X0509252Y0017471D01*
X0509157Y0017218D01*
X0509057Y0016966D01*
X0508950Y0016718D01*
X0508838Y0016472D01*
X0508719Y0016228D01*
X0508594Y0015988D01*
X0508464Y0015751D01*
X0508328Y0015518D01*
X0508186Y0015287D01*
X0508038Y0015060D01*
X0507885Y0014837D01*
X0507727Y0014618D01*
X0507563Y0014403D01*
X0507394Y0014191D01*
X0507219Y0013984D01*
X0507040Y0013782D01*
X0506856Y0013584D01*
X0506667Y0013390D01*
X0506473Y0013201D01*
X0506275Y0013017D01*
X0506073Y0012838D01*
X0505866Y0012663D01*
X0505654Y0012494D01*
X0505439Y0012330D01*
X0505220Y0012172D01*
X0504997Y0012019D01*
X0504770Y0011871D01*
X0504539Y0011729D01*
X0504306Y0011593D01*
X0504069Y0011463D01*
X0503829Y0011338D01*
X0503585Y0011219D01*
X0503339Y0011107D01*
X0503091Y0011000D01*
X0502839Y0010900D01*
X0502586Y0010805D01*
X0502330Y0010717D01*
X0502072Y0010636D01*
X0501812Y0010560D01*
X0501551Y0010491D01*
X0501287Y0010429D01*
X0501023Y0010373D01*
X0500757Y0010323D01*
X0500490Y0010280D01*
X0500221Y0010244D01*
X0499953Y0010214D01*
X0499683Y0010191D01*
X0499413Y0010174D01*
X0499143Y0010164D01*
X0498872Y0010161D01*
X0498601Y0010164D01*
X0498331Y0010174D01*
X0498061Y0010191D01*
X0497791Y0010214D01*
X0497523Y0010244D01*
X0497254Y0010280D01*
X0496987Y0010323D01*
X0496721Y0010373D01*
X0496457Y0010429D01*
X0496193Y0010491D01*
X0495932Y0010560D01*
X0495672Y0010636D01*
X0495414Y0010717D01*
X0495158Y0010805D01*
X0494905Y0010900D01*
X0494653Y0011000D01*
X0494405Y0011107D01*
X0494159Y0011219D01*
X0493915Y0011338D01*
X0493675Y0011463D01*
X0493438Y0011593D01*
X0493205Y0011729D01*
X0492974Y0011871D01*
X0492747Y0012019D01*
X0492524Y0012172D01*
X0492305Y0012330D01*
X0492090Y0012494D01*
X0491878Y0012663D01*
X0491671Y0012838D01*
X0491469Y0013017D01*
X0491271Y0013201D01*
X0491077Y0013390D01*
X0490888Y0013584D01*
X0490704Y0013782D01*
X0490525Y0013984D01*
X0490350Y0014191D01*
X0490181Y0014403D01*
X0490017Y0014618D01*
X0489859Y0014837D01*
X0489706Y0015060D01*
X0489558Y0015287D01*
X0489416Y0015518D01*
X0489280Y0015751D01*
X0489150Y0015988D01*
X0489025Y0016228D01*
X0488906Y0016472D01*
X0488794Y0016718D01*
X0488687Y0016966D01*
X0488587Y0017218D01*
X0488492Y0017471D01*
X0488404Y0017727D01*
X0488323Y0017985D01*
X0488247Y0018245D01*
X0488178Y0018506D01*
X0488116Y0018770D01*
X0488060Y0019034D01*
X0488010Y0019300D01*
X0487967Y0019567D01*
X0487931Y0019836D01*
X0487901Y0020104D01*
X0487878Y0020374D01*
X0487861Y0020644D01*
X0487851Y0020914D01*
X0487848Y0021185D01*
X0487848Y0450319D02*
X0487851Y0450590D01*
X0487861Y0450860D01*
X0487878Y0451130D01*
X0487901Y0451400D01*
X0487931Y0451668D01*
X0487967Y0451937D01*
X0488010Y0452204D01*
X0488060Y0452470D01*
X0488116Y0452734D01*
X0488178Y0452998D01*
X0488247Y0453259D01*
X0488323Y0453519D01*
X0488404Y0453777D01*
X0488492Y0454033D01*
X0488587Y0454286D01*
X0488687Y0454538D01*
X0488794Y0454786D01*
X0488906Y0455032D01*
X0489025Y0455276D01*
X0489150Y0455516D01*
X0489280Y0455753D01*
X0489416Y0455986D01*
X0489558Y0456217D01*
X0489706Y0456444D01*
X0489859Y0456667D01*
X0490017Y0456886D01*
X0490181Y0457101D01*
X0490350Y0457313D01*
X0490525Y0457520D01*
X0490704Y0457722D01*
X0490888Y0457920D01*
X0491077Y0458114D01*
X0491271Y0458303D01*
X0491469Y0458487D01*
X0491671Y0458666D01*
X0491878Y0458841D01*
X0492090Y0459010D01*
X0492305Y0459174D01*
X0492524Y0459332D01*
X0492747Y0459485D01*
X0492974Y0459633D01*
X0493205Y0459775D01*
X0493438Y0459911D01*
X0493675Y0460041D01*
X0493915Y0460166D01*
X0494159Y0460285D01*
X0494405Y0460397D01*
X0494653Y0460504D01*
X0494905Y0460604D01*
X0495158Y0460699D01*
X0495414Y0460787D01*
X0495672Y0460868D01*
X0495932Y0460944D01*
X0496193Y0461013D01*
X0496457Y0461075D01*
X0496721Y0461131D01*
X0496987Y0461181D01*
X0497254Y0461224D01*
X0497523Y0461260D01*
X0497791Y0461290D01*
X0498061Y0461313D01*
X0498331Y0461330D01*
X0498601Y0461340D01*
X0498872Y0461343D01*
X0499143Y0461340D01*
X0499413Y0461330D01*
X0499683Y0461313D01*
X0499953Y0461290D01*
X0500221Y0461260D01*
X0500490Y0461224D01*
X0500757Y0461181D01*
X0501023Y0461131D01*
X0501287Y0461075D01*
X0501551Y0461013D01*
X0501812Y0460944D01*
X0502072Y0460868D01*
X0502330Y0460787D01*
X0502586Y0460699D01*
X0502839Y0460604D01*
X0503091Y0460504D01*
X0503339Y0460397D01*
X0503585Y0460285D01*
X0503829Y0460166D01*
X0504069Y0460041D01*
X0504306Y0459911D01*
X0504539Y0459775D01*
X0504770Y0459633D01*
X0504997Y0459485D01*
X0505220Y0459332D01*
X0505439Y0459174D01*
X0505654Y0459010D01*
X0505866Y0458841D01*
X0506073Y0458666D01*
X0506275Y0458487D01*
X0506473Y0458303D01*
X0506667Y0458114D01*
X0506856Y0457920D01*
X0507040Y0457722D01*
X0507219Y0457520D01*
X0507394Y0457313D01*
X0507563Y0457101D01*
X0507727Y0456886D01*
X0507885Y0456667D01*
X0508038Y0456444D01*
X0508186Y0456217D01*
X0508328Y0455986D01*
X0508464Y0455753D01*
X0508594Y0455516D01*
X0508719Y0455276D01*
X0508838Y0455032D01*
X0508950Y0454786D01*
X0509057Y0454538D01*
X0509157Y0454286D01*
X0509252Y0454033D01*
X0509340Y0453777D01*
X0509421Y0453519D01*
X0509497Y0453259D01*
X0509566Y0452998D01*
X0509628Y0452734D01*
X0509684Y0452470D01*
X0509734Y0452204D01*
X0509777Y0451937D01*
X0509813Y0451668D01*
X0509843Y0451400D01*
X0509866Y0451130D01*
X0509883Y0450860D01*
X0509893Y0450590D01*
X0509896Y0450319D01*
X0509893Y0450048D01*
X0509883Y0449778D01*
X0509866Y0449508D01*
X0509843Y0449238D01*
X0509813Y0448970D01*
X0509777Y0448701D01*
X0509734Y0448434D01*
X0509684Y0448168D01*
X0509628Y0447904D01*
X0509566Y0447640D01*
X0509497Y0447379D01*
X0509421Y0447119D01*
X0509340Y0446861D01*
X0509252Y0446605D01*
X0509157Y0446352D01*
X0509057Y0446100D01*
X0508950Y0445852D01*
X0508838Y0445606D01*
X0508719Y0445362D01*
X0508594Y0445122D01*
X0508464Y0444885D01*
X0508328Y0444652D01*
X0508186Y0444421D01*
X0508038Y0444194D01*
X0507885Y0443971D01*
X0507727Y0443752D01*
X0507563Y0443537D01*
X0507394Y0443325D01*
X0507219Y0443118D01*
X0507040Y0442916D01*
X0506856Y0442718D01*
X0506667Y0442524D01*
X0506473Y0442335D01*
X0506275Y0442151D01*
X0506073Y0441972D01*
X0505866Y0441797D01*
X0505654Y0441628D01*
X0505439Y0441464D01*
X0505220Y0441306D01*
X0504997Y0441153D01*
X0504770Y0441005D01*
X0504539Y0440863D01*
X0504306Y0440727D01*
X0504069Y0440597D01*
X0503829Y0440472D01*
X0503585Y0440353D01*
X0503339Y0440241D01*
X0503091Y0440134D01*
X0502839Y0440034D01*
X0502586Y0439939D01*
X0502330Y0439851D01*
X0502072Y0439770D01*
X0501812Y0439694D01*
X0501551Y0439625D01*
X0501287Y0439563D01*
X0501023Y0439507D01*
X0500757Y0439457D01*
X0500490Y0439414D01*
X0500221Y0439378D01*
X0499953Y0439348D01*
X0499683Y0439325D01*
X0499413Y0439308D01*
X0499143Y0439298D01*
X0498872Y0439295D01*
X0498601Y0439298D01*
X0498331Y0439308D01*
X0498061Y0439325D01*
X0497791Y0439348D01*
X0497523Y0439378D01*
X0497254Y0439414D01*
X0496987Y0439457D01*
X0496721Y0439507D01*
X0496457Y0439563D01*
X0496193Y0439625D01*
X0495932Y0439694D01*
X0495672Y0439770D01*
X0495414Y0439851D01*
X0495158Y0439939D01*
X0494905Y0440034D01*
X0494653Y0440134D01*
X0494405Y0440241D01*
X0494159Y0440353D01*
X0493915Y0440472D01*
X0493675Y0440597D01*
X0493438Y0440727D01*
X0493205Y0440863D01*
X0492974Y0441005D01*
X0492747Y0441153D01*
X0492524Y0441306D01*
X0492305Y0441464D01*
X0492090Y0441628D01*
X0491878Y0441797D01*
X0491671Y0441972D01*
X0491469Y0442151D01*
X0491271Y0442335D01*
X0491077Y0442524D01*
X0490888Y0442718D01*
X0490704Y0442916D01*
X0490525Y0443118D01*
X0490350Y0443325D01*
X0490181Y0443537D01*
X0490017Y0443752D01*
X0489859Y0443971D01*
X0489706Y0444194D01*
X0489558Y0444421D01*
X0489416Y0444652D01*
X0489280Y0444885D01*
X0489150Y0445122D01*
X0489025Y0445362D01*
X0488906Y0445606D01*
X0488794Y0445852D01*
X0488687Y0446100D01*
X0488587Y0446352D01*
X0488492Y0446605D01*
X0488404Y0446861D01*
X0488323Y0447119D01*
X0488247Y0447379D01*
X0488178Y0447640D01*
X0488116Y0447904D01*
X0488060Y0448168D01*
X0488010Y0448434D01*
X0487967Y0448701D01*
X0487931Y0448970D01*
X0487901Y0449238D01*
X0487878Y0449508D01*
X0487861Y0449778D01*
X0487851Y0450048D01*
X0487848Y0450319D01*
X0064620Y0450319D02*
X0064623Y0450590D01*
X0064633Y0450860D01*
X0064650Y0451130D01*
X0064673Y0451400D01*
X0064703Y0451668D01*
X0064739Y0451937D01*
X0064782Y0452204D01*
X0064832Y0452470D01*
X0064888Y0452734D01*
X0064950Y0452998D01*
X0065019Y0453259D01*
X0065095Y0453519D01*
X0065176Y0453777D01*
X0065264Y0454033D01*
X0065359Y0454286D01*
X0065459Y0454538D01*
X0065566Y0454786D01*
X0065678Y0455032D01*
X0065797Y0455276D01*
X0065922Y0455516D01*
X0066052Y0455753D01*
X0066188Y0455986D01*
X0066330Y0456217D01*
X0066478Y0456444D01*
X0066631Y0456667D01*
X0066789Y0456886D01*
X0066953Y0457101D01*
X0067122Y0457313D01*
X0067297Y0457520D01*
X0067476Y0457722D01*
X0067660Y0457920D01*
X0067849Y0458114D01*
X0068043Y0458303D01*
X0068241Y0458487D01*
X0068443Y0458666D01*
X0068650Y0458841D01*
X0068862Y0459010D01*
X0069077Y0459174D01*
X0069296Y0459332D01*
X0069519Y0459485D01*
X0069746Y0459633D01*
X0069977Y0459775D01*
X0070210Y0459911D01*
X0070447Y0460041D01*
X0070687Y0460166D01*
X0070931Y0460285D01*
X0071177Y0460397D01*
X0071425Y0460504D01*
X0071677Y0460604D01*
X0071930Y0460699D01*
X0072186Y0460787D01*
X0072444Y0460868D01*
X0072704Y0460944D01*
X0072965Y0461013D01*
X0073229Y0461075D01*
X0073493Y0461131D01*
X0073759Y0461181D01*
X0074026Y0461224D01*
X0074295Y0461260D01*
X0074563Y0461290D01*
X0074833Y0461313D01*
X0075103Y0461330D01*
X0075373Y0461340D01*
X0075644Y0461343D01*
X0075915Y0461340D01*
X0076185Y0461330D01*
X0076455Y0461313D01*
X0076725Y0461290D01*
X0076993Y0461260D01*
X0077262Y0461224D01*
X0077529Y0461181D01*
X0077795Y0461131D01*
X0078059Y0461075D01*
X0078323Y0461013D01*
X0078584Y0460944D01*
X0078844Y0460868D01*
X0079102Y0460787D01*
X0079358Y0460699D01*
X0079611Y0460604D01*
X0079863Y0460504D01*
X0080111Y0460397D01*
X0080357Y0460285D01*
X0080601Y0460166D01*
X0080841Y0460041D01*
X0081078Y0459911D01*
X0081311Y0459775D01*
X0081542Y0459633D01*
X0081769Y0459485D01*
X0081992Y0459332D01*
X0082211Y0459174D01*
X0082426Y0459010D01*
X0082638Y0458841D01*
X0082845Y0458666D01*
X0083047Y0458487D01*
X0083245Y0458303D01*
X0083439Y0458114D01*
X0083628Y0457920D01*
X0083812Y0457722D01*
X0083991Y0457520D01*
X0084166Y0457313D01*
X0084335Y0457101D01*
X0084499Y0456886D01*
X0084657Y0456667D01*
X0084810Y0456444D01*
X0084958Y0456217D01*
X0085100Y0455986D01*
X0085236Y0455753D01*
X0085366Y0455516D01*
X0085491Y0455276D01*
X0085610Y0455032D01*
X0085722Y0454786D01*
X0085829Y0454538D01*
X0085929Y0454286D01*
X0086024Y0454033D01*
X0086112Y0453777D01*
X0086193Y0453519D01*
X0086269Y0453259D01*
X0086338Y0452998D01*
X0086400Y0452734D01*
X0086456Y0452470D01*
X0086506Y0452204D01*
X0086549Y0451937D01*
X0086585Y0451668D01*
X0086615Y0451400D01*
X0086638Y0451130D01*
X0086655Y0450860D01*
X0086665Y0450590D01*
X0086668Y0450319D01*
X0086665Y0450048D01*
X0086655Y0449778D01*
X0086638Y0449508D01*
X0086615Y0449238D01*
X0086585Y0448970D01*
X0086549Y0448701D01*
X0086506Y0448434D01*
X0086456Y0448168D01*
X0086400Y0447904D01*
X0086338Y0447640D01*
X0086269Y0447379D01*
X0086193Y0447119D01*
X0086112Y0446861D01*
X0086024Y0446605D01*
X0085929Y0446352D01*
X0085829Y0446100D01*
X0085722Y0445852D01*
X0085610Y0445606D01*
X0085491Y0445362D01*
X0085366Y0445122D01*
X0085236Y0444885D01*
X0085100Y0444652D01*
X0084958Y0444421D01*
X0084810Y0444194D01*
X0084657Y0443971D01*
X0084499Y0443752D01*
X0084335Y0443537D01*
X0084166Y0443325D01*
X0083991Y0443118D01*
X0083812Y0442916D01*
X0083628Y0442718D01*
X0083439Y0442524D01*
X0083245Y0442335D01*
X0083047Y0442151D01*
X0082845Y0441972D01*
X0082638Y0441797D01*
X0082426Y0441628D01*
X0082211Y0441464D01*
X0081992Y0441306D01*
X0081769Y0441153D01*
X0081542Y0441005D01*
X0081311Y0440863D01*
X0081078Y0440727D01*
X0080841Y0440597D01*
X0080601Y0440472D01*
X0080357Y0440353D01*
X0080111Y0440241D01*
X0079863Y0440134D01*
X0079611Y0440034D01*
X0079358Y0439939D01*
X0079102Y0439851D01*
X0078844Y0439770D01*
X0078584Y0439694D01*
X0078323Y0439625D01*
X0078059Y0439563D01*
X0077795Y0439507D01*
X0077529Y0439457D01*
X0077262Y0439414D01*
X0076993Y0439378D01*
X0076725Y0439348D01*
X0076455Y0439325D01*
X0076185Y0439308D01*
X0075915Y0439298D01*
X0075644Y0439295D01*
X0075373Y0439298D01*
X0075103Y0439308D01*
X0074833Y0439325D01*
X0074563Y0439348D01*
X0074295Y0439378D01*
X0074026Y0439414D01*
X0073759Y0439457D01*
X0073493Y0439507D01*
X0073229Y0439563D01*
X0072965Y0439625D01*
X0072704Y0439694D01*
X0072444Y0439770D01*
X0072186Y0439851D01*
X0071930Y0439939D01*
X0071677Y0440034D01*
X0071425Y0440134D01*
X0071177Y0440241D01*
X0070931Y0440353D01*
X0070687Y0440472D01*
X0070447Y0440597D01*
X0070210Y0440727D01*
X0069977Y0440863D01*
X0069746Y0441005D01*
X0069519Y0441153D01*
X0069296Y0441306D01*
X0069077Y0441464D01*
X0068862Y0441628D01*
X0068650Y0441797D01*
X0068443Y0441972D01*
X0068241Y0442151D01*
X0068043Y0442335D01*
X0067849Y0442524D01*
X0067660Y0442718D01*
X0067476Y0442916D01*
X0067297Y0443118D01*
X0067122Y0443325D01*
X0066953Y0443537D01*
X0066789Y0443752D01*
X0066631Y0443971D01*
X0066478Y0444194D01*
X0066330Y0444421D01*
X0066188Y0444652D01*
X0066052Y0444885D01*
X0065922Y0445122D01*
X0065797Y0445362D01*
X0065678Y0445606D01*
X0065566Y0445852D01*
X0065459Y0446100D01*
X0065359Y0446352D01*
X0065264Y0446605D01*
X0065176Y0446861D01*
X0065095Y0447119D01*
X0065019Y0447379D01*
X0064950Y0447640D01*
X0064888Y0447904D01*
X0064832Y0448168D01*
X0064782Y0448434D01*
X0064739Y0448701D01*
X0064703Y0448970D01*
X0064673Y0449238D01*
X0064650Y0449508D01*
X0064633Y0449778D01*
X0064623Y0450048D01*
X0064620Y0450319D01*
D11*
X0066959Y0380063D03*
X0066959Y0370063D03*
X0066959Y0360063D03*
X0066959Y0350063D03*
X0066959Y0340063D03*
X0066959Y0330063D03*
X0066959Y0320063D03*
X0066959Y0310063D03*
X0066959Y0300063D03*
X0066959Y0290063D03*
X0066959Y0280063D03*
X0066959Y0270063D03*
X0066959Y0260063D03*
X0066959Y0250063D03*
X0066959Y0240063D03*
X0066959Y0230063D03*
X0066959Y0220063D03*
X0066959Y0210063D03*
X0066959Y0200063D03*
X0066959Y0190063D03*
X0066959Y0180063D03*
X0066959Y0170063D03*
X0066959Y0160063D03*
X0066959Y0150063D03*
X0066959Y0140063D03*
X0066959Y0130063D03*
X0066959Y0120063D03*
X0066959Y0110063D03*
X0066959Y0100063D03*
X0066959Y0090063D03*
X0086959Y0090063D03*
X0086959Y0100063D03*
X0086959Y0110063D03*
X0086959Y0120063D03*
X0086959Y0130063D03*
X0086959Y0140063D03*
X0086959Y0150063D03*
X0086959Y0160063D03*
X0086959Y0170063D03*
X0086959Y0180063D03*
X0086959Y0190063D03*
X0086959Y0200063D03*
X0086959Y0210063D03*
X0086959Y0220063D03*
X0086959Y0230063D03*
X0086959Y0240063D03*
X0086959Y0250063D03*
X0086959Y0260063D03*
X0086959Y0270063D03*
X0086959Y0280063D03*
X0086959Y0290063D03*
X0086959Y0300063D03*
X0086959Y0310063D03*
X0086959Y0320063D03*
X0086959Y0330063D03*
X0086959Y0340063D03*
X0086959Y0350063D03*
X0086959Y0360063D03*
X0086959Y0370063D03*
X0086959Y0380063D03*
D12*
X0155959Y0345063D03*
X0165959Y0345063D03*
X0165959Y0335063D03*
X0155959Y0335063D03*
X0155959Y0325063D03*
X0165959Y0325063D03*
X0165959Y0315063D03*
X0165959Y0305063D03*
X0165959Y0295063D03*
X0165959Y0285063D03*
X0165959Y0275063D03*
X0165959Y0265063D03*
X0165959Y0255063D03*
X0155959Y0255063D03*
X0155959Y0265063D03*
X0155959Y0275063D03*
X0155959Y0285063D03*
X0155959Y0295063D03*
X0155959Y0305063D03*
X0155959Y0315063D03*
X0155959Y0245063D03*
X0165959Y0245063D03*
X0165959Y0235063D03*
X0165959Y0225063D03*
X0165959Y0215063D03*
X0165959Y0205063D03*
X0165959Y0195063D03*
X0165959Y0185063D03*
X0165959Y0175063D03*
X0165959Y0165063D03*
X0155959Y0165063D03*
X0155959Y0175063D03*
X0155959Y0185063D03*
X0155959Y0195063D03*
X0155959Y0205063D03*
X0155959Y0215063D03*
X0155959Y0225063D03*
X0155959Y0235063D03*
X0155959Y0155063D03*
X0165959Y0155063D03*
X0165959Y0145063D03*
X0165959Y0135063D03*
X0165959Y0125063D03*
X0165959Y0115063D03*
X0165959Y0105063D03*
X0155959Y0105063D03*
X0155959Y0115063D03*
X0155959Y0125063D03*
X0155959Y0135063D03*
X0155959Y0145063D03*
D13*
X0059896Y0005437D02*
X0059896Y0466067D01*
X0164226Y0466067D01*
X0187848Y0466067D01*
X0498872Y0466067D01*
X0498872Y0005437D02*
X0059896Y0005437D01*
D14*
X0059896Y0068429D03*
X0134699Y0005437D03*
X0347297Y0005437D03*
X0498872Y0005437D03*
X0059896Y0349925D03*
X0059896Y0466067D03*
X0164226Y0466067D03*
X0298085Y0466067D03*
X0498872Y0466067D03*
D15*
X0187848Y0466067D02*
X0187652Y0465870D01*
D16*
X0163459Y0387563D02*
X0175959Y0375063D01*
X0175959Y0345063D01*
X0165959Y0335063D01*
X0165959Y0325063D01*
X0165959Y0315063D02*
X0165959Y0305063D01*
X0163459Y0387563D02*
X0083459Y0387563D01*
X0066959Y0371063D01*
X0066959Y0370063D01*
X0066959Y0360063D01*
M02*
