G75*
%MOIN*%
%OFA0B0*%
%FSLAX25Y25*%
%IPPOS*%
%LPD*%
%AMOC8*
5,1,8,0,0,1.08239X$1,22.5*
%
%ADD10C,0.06000*%
%ADD11C,0.04000*%
D10*
X0026579Y0060102D03*
X0026579Y0070102D03*
X0026579Y0080102D03*
X0026579Y0090102D03*
X0026579Y0100102D03*
X0026579Y0110102D03*
X0026579Y0120102D03*
X0026579Y0130102D03*
X0026579Y0140102D03*
X0026579Y0150102D03*
X0026579Y0160102D03*
X0026579Y0170102D03*
X0026579Y0180102D03*
X0026579Y0190102D03*
X0026579Y0200102D03*
X0026579Y0210102D03*
X0026579Y0220102D03*
X0026579Y0230102D03*
X0026579Y0240102D03*
X0026579Y0250102D03*
X0026579Y0260102D03*
X0026579Y0270102D03*
X0026579Y0280102D03*
X0026579Y0290102D03*
X0026579Y0300102D03*
X0046579Y0300102D03*
X0046579Y0290102D03*
X0046579Y0280102D03*
X0046579Y0270102D03*
X0046579Y0260102D03*
X0046579Y0250102D03*
X0046579Y0240102D03*
X0046579Y0230102D03*
X0046579Y0220102D03*
X0046579Y0210102D03*
X0046579Y0200102D03*
X0046579Y0190102D03*
X0046579Y0180102D03*
X0046579Y0170102D03*
X0046579Y0160102D03*
X0046579Y0150102D03*
X0046579Y0140102D03*
X0046579Y0130102D03*
X0046579Y0120102D03*
X0046579Y0110102D03*
X0046579Y0100102D03*
X0046579Y0090102D03*
X0046579Y0080102D03*
X0046579Y0070102D03*
X0046579Y0060102D03*
X0069079Y0060102D03*
X0069079Y0070102D03*
X0069079Y0080102D03*
X0069079Y0090102D03*
X0069079Y0100102D03*
X0069079Y0110102D03*
X0069079Y0120102D03*
X0069079Y0130102D03*
X0069079Y0140102D03*
X0069079Y0150102D03*
X0069079Y0160102D03*
X0069079Y0170102D03*
X0069079Y0180102D03*
X0069079Y0190102D03*
X0069079Y0200102D03*
X0069079Y0210102D03*
X0069079Y0220102D03*
X0069079Y0230102D03*
X0069079Y0240102D03*
X0069079Y0250102D03*
X0069079Y0260102D03*
X0069079Y0270102D03*
X0069079Y0280102D03*
X0069079Y0290102D03*
X0069079Y0300102D03*
X0079079Y0300102D03*
X0079079Y0290102D03*
X0079079Y0280102D03*
X0079079Y0270102D03*
X0079079Y0260102D03*
X0079079Y0250102D03*
X0079079Y0240102D03*
X0079079Y0230102D03*
X0079079Y0220102D03*
X0079079Y0210102D03*
X0079079Y0200102D03*
X0079079Y0190102D03*
X0079079Y0180102D03*
X0079079Y0170102D03*
X0079079Y0160102D03*
X0079079Y0150102D03*
X0079079Y0140102D03*
X0079079Y0130102D03*
X0079079Y0120102D03*
X0079079Y0110102D03*
X0079079Y0100102D03*
X0079079Y0090102D03*
X0079079Y0080102D03*
X0079079Y0070102D03*
X0079079Y0060102D03*
D11*
X0069079Y0260102D02*
X0069079Y0270102D01*
X0069079Y0280102D02*
X0069079Y0290102D01*
X0046579Y0290102D02*
X0046579Y0280102D01*
X0046579Y0270102D02*
X0046579Y0260102D01*
M02*
